M48
;Layer_Color=3158064
;FILE_FORMAT=2:5
INCH,LZ
;TYPE=PLATED
T1F00S00C0.01200
T2F00S00C0.02500
T3F00S00C0.03000
T4F00S00C0.04000
%
T01
X49989Y29505
X49888Y29454
X49836Y29633
X49893Y28942
X49998Y28604
X49991Y28548
X50038Y28604
X50078
X50118
X50178
X50218
X50258
X50298
X50334Y2859
X50363Y2857
X50322Y28467
X50541Y28575
X50626Y28837
X507956Y2894994
X50873Y29112
X50905Y29281
X50902Y29451
X51062Y29571
X50728Y29639
X50607Y29625
X50551Y29428
X50391Y29242
X50214Y29236
X50172Y29139
X50209Y29025
X50078Y29002
X5008Y28938
X50004Y28993
X50111Y28825
X50147Y28817
X50339Y28822
X50281Y28931
X5002Y29296
X50189Y2961
X5010137Y2976629
X50098Y29875
X50071Y2994
X50181Y29907
X50126Y30075
X50634Y29836
X50717Y29864
X50932Y2982
X50957Y29756
X51041Y2971
X50964Y29951
X49987Y29697
T02
X50016Y2886
T03
X50539Y28678
X50439
T04
X50591Y28477
X50491
X50391
X5039Y28377
X5049
X5059
M30
