M48
; DRILL file {KiCad 8.0.5} date 2024-09-21T17:09:15+0200
; FORMAT={-:-/ absolute / inch / decimal}
; #@! TF.CreationDate,2024-09-21T17:09:15+02:00
; #@! TF.GenerationSoftware,Kicad,Pcbnew,8.0.5
; #@! TF.FileFunction,Plated,1,2,PTH
FMAT,2
INCH
; #@! TA.AperFunction,Plated,PTH,ViaDrill
T1C0.0118
; #@! TA.AperFunction,Plated,PTH,ComponentDrill
T2C0.0394
%
G90
G05
T1
X5.449Y-4.564
X5.661Y-4.64
X5.765Y-4.46
X5.82Y-4.675
T2
X5.0Y-4.2
X5.1Y-4.2
X5.1002Y-3.05
X5.1002Y-3.15
X5.1002Y-3.25
X5.1002Y-3.35
X5.1002Y-3.45
X5.1002Y-3.55
X5.1002Y-3.65
X5.1002Y-3.75
X5.1002Y-3.85
X5.1002Y-3.95
X5.2Y-4.2
X5.2002Y-3.05
X5.2002Y-3.15
X5.2002Y-3.25
X5.2002Y-3.35
X5.2002Y-3.45
X5.2002Y-3.55
X5.2002Y-3.65
X5.2002Y-3.75
X5.2002Y-3.85
X5.2002Y-3.95
X5.3Y-4.2
X5.3002Y-3.05
X5.3002Y-3.15
X5.3002Y-3.25
X5.3002Y-3.35
X5.3002Y-3.45
X5.3002Y-3.55
X5.3002Y-3.65
X5.3002Y-3.75
X5.3002Y-3.85
X5.3002Y-3.95
X5.4Y-4.2
X5.4002Y-3.05
X5.4002Y-3.15
X5.4002Y-3.25
X5.4002Y-3.35
X5.4002Y-3.45
X5.4002Y-3.55
X5.4002Y-3.65
X5.4002Y-3.75
X5.4002Y-3.85
X5.4002Y-3.95
X5.5Y-4.2
X5.5002Y-3.05
X5.5002Y-3.15
X5.5002Y-3.25
X5.5002Y-3.35
X5.5002Y-3.45
X5.5002Y-3.55
X5.5002Y-3.65
X5.5002Y-3.75
X5.5002Y-3.85
X5.5002Y-3.95
X5.6Y-4.2
X5.6002Y-3.05
X5.6002Y-3.15
X5.6002Y-3.25
X5.6002Y-3.35
X5.6002Y-3.45
X5.6002Y-3.55
X5.6002Y-3.65
X5.6002Y-3.75
X5.6002Y-3.85
X5.6002Y-3.95
X5.6008Y-4.7756
X5.6008Y-4.8756
X5.7Y-4.2
X5.7002Y-3.05
X5.7002Y-3.15
X5.7002Y-3.25
X5.7002Y-3.35
X5.7002Y-3.45
X5.7002Y-3.55
X5.7002Y-3.65
X5.7002Y-3.75
X5.7002Y-3.85
X5.7002Y-3.95
X5.7008Y-4.7756
X5.7008Y-4.8756
X5.8Y-3.05
X5.8Y-3.15
X5.8Y-3.25
X5.8Y-3.35
X5.8Y-3.45
X5.8Y-3.55
X5.8Y-3.65
X5.8Y-3.75
X5.8Y-3.85
X5.8Y-3.95
X5.8Y-4.2
X5.8008Y-4.7756
X5.8008Y-4.8756
X5.9Y-3.05
X5.9Y-3.15
X5.9Y-3.25
X5.9Y-3.35
X5.9Y-3.45
X5.9Y-3.55
X5.9Y-3.65
X5.9Y-3.75
X5.9Y-3.85
X5.9Y-3.95
X5.9Y-4.2
X5.9752Y-4.725
X6.0Y-3.05
X6.0Y-3.15
X6.0Y-3.25
X6.0Y-3.35
X6.0Y-3.45
X6.0Y-3.55
X6.0Y-3.65
X6.0Y-3.75
X6.0Y-3.85
X6.0Y-3.95
X6.0Y-4.2
X6.0752Y-4.725
X6.0998Y-4.55
X6.1Y-3.05
X6.1Y-3.15
X6.1Y-3.25
X6.1Y-3.35
X6.1Y-3.45
X6.1Y-3.55
X6.1Y-3.65
X6.1Y-3.75
X6.1Y-3.85
X6.1Y-3.95
X6.1Y-4.2
X6.1998Y-4.55
X6.2Y-3.05
X6.2Y-3.15
X6.2Y-3.25
X6.2Y-3.35
X6.2Y-3.45
X6.2Y-3.55
X6.2Y-3.65
X6.2Y-3.75
X6.2Y-3.85
X6.2Y-3.95
X6.2Y-4.2
X6.3Y-4.2
M30
