%TF.GenerationSoftware,KiCad,Pcbnew,8.0.5*%
%TF.CreationDate,2024-09-21T17:09:33+02:00*%
%TF.ProjectId,sao_proto,73616f5f-7072-46f7-946f-2e6b69636164,rev?*%
%TF.SameCoordinates,Original*%
%TF.FileFunction,Legend,Top*%
%TF.FilePolarity,Positive*%
%FSLAX46Y46*%
G04 Gerber Fmt 4.6, Leading zero omitted, Abs format (unit mm)*
G04 Created by KiCad (PCBNEW 8.0.5) date 2024-09-21 17:09:33*
%MOMM*%
%LPD*%
G01*
G04 APERTURE LIST*
%ADD10C,0.100000*%
%ADD11C,0.300000*%
%ADD12C,0.120000*%
G04 APERTURE END LIST*
D10*
X152739585Y-103975068D02*
X152775300Y-104010782D01*
X152775300Y-104010782D02*
X152811014Y-104117925D01*
X152811014Y-104117925D02*
X152811014Y-104189353D01*
X152811014Y-104189353D02*
X152775300Y-104296496D01*
X152775300Y-104296496D02*
X152703871Y-104367925D01*
X152703871Y-104367925D02*
X152632442Y-104403639D01*
X152632442Y-104403639D02*
X152489585Y-104439353D01*
X152489585Y-104439353D02*
X152382442Y-104439353D01*
X152382442Y-104439353D02*
X152239585Y-104403639D01*
X152239585Y-104403639D02*
X152168157Y-104367925D01*
X152168157Y-104367925D02*
X152096728Y-104296496D01*
X152096728Y-104296496D02*
X152061014Y-104189353D01*
X152061014Y-104189353D02*
X152061014Y-104117925D01*
X152061014Y-104117925D02*
X152096728Y-104010782D01*
X152096728Y-104010782D02*
X152132442Y-103975068D01*
X152061014Y-103332211D02*
X152061014Y-103475068D01*
X152061014Y-103475068D02*
X152096728Y-103546496D01*
X152096728Y-103546496D02*
X152132442Y-103582211D01*
X152132442Y-103582211D02*
X152239585Y-103653639D01*
X152239585Y-103653639D02*
X152382442Y-103689353D01*
X152382442Y-103689353D02*
X152668157Y-103689353D01*
X152668157Y-103689353D02*
X152739585Y-103653639D01*
X152739585Y-103653639D02*
X152775300Y-103617925D01*
X152775300Y-103617925D02*
X152811014Y-103546496D01*
X152811014Y-103546496D02*
X152811014Y-103403639D01*
X152811014Y-103403639D02*
X152775300Y-103332211D01*
X152775300Y-103332211D02*
X152739585Y-103296496D01*
X152739585Y-103296496D02*
X152668157Y-103260782D01*
X152668157Y-103260782D02*
X152489585Y-103260782D01*
X152489585Y-103260782D02*
X152418157Y-103296496D01*
X152418157Y-103296496D02*
X152382442Y-103332211D01*
X152382442Y-103332211D02*
X152346728Y-103403639D01*
X152346728Y-103403639D02*
X152346728Y-103546496D01*
X152346728Y-103546496D02*
X152382442Y-103617925D01*
X152382442Y-103617925D02*
X152418157Y-103653639D01*
X152418157Y-103653639D02*
X152489585Y-103689353D01*
X157565585Y-103975068D02*
X157601300Y-104010782D01*
X157601300Y-104010782D02*
X157637014Y-104117925D01*
X157637014Y-104117925D02*
X157637014Y-104189353D01*
X157637014Y-104189353D02*
X157601300Y-104296496D01*
X157601300Y-104296496D02*
X157529871Y-104367925D01*
X157529871Y-104367925D02*
X157458442Y-104403639D01*
X157458442Y-104403639D02*
X157315585Y-104439353D01*
X157315585Y-104439353D02*
X157208442Y-104439353D01*
X157208442Y-104439353D02*
X157065585Y-104403639D01*
X157065585Y-104403639D02*
X156994157Y-104367925D01*
X156994157Y-104367925D02*
X156922728Y-104296496D01*
X156922728Y-104296496D02*
X156887014Y-104189353D01*
X156887014Y-104189353D02*
X156887014Y-104117925D01*
X156887014Y-104117925D02*
X156922728Y-104010782D01*
X156922728Y-104010782D02*
X156958442Y-103975068D01*
X157137014Y-103332211D02*
X157637014Y-103332211D01*
X156851300Y-103510782D02*
X157387014Y-103689353D01*
X157387014Y-103689353D02*
X157387014Y-103225068D01*
X132276728Y-104439353D02*
X132276728Y-104082211D01*
X132491014Y-104510782D02*
X131741014Y-104260782D01*
X131741014Y-104260782D02*
X132491014Y-104010782D01*
X132491014Y-103367925D02*
X132491014Y-103796496D01*
X132491014Y-103582211D02*
X131741014Y-103582211D01*
X131741014Y-103582211D02*
X131848157Y-103653639D01*
X131848157Y-103653639D02*
X131919585Y-103725068D01*
X131919585Y-103725068D02*
X131955300Y-103796496D01*
D11*
X144318510Y-74159400D02*
X145461368Y-74159400D01*
X144889939Y-74730828D02*
X144889939Y-73587971D01*
D10*
X137571014Y-104403639D02*
X136821014Y-104403639D01*
X136821014Y-104403639D02*
X136821014Y-104225068D01*
X136821014Y-104225068D02*
X136856728Y-104117925D01*
X136856728Y-104117925D02*
X136928157Y-104046496D01*
X136928157Y-104046496D02*
X136999585Y-104010782D01*
X136999585Y-104010782D02*
X137142442Y-103975068D01*
X137142442Y-103975068D02*
X137249585Y-103975068D01*
X137249585Y-103975068D02*
X137392442Y-104010782D01*
X137392442Y-104010782D02*
X137463871Y-104046496D01*
X137463871Y-104046496D02*
X137535300Y-104117925D01*
X137535300Y-104117925D02*
X137571014Y-104225068D01*
X137571014Y-104225068D02*
X137571014Y-104403639D01*
X136821014Y-103332211D02*
X136821014Y-103475068D01*
X136821014Y-103475068D02*
X136856728Y-103546496D01*
X136856728Y-103546496D02*
X136892442Y-103582211D01*
X136892442Y-103582211D02*
X136999585Y-103653639D01*
X136999585Y-103653639D02*
X137142442Y-103689353D01*
X137142442Y-103689353D02*
X137428157Y-103689353D01*
X137428157Y-103689353D02*
X137499585Y-103653639D01*
X137499585Y-103653639D02*
X137535300Y-103617925D01*
X137535300Y-103617925D02*
X137571014Y-103546496D01*
X137571014Y-103546496D02*
X137571014Y-103403639D01*
X137571014Y-103403639D02*
X137535300Y-103332211D01*
X137535300Y-103332211D02*
X137499585Y-103296496D01*
X137499585Y-103296496D02*
X137428157Y-103260782D01*
X137428157Y-103260782D02*
X137249585Y-103260782D01*
X137249585Y-103260782D02*
X137178157Y-103296496D01*
X137178157Y-103296496D02*
X137142442Y-103332211D01*
X137142442Y-103332211D02*
X137106728Y-103403639D01*
X137106728Y-103403639D02*
X137106728Y-103546496D01*
X137106728Y-103546496D02*
X137142442Y-103617925D01*
X137142442Y-103617925D02*
X137178157Y-103653639D01*
X137178157Y-103653639D02*
X137249585Y-103689353D01*
X127339585Y-103975068D02*
X127375300Y-104010782D01*
X127375300Y-104010782D02*
X127411014Y-104117925D01*
X127411014Y-104117925D02*
X127411014Y-104189353D01*
X127411014Y-104189353D02*
X127375300Y-104296496D01*
X127375300Y-104296496D02*
X127303871Y-104367925D01*
X127303871Y-104367925D02*
X127232442Y-104403639D01*
X127232442Y-104403639D02*
X127089585Y-104439353D01*
X127089585Y-104439353D02*
X126982442Y-104439353D01*
X126982442Y-104439353D02*
X126839585Y-104403639D01*
X126839585Y-104403639D02*
X126768157Y-104367925D01*
X126768157Y-104367925D02*
X126696728Y-104296496D01*
X126696728Y-104296496D02*
X126661014Y-104189353D01*
X126661014Y-104189353D02*
X126661014Y-104117925D01*
X126661014Y-104117925D02*
X126696728Y-104010782D01*
X126696728Y-104010782D02*
X126732442Y-103975068D01*
X126661014Y-103510782D02*
X126661014Y-103439353D01*
X126661014Y-103439353D02*
X126696728Y-103367925D01*
X126696728Y-103367925D02*
X126732442Y-103332211D01*
X126732442Y-103332211D02*
X126803871Y-103296496D01*
X126803871Y-103296496D02*
X126946728Y-103260782D01*
X126946728Y-103260782D02*
X127125300Y-103260782D01*
X127125300Y-103260782D02*
X127268157Y-103296496D01*
X127268157Y-103296496D02*
X127339585Y-103332211D01*
X127339585Y-103332211D02*
X127375300Y-103367925D01*
X127375300Y-103367925D02*
X127411014Y-103439353D01*
X127411014Y-103439353D02*
X127411014Y-103510782D01*
X127411014Y-103510782D02*
X127375300Y-103582211D01*
X127375300Y-103582211D02*
X127339585Y-103617925D01*
X127339585Y-103617925D02*
X127268157Y-103653639D01*
X127268157Y-103653639D02*
X127125300Y-103689353D01*
X127125300Y-103689353D02*
X126946728Y-103689353D01*
X126946728Y-103689353D02*
X126803871Y-103653639D01*
X126803871Y-103653639D02*
X126732442Y-103617925D01*
X126732442Y-103617925D02*
X126696728Y-103582211D01*
X126696728Y-103582211D02*
X126661014Y-103510782D01*
D11*
X141778510Y-74159400D02*
X142921368Y-74159400D01*
D10*
X147731014Y-104403639D02*
X146981014Y-104403639D01*
X146981014Y-104403639D02*
X146981014Y-104225068D01*
X146981014Y-104225068D02*
X147016728Y-104117925D01*
X147016728Y-104117925D02*
X147088157Y-104046496D01*
X147088157Y-104046496D02*
X147159585Y-104010782D01*
X147159585Y-104010782D02*
X147302442Y-103975068D01*
X147302442Y-103975068D02*
X147409585Y-103975068D01*
X147409585Y-103975068D02*
X147552442Y-104010782D01*
X147552442Y-104010782D02*
X147623871Y-104046496D01*
X147623871Y-104046496D02*
X147695300Y-104117925D01*
X147695300Y-104117925D02*
X147731014Y-104225068D01*
X147731014Y-104225068D02*
X147731014Y-104403639D01*
X147052442Y-103689353D02*
X147016728Y-103653639D01*
X147016728Y-103653639D02*
X146981014Y-103582211D01*
X146981014Y-103582211D02*
X146981014Y-103403639D01*
X146981014Y-103403639D02*
X147016728Y-103332211D01*
X147016728Y-103332211D02*
X147052442Y-103296496D01*
X147052442Y-103296496D02*
X147123871Y-103260782D01*
X147123871Y-103260782D02*
X147195300Y-103260782D01*
X147195300Y-103260782D02*
X147302442Y-103296496D01*
X147302442Y-103296496D02*
X147731014Y-103725068D01*
X147731014Y-103725068D02*
X147731014Y-103260782D01*
X154640646Y-121652442D02*
X154676360Y-121616728D01*
X154676360Y-121616728D02*
X154747789Y-121581014D01*
X154747789Y-121581014D02*
X154926360Y-121581014D01*
X154926360Y-121581014D02*
X154997789Y-121616728D01*
X154997789Y-121616728D02*
X155033503Y-121652442D01*
X155033503Y-121652442D02*
X155069217Y-121723871D01*
X155069217Y-121723871D02*
X155069217Y-121795300D01*
X155069217Y-121795300D02*
X155033503Y-121902442D01*
X155033503Y-121902442D02*
X154604931Y-122331014D01*
X154604931Y-122331014D02*
X155069217Y-122331014D01*
X150199585Y-103975068D02*
X150235300Y-104010782D01*
X150235300Y-104010782D02*
X150271014Y-104117925D01*
X150271014Y-104117925D02*
X150271014Y-104189353D01*
X150271014Y-104189353D02*
X150235300Y-104296496D01*
X150235300Y-104296496D02*
X150163871Y-104367925D01*
X150163871Y-104367925D02*
X150092442Y-104403639D01*
X150092442Y-104403639D02*
X149949585Y-104439353D01*
X149949585Y-104439353D02*
X149842442Y-104439353D01*
X149842442Y-104439353D02*
X149699585Y-104403639D01*
X149699585Y-104403639D02*
X149628157Y-104367925D01*
X149628157Y-104367925D02*
X149556728Y-104296496D01*
X149556728Y-104296496D02*
X149521014Y-104189353D01*
X149521014Y-104189353D02*
X149521014Y-104117925D01*
X149521014Y-104117925D02*
X149556728Y-104010782D01*
X149556728Y-104010782D02*
X149592442Y-103975068D01*
X149521014Y-103725068D02*
X149521014Y-103225068D01*
X149521014Y-103225068D02*
X150271014Y-103546496D01*
X135031014Y-104403639D02*
X134281014Y-104403639D01*
X134281014Y-104403639D02*
X134281014Y-104225068D01*
X134281014Y-104225068D02*
X134316728Y-104117925D01*
X134316728Y-104117925D02*
X134388157Y-104046496D01*
X134388157Y-104046496D02*
X134459585Y-104010782D01*
X134459585Y-104010782D02*
X134602442Y-103975068D01*
X134602442Y-103975068D02*
X134709585Y-103975068D01*
X134709585Y-103975068D02*
X134852442Y-104010782D01*
X134852442Y-104010782D02*
X134923871Y-104046496D01*
X134923871Y-104046496D02*
X134995300Y-104117925D01*
X134995300Y-104117925D02*
X135031014Y-104225068D01*
X135031014Y-104225068D02*
X135031014Y-104403639D01*
X134281014Y-103725068D02*
X134281014Y-103225068D01*
X134281014Y-103225068D02*
X135031014Y-103546496D01*
X155279585Y-103975068D02*
X155315300Y-104010782D01*
X155315300Y-104010782D02*
X155351014Y-104117925D01*
X155351014Y-104117925D02*
X155351014Y-104189353D01*
X155351014Y-104189353D02*
X155315300Y-104296496D01*
X155315300Y-104296496D02*
X155243871Y-104367925D01*
X155243871Y-104367925D02*
X155172442Y-104403639D01*
X155172442Y-104403639D02*
X155029585Y-104439353D01*
X155029585Y-104439353D02*
X154922442Y-104439353D01*
X154922442Y-104439353D02*
X154779585Y-104403639D01*
X154779585Y-104403639D02*
X154708157Y-104367925D01*
X154708157Y-104367925D02*
X154636728Y-104296496D01*
X154636728Y-104296496D02*
X154601014Y-104189353D01*
X154601014Y-104189353D02*
X154601014Y-104117925D01*
X154601014Y-104117925D02*
X154636728Y-104010782D01*
X154636728Y-104010782D02*
X154672442Y-103975068D01*
X154601014Y-103296496D02*
X154601014Y-103653639D01*
X154601014Y-103653639D02*
X154958157Y-103689353D01*
X154958157Y-103689353D02*
X154922442Y-103653639D01*
X154922442Y-103653639D02*
X154886728Y-103582211D01*
X154886728Y-103582211D02*
X154886728Y-103403639D01*
X154886728Y-103403639D02*
X154922442Y-103332211D01*
X154922442Y-103332211D02*
X154958157Y-103296496D01*
X154958157Y-103296496D02*
X155029585Y-103260782D01*
X155029585Y-103260782D02*
X155208157Y-103260782D01*
X155208157Y-103260782D02*
X155279585Y-103296496D01*
X155279585Y-103296496D02*
X155315300Y-103332211D01*
X155315300Y-103332211D02*
X155351014Y-103403639D01*
X155351014Y-103403639D02*
X155351014Y-103582211D01*
X155351014Y-103582211D02*
X155315300Y-103653639D01*
X155315300Y-103653639D02*
X155279585Y-103689353D01*
X140111014Y-104403639D02*
X139361014Y-104403639D01*
X139361014Y-104403639D02*
X139361014Y-104225068D01*
X139361014Y-104225068D02*
X139396728Y-104117925D01*
X139396728Y-104117925D02*
X139468157Y-104046496D01*
X139468157Y-104046496D02*
X139539585Y-104010782D01*
X139539585Y-104010782D02*
X139682442Y-103975068D01*
X139682442Y-103975068D02*
X139789585Y-103975068D01*
X139789585Y-103975068D02*
X139932442Y-104010782D01*
X139932442Y-104010782D02*
X140003871Y-104046496D01*
X140003871Y-104046496D02*
X140075300Y-104117925D01*
X140075300Y-104117925D02*
X140111014Y-104225068D01*
X140111014Y-104225068D02*
X140111014Y-104403639D01*
X139361014Y-103296496D02*
X139361014Y-103653639D01*
X139361014Y-103653639D02*
X139718157Y-103689353D01*
X139718157Y-103689353D02*
X139682442Y-103653639D01*
X139682442Y-103653639D02*
X139646728Y-103582211D01*
X139646728Y-103582211D02*
X139646728Y-103403639D01*
X139646728Y-103403639D02*
X139682442Y-103332211D01*
X139682442Y-103332211D02*
X139718157Y-103296496D01*
X139718157Y-103296496D02*
X139789585Y-103260782D01*
X139789585Y-103260782D02*
X139968157Y-103260782D01*
X139968157Y-103260782D02*
X140039585Y-103296496D01*
X140039585Y-103296496D02*
X140075300Y-103332211D01*
X140075300Y-103332211D02*
X140111014Y-103403639D01*
X140111014Y-103403639D02*
X140111014Y-103582211D01*
X140111014Y-103582211D02*
X140075300Y-103653639D01*
X140075300Y-103653639D02*
X140039585Y-103689353D01*
X142651014Y-104403639D02*
X141901014Y-104403639D01*
X141901014Y-104403639D02*
X141901014Y-104225068D01*
X141901014Y-104225068D02*
X141936728Y-104117925D01*
X141936728Y-104117925D02*
X142008157Y-104046496D01*
X142008157Y-104046496D02*
X142079585Y-104010782D01*
X142079585Y-104010782D02*
X142222442Y-103975068D01*
X142222442Y-103975068D02*
X142329585Y-103975068D01*
X142329585Y-103975068D02*
X142472442Y-104010782D01*
X142472442Y-104010782D02*
X142543871Y-104046496D01*
X142543871Y-104046496D02*
X142615300Y-104117925D01*
X142615300Y-104117925D02*
X142651014Y-104225068D01*
X142651014Y-104225068D02*
X142651014Y-104403639D01*
X142151014Y-103332211D02*
X142651014Y-103332211D01*
X141865300Y-103510782D02*
X142401014Y-103689353D01*
X142401014Y-103689353D02*
X142401014Y-103225068D01*
X145191014Y-104403639D02*
X144441014Y-104403639D01*
X144441014Y-104403639D02*
X144441014Y-104225068D01*
X144441014Y-104225068D02*
X144476728Y-104117925D01*
X144476728Y-104117925D02*
X144548157Y-104046496D01*
X144548157Y-104046496D02*
X144619585Y-104010782D01*
X144619585Y-104010782D02*
X144762442Y-103975068D01*
X144762442Y-103975068D02*
X144869585Y-103975068D01*
X144869585Y-103975068D02*
X145012442Y-104010782D01*
X145012442Y-104010782D02*
X145083871Y-104046496D01*
X145083871Y-104046496D02*
X145155300Y-104117925D01*
X145155300Y-104117925D02*
X145191014Y-104225068D01*
X145191014Y-104225068D02*
X145191014Y-104403639D01*
X144441014Y-103725068D02*
X144441014Y-103260782D01*
X144441014Y-103260782D02*
X144726728Y-103510782D01*
X144726728Y-103510782D02*
X144726728Y-103403639D01*
X144726728Y-103403639D02*
X144762442Y-103332211D01*
X144762442Y-103332211D02*
X144798157Y-103296496D01*
X144798157Y-103296496D02*
X144869585Y-103260782D01*
X144869585Y-103260782D02*
X145048157Y-103260782D01*
X145048157Y-103260782D02*
X145119585Y-103296496D01*
X145119585Y-103296496D02*
X145155300Y-103332211D01*
X145155300Y-103332211D02*
X145191014Y-103403639D01*
X145191014Y-103403639D02*
X145191014Y-103617925D01*
X145191014Y-103617925D02*
X145155300Y-103689353D01*
X145155300Y-103689353D02*
X145119585Y-103725068D01*
X136896360Y-122585014D02*
X136896360Y-121835014D01*
X136896360Y-121835014D02*
X137182074Y-121835014D01*
X137182074Y-121835014D02*
X137253503Y-121870728D01*
X137253503Y-121870728D02*
X137289217Y-121906442D01*
X137289217Y-121906442D02*
X137324931Y-121977871D01*
X137324931Y-121977871D02*
X137324931Y-122085014D01*
X137324931Y-122085014D02*
X137289217Y-122156442D01*
X137289217Y-122156442D02*
X137253503Y-122192157D01*
X137253503Y-122192157D02*
X137182074Y-122227871D01*
X137182074Y-122227871D02*
X136896360Y-122227871D01*
X137646360Y-122585014D02*
X137646360Y-121835014D01*
X137646360Y-121835014D02*
X137824931Y-121835014D01*
X137824931Y-121835014D02*
X137932074Y-121870728D01*
X137932074Y-121870728D02*
X138003503Y-121942157D01*
X138003503Y-121942157D02*
X138039217Y-122013585D01*
X138039217Y-122013585D02*
X138074931Y-122156442D01*
X138074931Y-122156442D02*
X138074931Y-122263585D01*
X138074931Y-122263585D02*
X138039217Y-122406442D01*
X138039217Y-122406442D02*
X138003503Y-122477871D01*
X138003503Y-122477871D02*
X137932074Y-122549300D01*
X137932074Y-122549300D02*
X137824931Y-122585014D01*
X137824931Y-122585014D02*
X137646360Y-122585014D01*
X138539217Y-121835014D02*
X138610646Y-121835014D01*
X138610646Y-121835014D02*
X138682074Y-121870728D01*
X138682074Y-121870728D02*
X138717789Y-121906442D01*
X138717789Y-121906442D02*
X138753503Y-121977871D01*
X138753503Y-121977871D02*
X138789217Y-122120728D01*
X138789217Y-122120728D02*
X138789217Y-122299300D01*
X138789217Y-122299300D02*
X138753503Y-122442157D01*
X138753503Y-122442157D02*
X138717789Y-122513585D01*
X138717789Y-122513585D02*
X138682074Y-122549300D01*
X138682074Y-122549300D02*
X138610646Y-122585014D01*
X138610646Y-122585014D02*
X138539217Y-122585014D01*
X138539217Y-122585014D02*
X138467789Y-122549300D01*
X138467789Y-122549300D02*
X138432074Y-122513585D01*
X138432074Y-122513585D02*
X138396360Y-122442157D01*
X138396360Y-122442157D02*
X138360646Y-122299300D01*
X138360646Y-122299300D02*
X138360646Y-122120728D01*
X138360646Y-122120728D02*
X138396360Y-121977871D01*
X138396360Y-121977871D02*
X138432074Y-121906442D01*
X138432074Y-121906442D02*
X138467789Y-121870728D01*
X138467789Y-121870728D02*
X138539217Y-121835014D01*
X160105585Y-103975068D02*
X160141300Y-104010782D01*
X160141300Y-104010782D02*
X160177014Y-104117925D01*
X160177014Y-104117925D02*
X160177014Y-104189353D01*
X160177014Y-104189353D02*
X160141300Y-104296496D01*
X160141300Y-104296496D02*
X160069871Y-104367925D01*
X160069871Y-104367925D02*
X159998442Y-104403639D01*
X159998442Y-104403639D02*
X159855585Y-104439353D01*
X159855585Y-104439353D02*
X159748442Y-104439353D01*
X159748442Y-104439353D02*
X159605585Y-104403639D01*
X159605585Y-104403639D02*
X159534157Y-104367925D01*
X159534157Y-104367925D02*
X159462728Y-104296496D01*
X159462728Y-104296496D02*
X159427014Y-104189353D01*
X159427014Y-104189353D02*
X159427014Y-104117925D01*
X159427014Y-104117925D02*
X159462728Y-104010782D01*
X159462728Y-104010782D02*
X159498442Y-103975068D01*
X159427014Y-103725068D02*
X159427014Y-103260782D01*
X159427014Y-103260782D02*
X159712728Y-103510782D01*
X159712728Y-103510782D02*
X159712728Y-103403639D01*
X159712728Y-103403639D02*
X159748442Y-103332211D01*
X159748442Y-103332211D02*
X159784157Y-103296496D01*
X159784157Y-103296496D02*
X159855585Y-103260782D01*
X159855585Y-103260782D02*
X160034157Y-103260782D01*
X160034157Y-103260782D02*
X160105585Y-103296496D01*
X160105585Y-103296496D02*
X160141300Y-103332211D01*
X160141300Y-103332211D02*
X160177014Y-103403639D01*
X160177014Y-103403639D02*
X160177014Y-103617925D01*
X160177014Y-103617925D02*
X160141300Y-103689353D01*
X160141300Y-103689353D02*
X160105585Y-103725068D01*
X152783217Y-122331014D02*
X152354646Y-122331014D01*
X152568931Y-122331014D02*
X152568931Y-121581014D01*
X152568931Y-121581014D02*
X152497503Y-121688157D01*
X152497503Y-121688157D02*
X152426074Y-121759585D01*
X152426074Y-121759585D02*
X152354646Y-121795300D01*
X129736728Y-104439353D02*
X129736728Y-104082211D01*
X129951014Y-104510782D02*
X129201014Y-104260782D01*
X129201014Y-104260782D02*
X129951014Y-104010782D01*
X129272442Y-103796496D02*
X129236728Y-103760782D01*
X129236728Y-103760782D02*
X129201014Y-103689354D01*
X129201014Y-103689354D02*
X129201014Y-103510782D01*
X129201014Y-103510782D02*
X129236728Y-103439354D01*
X129236728Y-103439354D02*
X129272442Y-103403639D01*
X129272442Y-103403639D02*
X129343871Y-103367925D01*
X129343871Y-103367925D02*
X129415300Y-103367925D01*
X129415300Y-103367925D02*
X129522442Y-103403639D01*
X129522442Y-103403639D02*
X129951014Y-103832211D01*
X129951014Y-103832211D02*
X129951014Y-103367925D01*
D12*
%TO.C,C1*%
X139190000Y-117615580D02*
X139190000Y-117334420D01*
X140210000Y-117615580D02*
X140210000Y-117334420D01*
D10*
%TO.C,REF\u002A\u002A*%
X143515000Y-76200000D02*
X146055000Y-76200000D01*
X143515000Y-101600000D02*
X143515000Y-76200000D01*
X146055000Y-76200000D02*
X146055000Y-101600000D01*
X146055000Y-101600000D02*
X143515000Y-101600000D01*
X128275000Y-86360000D02*
X140975000Y-86360000D01*
X128275000Y-88900000D02*
X128275000Y-86360000D01*
X140975000Y-86360000D02*
X140975000Y-88900000D01*
X140975000Y-88900000D02*
X128275000Y-88900000D01*
X146050000Y-88900000D02*
X158750000Y-88900000D01*
X146050000Y-91440000D02*
X146050000Y-88900000D01*
X158750000Y-88900000D02*
X158750000Y-91440000D01*
X158750000Y-91440000D02*
X146050000Y-91440000D01*
X128275000Y-76200000D02*
X140975000Y-76200000D01*
X128275000Y-78740000D02*
X128275000Y-76200000D01*
X140975000Y-76200000D02*
X140975000Y-78740000D01*
X140975000Y-78740000D02*
X128275000Y-78740000D01*
X146050000Y-76200000D02*
X158750000Y-76200000D01*
X146050000Y-78740000D02*
X146050000Y-76200000D01*
X158750000Y-76200000D02*
X158750000Y-78740000D01*
X158750000Y-78740000D02*
X146050000Y-78740000D01*
X128275000Y-91440000D02*
X140975000Y-91440000D01*
X128275000Y-93980000D02*
X128275000Y-91440000D01*
X140975000Y-91440000D02*
X140975000Y-93980000D01*
X140975000Y-93980000D02*
X128275000Y-93980000D01*
%TO.C,J2*%
X153665000Y-114300000D02*
X158745000Y-114300000D01*
X153665000Y-116840000D02*
X153665000Y-114300000D01*
X156205000Y-116840000D02*
X156205000Y-114300000D01*
X158745000Y-114300000D02*
X158745000Y-116840000D01*
X158745000Y-116840000D02*
X153665000Y-116840000D01*
%TO.C,REF\u002A\u002A*%
X146050000Y-78740000D02*
X158750000Y-78740000D01*
X146050000Y-81280000D02*
X146050000Y-78740000D01*
X158750000Y-78740000D02*
X158750000Y-81280000D01*
X158750000Y-81280000D02*
X146050000Y-81280000D01*
X128275000Y-78740000D02*
X140975000Y-78740000D01*
X128275000Y-81280000D02*
X128275000Y-78740000D01*
X140975000Y-78740000D02*
X140975000Y-81280000D01*
X140975000Y-81280000D02*
X128275000Y-81280000D01*
X146050000Y-96520000D02*
X158750000Y-96520000D01*
X146050000Y-99060000D02*
X146050000Y-96520000D01*
X158750000Y-96520000D02*
X158750000Y-99060000D01*
X158750000Y-99060000D02*
X146050000Y-99060000D01*
D12*
%TO.C,U1*%
X144987500Y-111550000D02*
X142787500Y-111550000D01*
X144987500Y-111550000D02*
X147187500Y-111550000D01*
X144987500Y-118320000D02*
X142787500Y-118320000D01*
X144987500Y-118320000D02*
X147187500Y-118320000D01*
X141127500Y-112010000D02*
X140797500Y-112250000D01*
X140797500Y-111770000D01*
X141127500Y-112010000D01*
G36*
X141127500Y-112010000D02*
G01*
X140797500Y-112250000D01*
X140797500Y-111770000D01*
X141127500Y-112010000D01*
G37*
%TO.C,D1*%
X136310000Y-119915000D02*
X136310000Y-121385000D01*
X136310000Y-121385000D02*
X138595000Y-121385000D01*
X138595000Y-119915000D02*
X136310000Y-119915000D01*
D10*
%TO.C,REF\u002A\u002A*%
X128275000Y-99060000D02*
X140975000Y-99060000D01*
X128275000Y-101600000D02*
X128275000Y-99060000D01*
X140975000Y-99060000D02*
X140975000Y-101600000D01*
X140975000Y-101600000D02*
X128275000Y-101600000D01*
X128275000Y-96520000D02*
X140975000Y-96520000D01*
X128275000Y-99060000D02*
X128275000Y-96520000D01*
X140975000Y-96520000D02*
X140975000Y-99060000D01*
X140975000Y-99060000D02*
X128275000Y-99060000D01*
X146050000Y-86360000D02*
X158750000Y-86360000D01*
X146050000Y-88900000D02*
X146050000Y-86360000D01*
X158750000Y-86360000D02*
X158750000Y-88900000D01*
X158750000Y-88900000D02*
X146050000Y-88900000D01*
X146050000Y-81280000D02*
X158750000Y-81280000D01*
X146050000Y-83820000D02*
X146050000Y-81280000D01*
X158750000Y-81280000D02*
X158750000Y-83820000D01*
X158750000Y-83820000D02*
X146050000Y-83820000D01*
X128275000Y-93980000D02*
X140975000Y-93980000D01*
X128275000Y-96520000D02*
X128275000Y-93980000D01*
X140975000Y-93980000D02*
X140975000Y-96520000D01*
X140975000Y-96520000D02*
X128275000Y-96520000D01*
X140975000Y-76200000D02*
X143515000Y-76200000D01*
X140975000Y-101600000D02*
X140975000Y-76200000D01*
X143515000Y-76200000D02*
X143515000Y-101600000D01*
X143515000Y-101600000D02*
X140975000Y-101600000D01*
X146050000Y-93980000D02*
X158750000Y-93980000D01*
X146050000Y-96520000D02*
X146050000Y-93980000D01*
X158750000Y-93980000D02*
X158750000Y-96520000D01*
X158750000Y-96520000D02*
X146050000Y-96520000D01*
X146050000Y-99060000D02*
X158750000Y-99060000D01*
X146050000Y-101600000D02*
X146050000Y-99060000D01*
X158750000Y-99060000D02*
X158750000Y-101600000D01*
X158750000Y-101600000D02*
X146050000Y-101600000D01*
%TO.C,J4*%
X125730000Y-105410000D02*
X161290000Y-105410000D01*
X125730000Y-107950000D02*
X125730000Y-105410000D01*
X161290000Y-105410000D02*
X161290000Y-107950000D01*
X161290000Y-107950000D02*
X125730000Y-107950000D01*
%TO.C,REF\u002A\u002A*%
X128275000Y-81280000D02*
X140975000Y-81280000D01*
X128275000Y-83820000D02*
X128275000Y-81280000D01*
X140975000Y-81280000D02*
X140975000Y-83820000D01*
X140975000Y-83820000D02*
X128275000Y-83820000D01*
D12*
%TO.C,R2*%
X136637500Y-117712258D02*
X136637500Y-117237742D01*
X137682500Y-117712258D02*
X137682500Y-117237742D01*
D10*
%TO.C,REF\u002A\u002A*%
X128275000Y-83820000D02*
X140975000Y-83820000D01*
X128275000Y-86360000D02*
X128275000Y-83820000D01*
X140975000Y-83820000D02*
X140975000Y-86360000D01*
X140975000Y-86360000D02*
X128275000Y-86360000D01*
X146050000Y-83820000D02*
X158750000Y-83820000D01*
X146050000Y-86360000D02*
X146050000Y-83820000D01*
X158750000Y-83820000D02*
X158750000Y-86360000D01*
X158750000Y-86360000D02*
X146050000Y-86360000D01*
X146050000Y-91440000D02*
X158750000Y-91440000D01*
X146050000Y-93980000D02*
X146050000Y-91440000D01*
X158750000Y-91440000D02*
X158750000Y-93980000D01*
X158750000Y-93980000D02*
X146050000Y-93980000D01*
%TO.C,J3*%
X150500000Y-118745000D02*
X155580000Y-118745000D01*
X150500000Y-121285000D02*
X150500000Y-118745000D01*
X153040000Y-118745000D02*
X153040000Y-121285000D01*
X155580000Y-118745000D02*
X155580000Y-121285000D01*
X155580000Y-121285000D02*
X150500000Y-121285000D01*
%TO.C,REF\u002A\u002A*%
X128275000Y-88900000D02*
X140975000Y-88900000D01*
X128275000Y-91440000D02*
X128275000Y-88900000D01*
X140975000Y-88900000D02*
X140975000Y-91440000D01*
X140975000Y-91440000D02*
X128275000Y-91440000D01*
%TD*%
M02*
