G04*
G04 #@! TF.GenerationSoftware,Altium Limited,CircuitStudio,1.5.2 (30)*
G04*
G04 Layer_Physical_Order=2*
G04 Layer_Color=51200*
%FSLAX25Y25*%
%MOIN*%
G70*
G01*
G75*
%ADD10C,0.01000*%
%ADD75C,0.00800*%
%ADD78C,0.05500*%
%ADD79C,0.06400*%
%ADD80C,0.04200*%
%ADD81C,0.02300*%
D10*
X5014700Y2881700D02*
G03*
X5017200Y2887736I-6036J6036D01*
G01*
X5057800Y2878900D02*
X5062600Y2883700D01*
X5037500Y2878900D02*
X5057800D01*
X5021800Y2863200D02*
X5037500Y2878900D01*
X5062100Y2876500D02*
X5073600Y2888000D01*
X5039400Y2876500D02*
X5062100D01*
X5025800Y2862900D02*
X5039400Y2876500D01*
X5064200Y2874300D02*
X5099700Y2909800D01*
X5040800Y2874300D02*
X5064200D01*
X5029800Y2863300D02*
X5040800Y2874300D01*
X5021800Y2860400D02*
Y2863200D01*
X5025800Y2860400D02*
Y2862900D01*
X5029800Y2860400D02*
Y2863300D01*
X5044500Y2853600D02*
X5050100Y2848000D01*
X5000300Y2853600D02*
X5044500D01*
X4999100Y2854800D02*
X5000300Y2853600D01*
X5054100Y2842800D02*
Y2857500D01*
X5049000Y2837700D02*
X5054100Y2842800D01*
X5055100Y2956900D02*
X5060700Y2962500D01*
X5055100Y2942800D02*
Y2956900D01*
X5018900Y2961000D02*
X5045000D01*
X5051100Y2967100D01*
X5063400D02*
Y2983600D01*
X5051100Y2967100D02*
X5069821D01*
X5072910Y2964010D01*
X5045000Y2930100D02*
Y2961000D01*
X5010137Y2934863D02*
Y2976629D01*
X5007800Y2900200D02*
X5008000Y2893800D01*
X5002000Y2900900D02*
Y2929600D01*
X5011100Y2913300D02*
X5021400Y2923600D01*
X5010137Y2934863D02*
X5021400Y2923600D01*
X5017200Y2887736D02*
Y2913900D01*
X5028100Y2883200D02*
Y2893100D01*
X5017800Y2872900D02*
X5028100Y2883200D01*
X5017800Y2860400D02*
Y2872900D01*
X4988800Y2945400D02*
Y2972000D01*
X5011100Y2882500D02*
Y2913300D01*
X5000400Y2899300D02*
X5002000Y2900900D01*
X4994800Y2965800D02*
X4998700Y2969700D01*
X4983600Y2963300D02*
Y2970200D01*
X4997300Y2879400D02*
Y2948900D01*
Y2879400D02*
X5007800Y2868900D01*
Y2860400D02*
Y2868900D01*
X4994800Y2878900D02*
Y2965800D01*
Y2878900D02*
X5003800Y2869900D01*
Y2860400D02*
Y2869900D01*
X4992700Y2877600D02*
Y2972200D01*
Y2877600D02*
X4999800Y2870500D01*
Y2860400D02*
Y2870500D01*
X5011800Y2860400D02*
Y2870500D01*
X5020900Y2879600D01*
Y2902500D01*
X5002000Y2929600D02*
Y2972100D01*
X5009900Y2980000D01*
Y2987600D01*
X5010072Y2987772D01*
X4992700Y2972200D02*
X5006300Y2985800D01*
X4988800Y2972000D02*
X5004200Y2987400D01*
X4983600Y2970200D02*
X5002000Y2988600D01*
X5006300Y2985800D02*
Y2988800D01*
X5010137Y2976629D02*
X5029900D01*
X5010072Y2987772D02*
X5037272D01*
X5073600Y2888000D02*
Y2922700D01*
X5095600Y2944700D01*
Y2975600D01*
X5090500Y2936200D02*
X5099200Y2944900D01*
X5090500Y2928100D02*
Y2936200D01*
X5087300Y2911200D02*
X5094300Y2918200D01*
Y2935300D01*
X5096900Y2912333D02*
Y2934100D01*
X5079560Y2894994D02*
X5096900Y2912333D01*
X5099700Y2909800D02*
Y2933200D01*
X5099200Y2944900D02*
Y2976000D01*
X5093200Y2982000D02*
X5099200Y2976000D01*
X5090200Y2945100D02*
Y2967900D01*
X5029900Y2976629D02*
X5039870Y2986600D01*
X5071500D01*
X5090200Y2967900D01*
X5037272Y2987772D02*
X5038900Y2989400D01*
X5006300Y2988800D02*
X5008200Y2990700D01*
X5018100D01*
X5002000Y2988600D02*
Y2996800D01*
X5004200Y2987400D02*
Y2990900D01*
X5007200Y2993900D01*
X5085900D01*
X5104300Y2975500D01*
X5038900Y2989400D02*
X5085800D01*
X5093200Y2982000D01*
X5096300Y2990600D02*
Y2995100D01*
X5094300Y2935300D02*
X5101700Y2942700D01*
Y2968600D01*
X5104300Y2971200D01*
Y2975500D01*
X5087300Y2996200D02*
X5107300Y2976200D01*
Y2958400D02*
Y2976200D01*
X5104100Y2955200D02*
X5107300Y2958400D01*
X5104100Y2941300D02*
Y2955200D01*
X5096900Y2934100D02*
X5104100Y2941300D01*
X5096300Y2990600D02*
X5109500Y2977400D01*
Y2955800D02*
Y2977400D01*
X5106200Y2952500D02*
X5109500Y2955800D01*
X5106200Y2939700D02*
Y2952500D01*
X5099700Y2933200D02*
X5106200Y2939700D01*
X5012500Y3007300D02*
X5023600Y2996200D01*
X5087300D01*
X5002000Y2996800D02*
X5012500Y3007300D01*
X5033800Y2918900D02*
X5045000Y2930100D01*
X5033800Y2882200D02*
Y2918900D01*
X4997300Y2948900D02*
X4998900Y2950500D01*
D75*
X5046300Y2860200D02*
X5053900Y2867800D01*
X5039500Y2860200D02*
X5046300D01*
X5036300Y2857000D02*
X5039500Y2860200D01*
X5039600Y2863500D02*
X5043900Y2867800D01*
X5037900Y2863500D02*
X5039600D01*
X5033400Y2859000D02*
X5037900Y2863500D01*
X4989300Y2877100D02*
X4995900Y2870500D01*
Y2853400D02*
Y2870500D01*
Y2853400D02*
X4997600Y2851700D01*
X4989300Y2877100D02*
Y2894200D01*
X5027200Y2851700D02*
X5032200Y2846700D01*
X4997600Y2851700D02*
X5027200D01*
D78*
X5053900Y2867800D02*
D03*
X5043900D02*
D03*
D79*
X5039100Y2847700D02*
D03*
X5039000Y2837700D02*
D03*
X5049000D02*
D03*
X5059000D02*
D03*
X5059100Y2847700D02*
D03*
X5049100D02*
D03*
D80*
X5001600Y2886000D02*
D03*
D81*
X5036300Y2857000D02*
D03*
X5033400Y2859000D02*
D03*
X5054100Y2857500D02*
D03*
X5032200Y2846700D02*
D03*
X4989300Y2894200D02*
D03*
X5055100Y2942800D02*
D03*
X5060700Y2962500D02*
D03*
X5018900Y2961000D02*
D03*
X5021400Y2923600D02*
D03*
X5002000Y2929600D02*
D03*
X4988800Y2945400D02*
D03*
X5010137Y2976629D02*
D03*
X5090200Y2945100D02*
D03*
X5090500Y2928100D02*
D03*
X5087300Y2911200D02*
D03*
X5079560Y2894994D02*
D03*
X5014700Y2881700D02*
D03*
X5017200Y2913900D02*
D03*
X5039100Y2924200D02*
D03*
X4999800Y2860400D02*
D03*
X5003800D02*
D03*
X5007800D02*
D03*
X5011800D02*
D03*
X5017800D02*
D03*
X5021800D02*
D03*
X5025800D02*
D03*
X5029800D02*
D03*
X5020900Y2902500D02*
D03*
X5028100Y2893100D02*
D03*
X4998700Y2969700D02*
D03*
X5095700Y2975600D02*
D03*
X4999100Y2854800D02*
D03*
X5008000Y2893800D02*
D03*
X5011100Y2882500D02*
D03*
X5000400Y2899300D02*
D03*
X4983600Y2963300D02*
D03*
X5033900Y2882200D02*
D03*
X5007800Y2900200D02*
D03*
X5072800Y2963900D02*
D03*
X5062600Y2883700D02*
D03*
X5009800Y2987500D02*
D03*
X5104100Y2971000D02*
D03*
X5093200Y2982000D02*
D03*
X5071700Y2986400D02*
D03*
X5063400Y2983600D02*
D03*
X5018100Y2990700D02*
D03*
X5007100Y2994000D02*
D03*
X5106200Y2957100D02*
D03*
X5096400Y2995100D02*
D03*
X5012600Y3007500D02*
D03*
X4998900Y2950500D02*
D03*
M02*
