G04*
G04 #@! TF.GenerationSoftware,Altium Limited,CircuitStudio,1.5.2 (30)*
G04*
G04 Layer_Physical_Order=1*
G04 Layer_Color=1513471*
%FSLAX25Y25*%
%MOIN*%
G70*
G01*
G75*
%ADD10C,0.01000*%
%ADD11C,0.01000*%
G04:AMPARAMS|DCode=12|XSize=40mil|YSize=44mil|CornerRadius=17.6mil|HoleSize=0mil|Usage=FLASHONLY|Rotation=47.000|XOffset=0mil|YOffset=0mil|HoleType=Round|Shape=RoundedRectangle|*
%AMROUNDEDRECTD12*
21,1,0.04000,0.00880,0,0,47.0*
21,1,0.00480,0.04400,0,0,47.0*
1,1,0.03520,0.00486,-0.00125*
1,1,0.03520,0.00158,-0.00476*
1,1,0.03520,-0.00486,0.00125*
1,1,0.03520,-0.00158,0.00476*
%
%ADD12ROUNDEDRECTD12*%
G04:AMPARAMS|DCode=13|XSize=40mil|YSize=44mil|CornerRadius=4.4mil|HoleSize=0mil|Usage=FLASHONLY|Rotation=47.000|XOffset=0mil|YOffset=0mil|HoleType=Round|Shape=RoundedRectangle|*
%AMROUNDEDRECTD13*
21,1,0.04000,0.03520,0,0,47.0*
21,1,0.03120,0.04400,0,0,47.0*
1,1,0.00880,0.02351,-0.00059*
1,1,0.00880,0.00223,-0.02341*
1,1,0.00880,-0.02351,0.00059*
1,1,0.00880,-0.00223,0.02341*
%
%ADD13ROUNDEDRECTD13*%
%ADD14O,0.03300X0.06600*%
G04:AMPARAMS|DCode=15|XSize=33mil|YSize=66mil|CornerRadius=6.6mil|HoleSize=0mil|Usage=FLASHONLY|Rotation=0.000|XOffset=0mil|YOffset=0mil|HoleType=Round|Shape=RoundedRectangle|*
%AMROUNDEDRECTD15*
21,1,0.03300,0.05280,0,0,0.0*
21,1,0.01980,0.06600,0,0,0.0*
1,1,0.01320,0.00990,-0.02640*
1,1,0.01320,-0.00990,-0.02640*
1,1,0.01320,-0.00990,0.02640*
1,1,0.01320,0.00990,0.02640*
%
%ADD15ROUNDEDRECTD15*%
%ADD16O,0.01417X0.06890*%
%ADD17R,0.01417X0.06890*%
G04:AMPARAMS|DCode=18|XSize=40mil|YSize=44mil|CornerRadius=17.6mil|HoleSize=0mil|Usage=FLASHONLY|Rotation=65.000|XOffset=0mil|YOffset=0mil|HoleType=Round|Shape=RoundedRectangle|*
%AMROUNDEDRECTD18*
21,1,0.04000,0.00880,0,0,65.0*
21,1,0.00480,0.04400,0,0,65.0*
1,1,0.03520,0.00500,0.00032*
1,1,0.03520,0.00297,-0.00404*
1,1,0.03520,-0.00500,-0.00032*
1,1,0.03520,-0.00297,0.00404*
%
%ADD18ROUNDEDRECTD18*%
G04:AMPARAMS|DCode=19|XSize=40mil|YSize=44mil|CornerRadius=4.4mil|HoleSize=0mil|Usage=FLASHONLY|Rotation=65.000|XOffset=0mil|YOffset=0mil|HoleType=Round|Shape=RoundedRectangle|*
%AMROUNDEDRECTD19*
21,1,0.04000,0.03520,0,0,65.0*
21,1,0.03120,0.04400,0,0,65.0*
1,1,0.00880,0.02254,0.00670*
1,1,0.00880,0.00936,-0.02158*
1,1,0.00880,-0.02254,-0.00670*
1,1,0.00880,-0.00936,0.02158*
%
%ADD19ROUNDEDRECTD19*%
G04:AMPARAMS|DCode=20|XSize=40mil|YSize=44mil|CornerRadius=17.6mil|HoleSize=0mil|Usage=FLASHONLY|Rotation=79.000|XOffset=0mil|YOffset=0mil|HoleType=Round|Shape=RoundedRectangle|*
%AMROUNDEDRECTD20*
21,1,0.04000,0.00880,0,0,79.0*
21,1,0.00480,0.04400,0,0,79.0*
1,1,0.03520,0.00478,0.00152*
1,1,0.03520,0.00386,-0.00320*
1,1,0.03520,-0.00478,-0.00152*
1,1,0.03520,-0.00386,0.00320*
%
%ADD20ROUNDEDRECTD20*%
G04:AMPARAMS|DCode=21|XSize=40mil|YSize=44mil|CornerRadius=4.4mil|HoleSize=0mil|Usage=FLASHONLY|Rotation=79.000|XOffset=0mil|YOffset=0mil|HoleType=Round|Shape=RoundedRectangle|*
%AMROUNDEDRECTD21*
21,1,0.04000,0.03520,0,0,79.0*
21,1,0.03120,0.04400,0,0,79.0*
1,1,0.00880,0.02025,0.01196*
1,1,0.00880,0.01430,-0.01867*
1,1,0.00880,-0.02025,-0.01196*
1,1,0.00880,-0.01430,0.01867*
%
%ADD21ROUNDEDRECTD21*%
G04:AMPARAMS|DCode=22|XSize=40mil|YSize=44mil|CornerRadius=17.6mil|HoleSize=0mil|Usage=FLASHONLY|Rotation=93.000|XOffset=0mil|YOffset=0mil|HoleType=Round|Shape=RoundedRectangle|*
%AMROUNDEDRECTD22*
21,1,0.04000,0.00880,0,0,93.0*
21,1,0.00480,0.04400,0,0,93.0*
1,1,0.03520,0.00427,0.00263*
1,1,0.03520,0.00452,-0.00217*
1,1,0.03520,-0.00427,-0.00263*
1,1,0.03520,-0.00452,0.00217*
%
%ADD22ROUNDEDRECTD22*%
G04:AMPARAMS|DCode=23|XSize=40mil|YSize=44mil|CornerRadius=4.4mil|HoleSize=0mil|Usage=FLASHONLY|Rotation=93.000|XOffset=0mil|YOffset=0mil|HoleType=Round|Shape=RoundedRectangle|*
%AMROUNDEDRECTD23*
21,1,0.04000,0.03520,0,0,93.0*
21,1,0.03120,0.04400,0,0,93.0*
1,1,0.00880,0.01676,0.01650*
1,1,0.00880,0.01839,-0.01466*
1,1,0.00880,-0.01676,-0.01650*
1,1,0.00880,-0.01839,0.01466*
%
%ADD23ROUNDEDRECTD23*%
G04:AMPARAMS|DCode=24|XSize=40mil|YSize=44mil|CornerRadius=17.6mil|HoleSize=0mil|Usage=FLASHONLY|Rotation=144.000|XOffset=0mil|YOffset=0mil|HoleType=Round|Shape=RoundedRectangle|*
%AMROUNDEDRECTD24*
21,1,0.04000,0.00880,0,0,144.0*
21,1,0.00480,0.04400,0,0,144.0*
1,1,0.03520,0.00065,0.00497*
1,1,0.03520,0.00453,0.00215*
1,1,0.03520,-0.00065,-0.00497*
1,1,0.03520,-0.00453,-0.00215*
%
%ADD24ROUNDEDRECTD24*%
G04:AMPARAMS|DCode=25|XSize=40mil|YSize=44mil|CornerRadius=4.4mil|HoleSize=0mil|Usage=FLASHONLY|Rotation=144.000|XOffset=0mil|YOffset=0mil|HoleType=Round|Shape=RoundedRectangle|*
%AMROUNDEDRECTD25*
21,1,0.04000,0.03520,0,0,144.0*
21,1,0.03120,0.04400,0,0,144.0*
1,1,0.00880,-0.00228,0.02341*
1,1,0.00880,0.02297,0.00507*
1,1,0.00880,0.00228,-0.02341*
1,1,0.00880,-0.02297,-0.00507*
%
%ADD25ROUNDEDRECTD25*%
G04:AMPARAMS|DCode=26|XSize=40mil|YSize=44mil|CornerRadius=17.6mil|HoleSize=0mil|Usage=FLASHONLY|Rotation=188.000|XOffset=0mil|YOffset=0mil|HoleType=Round|Shape=RoundedRectangle|*
%AMROUNDEDRECTD26*
21,1,0.04000,0.00880,0,0,188.0*
21,1,0.00480,0.04400,0,0,188.0*
1,1,0.03520,-0.00299,0.00402*
1,1,0.03520,0.00176,0.00469*
1,1,0.03520,0.00299,-0.00402*
1,1,0.03520,-0.00176,-0.00469*
%
%ADD26ROUNDEDRECTD26*%
G04:AMPARAMS|DCode=27|XSize=40mil|YSize=44mil|CornerRadius=4.4mil|HoleSize=0mil|Usage=FLASHONLY|Rotation=188.000|XOffset=0mil|YOffset=0mil|HoleType=Round|Shape=RoundedRectangle|*
%AMROUNDEDRECTD27*
21,1,0.04000,0.03520,0,0,188.0*
21,1,0.03120,0.04400,0,0,188.0*
1,1,0.00880,-0.01790,0.01526*
1,1,0.00880,0.01300,0.01960*
1,1,0.00880,0.01790,-0.01526*
1,1,0.00880,-0.01300,-0.01960*
%
%ADD27ROUNDEDRECTD27*%
G04:AMPARAMS|DCode=28|XSize=40mil|YSize=44mil|CornerRadius=17.6mil|HoleSize=0mil|Usage=FLASHONLY|Rotation=220.000|XOffset=0mil|YOffset=0mil|HoleType=Round|Shape=RoundedRectangle|*
%AMROUNDEDRECTD28*
21,1,0.04000,0.00880,0,0,220.0*
21,1,0.00480,0.04400,0,0,220.0*
1,1,0.03520,-0.00467,0.00183*
1,1,0.03520,-0.00099,0.00491*
1,1,0.03520,0.00467,-0.00183*
1,1,0.03520,0.00099,-0.00491*
%
%ADD28ROUNDEDRECTD28*%
G04:AMPARAMS|DCode=29|XSize=40mil|YSize=44mil|CornerRadius=4.4mil|HoleSize=0mil|Usage=FLASHONLY|Rotation=220.000|XOffset=0mil|YOffset=0mil|HoleType=Round|Shape=RoundedRectangle|*
%AMROUNDEDRECTD29*
21,1,0.04000,0.03520,0,0,220.0*
21,1,0.03120,0.04400,0,0,220.0*
1,1,0.00880,-0.02326,0.00346*
1,1,0.00880,0.00064,0.02351*
1,1,0.00880,0.02326,-0.00346*
1,1,0.00880,-0.00064,-0.02351*
%
%ADD29ROUNDEDRECTD29*%
G04:AMPARAMS|DCode=30|XSize=40mil|YSize=44mil|CornerRadius=17.6mil|HoleSize=0mil|Usage=FLASHONLY|Rotation=193.000|XOffset=0mil|YOffset=0mil|HoleType=Round|Shape=RoundedRectangle|*
%AMROUNDEDRECTD30*
21,1,0.04000,0.00880,0,0,193.0*
21,1,0.00480,0.04400,0,0,193.0*
1,1,0.03520,-0.00333,0.00375*
1,1,0.03520,0.00135,0.00483*
1,1,0.03520,0.00333,-0.00375*
1,1,0.03520,-0.00135,-0.00483*
%
%ADD30ROUNDEDRECTD30*%
G04:AMPARAMS|DCode=31|XSize=40mil|YSize=44mil|CornerRadius=4.4mil|HoleSize=0mil|Usage=FLASHONLY|Rotation=193.000|XOffset=0mil|YOffset=0mil|HoleType=Round|Shape=RoundedRectangle|*
%AMROUNDEDRECTD31*
21,1,0.04000,0.03520,0,0,193.0*
21,1,0.03120,0.04400,0,0,193.0*
1,1,0.00880,-0.01916,0.01364*
1,1,0.00880,0.01124,0.02066*
1,1,0.00880,0.01916,-0.01364*
1,1,0.00880,-0.01124,-0.02066*
%
%ADD31ROUNDEDRECTD31*%
G04:AMPARAMS|DCode=32|XSize=40mil|YSize=44mil|CornerRadius=17.6mil|HoleSize=0mil|Usage=FLASHONLY|Rotation=155.000|XOffset=0mil|YOffset=0mil|HoleType=Round|Shape=RoundedRectangle|*
%AMROUNDEDRECTD32*
21,1,0.04000,0.00880,0,0,155.0*
21,1,0.00480,0.04400,0,0,155.0*
1,1,0.03520,-0.00032,0.00500*
1,1,0.03520,0.00404,0.00297*
1,1,0.03520,0.00032,-0.00500*
1,1,0.03520,-0.00404,-0.00297*
%
%ADD32ROUNDEDRECTD32*%
G04:AMPARAMS|DCode=33|XSize=40mil|YSize=44mil|CornerRadius=4.4mil|HoleSize=0mil|Usage=FLASHONLY|Rotation=155.000|XOffset=0mil|YOffset=0mil|HoleType=Round|Shape=RoundedRectangle|*
%AMROUNDEDRECTD33*
21,1,0.04000,0.03520,0,0,155.0*
21,1,0.03120,0.04400,0,0,155.0*
1,1,0.00880,-0.00670,0.02254*
1,1,0.00880,0.02158,0.00936*
1,1,0.00880,0.00670,-0.02254*
1,1,0.00880,-0.02158,-0.00936*
%
%ADD33ROUNDEDRECTD33*%
G04:AMPARAMS|DCode=34|XSize=40mil|YSize=44mil|CornerRadius=17.6mil|HoleSize=0mil|Usage=FLASHONLY|Rotation=133.000|XOffset=0mil|YOffset=0mil|HoleType=Round|Shape=RoundedRectangle|*
%AMROUNDEDRECTD34*
21,1,0.04000,0.00880,0,0,133.0*
21,1,0.00480,0.04400,0,0,133.0*
1,1,0.03520,0.00158,0.00476*
1,1,0.03520,0.00486,0.00125*
1,1,0.03520,-0.00158,-0.00476*
1,1,0.03520,-0.00486,-0.00125*
%
%ADD34ROUNDEDRECTD34*%
G04:AMPARAMS|DCode=35|XSize=40mil|YSize=44mil|CornerRadius=4.4mil|HoleSize=0mil|Usage=FLASHONLY|Rotation=133.000|XOffset=0mil|YOffset=0mil|HoleType=Round|Shape=RoundedRectangle|*
%AMROUNDEDRECTD35*
21,1,0.04000,0.03520,0,0,133.0*
21,1,0.03120,0.04400,0,0,133.0*
1,1,0.00880,0.00223,0.02341*
1,1,0.00880,0.02351,0.00059*
1,1,0.00880,-0.00223,-0.02341*
1,1,0.00880,-0.02351,-0.00059*
%
%ADD35ROUNDEDRECTD35*%
G04:AMPARAMS|DCode=36|XSize=40mil|YSize=44mil|CornerRadius=17.6mil|HoleSize=0mil|Usage=FLASHONLY|Rotation=116.000|XOffset=0mil|YOffset=0mil|HoleType=Round|Shape=RoundedRectangle|*
%AMROUNDEDRECTD36*
21,1,0.04000,0.00880,0,0,116.0*
21,1,0.00480,0.04400,0,0,116.0*
1,1,0.03520,0.00290,0.00409*
1,1,0.03520,0.00501,-0.00023*
1,1,0.03520,-0.00290,-0.00409*
1,1,0.03520,-0.00501,0.00023*
%
%ADD36ROUNDEDRECTD36*%
G04:AMPARAMS|DCode=37|XSize=40mil|YSize=44mil|CornerRadius=4.4mil|HoleSize=0mil|Usage=FLASHONLY|Rotation=116.000|XOffset=0mil|YOffset=0mil|HoleType=Round|Shape=RoundedRectangle|*
%AMROUNDEDRECTD37*
21,1,0.04000,0.03520,0,0,116.0*
21,1,0.03120,0.04400,0,0,116.0*
1,1,0.00880,0.00898,0.02174*
1,1,0.00880,0.02266,-0.00631*
1,1,0.00880,-0.00898,-0.02174*
1,1,0.00880,-0.02266,0.00631*
%
%ADD37ROUNDEDRECTD37*%
G04:AMPARAMS|DCode=38|XSize=40mil|YSize=44mil|CornerRadius=17.6mil|HoleSize=0mil|Usage=FLASHONLY|Rotation=91.000|XOffset=0mil|YOffset=0mil|HoleType=Round|Shape=RoundedRectangle|*
%AMROUNDEDRECTD38*
21,1,0.04000,0.00880,0,0,91.0*
21,1,0.00480,0.04400,0,0,91.0*
1,1,0.03520,0.00436,0.00248*
1,1,0.03520,0.00444,-0.00232*
1,1,0.03520,-0.00436,-0.00248*
1,1,0.03520,-0.00444,0.00232*
%
%ADD38ROUNDEDRECTD38*%
G04:AMPARAMS|DCode=39|XSize=40mil|YSize=44mil|CornerRadius=4.4mil|HoleSize=0mil|Usage=FLASHONLY|Rotation=91.000|XOffset=0mil|YOffset=0mil|HoleType=Round|Shape=RoundedRectangle|*
%AMROUNDEDRECTD39*
21,1,0.04000,0.03520,0,0,91.0*
21,1,0.03120,0.04400,0,0,91.0*
1,1,0.00880,0.01733,0.01591*
1,1,0.00880,0.01787,-0.01529*
1,1,0.00880,-0.01733,-0.01591*
1,1,0.00880,-0.01787,0.01529*
%
%ADD39ROUNDEDRECTD39*%
G04:AMPARAMS|DCode=40|XSize=40mil|YSize=44mil|CornerRadius=17.6mil|HoleSize=0mil|Usage=FLASHONLY|Rotation=82.000|XOffset=0mil|YOffset=0mil|HoleType=Round|Shape=RoundedRectangle|*
%AMROUNDEDRECTD40*
21,1,0.04000,0.00880,0,0,82.0*
21,1,0.00480,0.04400,0,0,82.0*
1,1,0.03520,0.00469,0.00176*
1,1,0.03520,0.00402,-0.00299*
1,1,0.03520,-0.00469,-0.00176*
1,1,0.03520,-0.00402,0.00299*
%
%ADD40ROUNDEDRECTD40*%
G04:AMPARAMS|DCode=41|XSize=40mil|YSize=44mil|CornerRadius=4.4mil|HoleSize=0mil|Usage=FLASHONLY|Rotation=82.000|XOffset=0mil|YOffset=0mil|HoleType=Round|Shape=RoundedRectangle|*
%AMROUNDEDRECTD41*
21,1,0.04000,0.03520,0,0,82.0*
21,1,0.03120,0.04400,0,0,82.0*
1,1,0.00880,0.01960,0.01300*
1,1,0.00880,0.01526,-0.01790*
1,1,0.00880,-0.01960,-0.01300*
1,1,0.00880,-0.01526,0.01790*
%
%ADD41ROUNDEDRECTD41*%
G04:AMPARAMS|DCode=42|XSize=40mil|YSize=44mil|CornerRadius=17.6mil|HoleSize=0mil|Usage=FLASHONLY|Rotation=258.000|XOffset=0mil|YOffset=0mil|HoleType=Round|Shape=RoundedRectangle|*
%AMROUNDEDRECTD42*
21,1,0.04000,0.00880,0,0,258.0*
21,1,0.00480,0.04400,0,0,258.0*
1,1,0.03520,-0.00480,-0.00143*
1,1,0.03520,-0.00381,0.00326*
1,1,0.03520,0.00480,0.00143*
1,1,0.03520,0.00381,-0.00326*
%
%ADD42ROUNDEDRECTD42*%
G04:AMPARAMS|DCode=43|XSize=40mil|YSize=44mil|CornerRadius=4.4mil|HoleSize=0mil|Usage=FLASHONLY|Rotation=258.000|XOffset=0mil|YOffset=0mil|HoleType=Round|Shape=RoundedRectangle|*
%AMROUNDEDRECTD43*
21,1,0.04000,0.03520,0,0,258.0*
21,1,0.03120,0.04400,0,0,258.0*
1,1,0.00880,-0.02046,-0.01160*
1,1,0.00880,-0.01397,0.01892*
1,1,0.00880,0.02046,0.01160*
1,1,0.00880,0.01397,-0.01892*
%
%ADD43ROUNDEDRECTD43*%
G04:AMPARAMS|DCode=44|XSize=40mil|YSize=44mil|CornerRadius=17.6mil|HoleSize=0mil|Usage=FLASHONLY|Rotation=235.000|XOffset=0mil|YOffset=0mil|HoleType=Round|Shape=RoundedRectangle|*
%AMROUNDEDRECTD44*
21,1,0.04000,0.00880,0,0,235.0*
21,1,0.00480,0.04400,0,0,235.0*
1,1,0.03520,-0.00498,0.00056*
1,1,0.03520,-0.00223,0.00449*
1,1,0.03520,0.00498,-0.00056*
1,1,0.03520,0.00223,-0.00449*
%
%ADD44ROUNDEDRECTD44*%
G04:AMPARAMS|DCode=45|XSize=40mil|YSize=44mil|CornerRadius=4.4mil|HoleSize=0mil|Usage=FLASHONLY|Rotation=235.000|XOffset=0mil|YOffset=0mil|HoleType=Round|Shape=RoundedRectangle|*
%AMROUNDEDRECTD45*
21,1,0.04000,0.03520,0,0,235.0*
21,1,0.03120,0.04400,0,0,235.0*
1,1,0.00880,-0.02337,-0.00268*
1,1,0.00880,-0.00547,0.02287*
1,1,0.00880,0.02337,0.00268*
1,1,0.00880,0.00547,-0.02287*
%
%ADD45ROUNDEDRECTD45*%
G04:AMPARAMS|DCode=46|XSize=40mil|YSize=44mil|CornerRadius=17.6mil|HoleSize=0mil|Usage=FLASHONLY|Rotation=210.000|XOffset=0mil|YOffset=0mil|HoleType=Round|Shape=RoundedRectangle|*
%AMROUNDEDRECTD46*
21,1,0.04000,0.00880,0,0,210.0*
21,1,0.00480,0.04400,0,0,210.0*
1,1,0.03520,-0.00428,0.00261*
1,1,0.03520,-0.00012,0.00501*
1,1,0.03520,0.00428,-0.00261*
1,1,0.03520,0.00012,-0.00501*
%
%ADD46ROUNDEDRECTD46*%
G04:AMPARAMS|DCode=47|XSize=40mil|YSize=44mil|CornerRadius=4.4mil|HoleSize=0mil|Usage=FLASHONLY|Rotation=210.000|XOffset=0mil|YOffset=0mil|HoleType=Round|Shape=RoundedRectangle|*
%AMROUNDEDRECTD47*
21,1,0.04000,0.03520,0,0,210.0*
21,1,0.03120,0.04400,0,0,210.0*
1,1,0.00880,-0.02231,0.00744*
1,1,0.00880,0.00471,0.02304*
1,1,0.00880,0.02231,-0.00744*
1,1,0.00880,-0.00471,-0.02304*
%
%ADD47ROUNDEDRECTD47*%
G04:AMPARAMS|DCode=48|XSize=40mil|YSize=44mil|CornerRadius=17.6mil|HoleSize=0mil|Usage=FLASHONLY|Rotation=190.000|XOffset=0mil|YOffset=0mil|HoleType=Round|Shape=RoundedRectangle|*
%AMROUNDEDRECTD48*
21,1,0.04000,0.00880,0,0,190.0*
21,1,0.00480,0.04400,0,0,190.0*
1,1,0.03520,-0.00313,0.00392*
1,1,0.03520,0.00160,0.00475*
1,1,0.03520,0.00313,-0.00392*
1,1,0.03520,-0.00160,-0.00475*
%
%ADD48ROUNDEDRECTD48*%
G04:AMPARAMS|DCode=49|XSize=40mil|YSize=44mil|CornerRadius=4.4mil|HoleSize=0mil|Usage=FLASHONLY|Rotation=190.000|XOffset=0mil|YOffset=0mil|HoleType=Round|Shape=RoundedRectangle|*
%AMROUNDEDRECTD49*
21,1,0.04000,0.03520,0,0,190.0*
21,1,0.03120,0.04400,0,0,190.0*
1,1,0.00880,-0.01842,0.01462*
1,1,0.00880,0.01231,0.02004*
1,1,0.00880,0.01842,-0.01462*
1,1,0.00880,-0.01231,-0.02004*
%
%ADD49ROUNDEDRECTD49*%
G04:AMPARAMS|DCode=50|XSize=40mil|YSize=44mil|CornerRadius=17.6mil|HoleSize=0mil|Usage=FLASHONLY|Rotation=165.000|XOffset=0mil|YOffset=0mil|HoleType=Round|Shape=RoundedRectangle|*
%AMROUNDEDRECTD50*
21,1,0.04000,0.00880,0,0,165.0*
21,1,0.00480,0.04400,0,0,165.0*
1,1,0.03520,-0.00118,0.00487*
1,1,0.03520,0.00346,0.00363*
1,1,0.03520,0.00118,-0.00487*
1,1,0.03520,-0.00346,-0.00363*
%
%ADD50ROUNDEDRECTD50*%
G04:AMPARAMS|DCode=51|XSize=40mil|YSize=44mil|CornerRadius=4.4mil|HoleSize=0mil|Usage=FLASHONLY|Rotation=165.000|XOffset=0mil|YOffset=0mil|HoleType=Round|Shape=RoundedRectangle|*
%AMROUNDEDRECTD51*
21,1,0.04000,0.03520,0,0,165.0*
21,1,0.03120,0.04400,0,0,165.0*
1,1,0.00880,-0.01051,0.02104*
1,1,0.00880,0.01962,0.01296*
1,1,0.00880,0.01051,-0.02104*
1,1,0.00880,-0.01962,-0.01296*
%
%ADD51ROUNDEDRECTD51*%
G04:AMPARAMS|DCode=52|XSize=40mil|YSize=44mil|CornerRadius=17.6mil|HoleSize=0mil|Usage=FLASHONLY|Rotation=148.000|XOffset=0mil|YOffset=0mil|HoleType=Round|Shape=RoundedRectangle|*
%AMROUNDEDRECTD52*
21,1,0.04000,0.00880,0,0,148.0*
21,1,0.00480,0.04400,0,0,148.0*
1,1,0.03520,0.00030,0.00500*
1,1,0.03520,0.00437,0.00246*
1,1,0.03520,-0.00030,-0.00500*
1,1,0.03520,-0.00437,-0.00246*
%
%ADD52ROUNDEDRECTD52*%
G04:AMPARAMS|DCode=53|XSize=40mil|YSize=44mil|CornerRadius=4.4mil|HoleSize=0mil|Usage=FLASHONLY|Rotation=148.000|XOffset=0mil|YOffset=0mil|HoleType=Round|Shape=RoundedRectangle|*
%AMROUNDEDRECTD53*
21,1,0.04000,0.03520,0,0,148.0*
21,1,0.03120,0.04400,0,0,148.0*
1,1,0.00880,-0.00390,0.02319*
1,1,0.00880,0.02256,0.00666*
1,1,0.00880,0.00390,-0.02319*
1,1,0.00880,-0.02256,-0.00666*
%
%ADD53ROUNDEDRECTD53*%
G04:AMPARAMS|DCode=54|XSize=40mil|YSize=44mil|CornerRadius=17.6mil|HoleSize=0mil|Usage=FLASHONLY|Rotation=115.000|XOffset=0mil|YOffset=0mil|HoleType=Round|Shape=RoundedRectangle|*
%AMROUNDEDRECTD54*
21,1,0.04000,0.00880,0,0,115.0*
21,1,0.00480,0.04400,0,0,115.0*
1,1,0.03520,0.00297,0.00404*
1,1,0.03520,0.00500,-0.00032*
1,1,0.03520,-0.00297,-0.00404*
1,1,0.03520,-0.00500,0.00032*
%
%ADD54ROUNDEDRECTD54*%
G04:AMPARAMS|DCode=55|XSize=40mil|YSize=44mil|CornerRadius=4.4mil|HoleSize=0mil|Usage=FLASHONLY|Rotation=115.000|XOffset=0mil|YOffset=0mil|HoleType=Round|Shape=RoundedRectangle|*
%AMROUNDEDRECTD55*
21,1,0.04000,0.03520,0,0,115.0*
21,1,0.03120,0.04400,0,0,115.0*
1,1,0.00880,0.00936,0.02158*
1,1,0.00880,0.02254,-0.00670*
1,1,0.00880,-0.00936,-0.02158*
1,1,0.00880,-0.02254,0.00670*
%
%ADD55ROUNDEDRECTD55*%
G04:AMPARAMS|DCode=56|XSize=40mil|YSize=44mil|CornerRadius=17.6mil|HoleSize=0mil|Usage=FLASHONLY|Rotation=303.000|XOffset=0mil|YOffset=0mil|HoleType=Round|Shape=RoundedRectangle|*
%AMROUNDEDRECTD56*
21,1,0.04000,0.00880,0,0,303.0*
21,1,0.00480,0.04400,0,0,303.0*
1,1,0.03520,-0.00238,-0.00441*
1,1,0.03520,-0.00500,-0.00038*
1,1,0.03520,0.00238,0.00441*
1,1,0.03520,0.00500,0.00038*
%
%ADD56ROUNDEDRECTD56*%
G04:AMPARAMS|DCode=57|XSize=40mil|YSize=44mil|CornerRadius=4.4mil|HoleSize=0mil|Usage=FLASHONLY|Rotation=303.000|XOffset=0mil|YOffset=0mil|HoleType=Round|Shape=RoundedRectangle|*
%AMROUNDEDRECTD57*
21,1,0.04000,0.03520,0,0,303.0*
21,1,0.03120,0.04400,0,0,303.0*
1,1,0.00880,-0.00626,-0.02267*
1,1,0.00880,-0.02326,0.00350*
1,1,0.00880,0.00626,0.02267*
1,1,0.00880,0.02326,-0.00350*
%
%ADD57ROUNDEDRECTD57*%
G04:AMPARAMS|DCode=58|XSize=40mil|YSize=44mil|CornerRadius=17.6mil|HoleSize=0mil|Usage=FLASHONLY|Rotation=284.000|XOffset=0mil|YOffset=0mil|HoleType=Round|Shape=RoundedRectangle|*
%AMROUNDEDRECTD58*
21,1,0.04000,0.00880,0,0,284.0*
21,1,0.00480,0.04400,0,0,284.0*
1,1,0.03520,-0.00369,-0.00339*
1,1,0.03520,-0.00485,0.00126*
1,1,0.03520,0.00369,0.00339*
1,1,0.03520,0.00485,-0.00126*
%
%ADD58ROUNDEDRECTD58*%
G04:AMPARAMS|DCode=59|XSize=40mil|YSize=44mil|CornerRadius=4.4mil|HoleSize=0mil|Usage=FLASHONLY|Rotation=284.000|XOffset=0mil|YOffset=0mil|HoleType=Round|Shape=RoundedRectangle|*
%AMROUNDEDRECTD59*
21,1,0.04000,0.03520,0,0,284.0*
21,1,0.03120,0.04400,0,0,284.0*
1,1,0.00880,-0.01330,-0.01939*
1,1,0.00880,-0.02085,0.01088*
1,1,0.00880,0.01330,0.01939*
1,1,0.00880,0.02085,-0.01088*
%
%ADD59ROUNDEDRECTD59*%
G04:AMPARAMS|DCode=60|XSize=40mil|YSize=44mil|CornerRadius=17.6mil|HoleSize=0mil|Usage=FLASHONLY|Rotation=251.000|XOffset=0mil|YOffset=0mil|HoleType=Round|Shape=RoundedRectangle|*
%AMROUNDEDRECTD60*
21,1,0.04000,0.00880,0,0,251.0*
21,1,0.00480,0.04400,0,0,251.0*
1,1,0.03520,-0.00494,-0.00084*
1,1,0.03520,-0.00338,0.00370*
1,1,0.03520,0.00494,0.00084*
1,1,0.03520,0.00338,-0.00370*
%
%ADD60ROUNDEDRECTD60*%
G04:AMPARAMS|DCode=61|XSize=40mil|YSize=44mil|CornerRadius=4.4mil|HoleSize=0mil|Usage=FLASHONLY|Rotation=251.000|XOffset=0mil|YOffset=0mil|HoleType=Round|Shape=RoundedRectangle|*
%AMROUNDEDRECTD61*
21,1,0.04000,0.03520,0,0,251.0*
21,1,0.03120,0.04400,0,0,251.0*
1,1,0.00880,-0.02172,-0.00902*
1,1,0.00880,-0.01156,0.02048*
1,1,0.00880,0.02172,0.00902*
1,1,0.00880,0.01156,-0.02048*
%
%ADD61ROUNDEDRECTD61*%
G04:AMPARAMS|DCode=62|XSize=40mil|YSize=44mil|CornerRadius=17.6mil|HoleSize=0mil|Usage=FLASHONLY|Rotation=229.000|XOffset=0mil|YOffset=0mil|HoleType=Round|Shape=RoundedRectangle|*
%AMROUNDEDRECTD62*
21,1,0.04000,0.00880,0,0,229.0*
21,1,0.00480,0.04400,0,0,229.0*
1,1,0.03520,-0.00490,0.00108*
1,1,0.03520,-0.00175,0.00470*
1,1,0.03520,0.00490,-0.00108*
1,1,0.03520,0.00175,-0.00470*
%
%ADD62ROUNDEDRECTD62*%
G04:AMPARAMS|DCode=63|XSize=40mil|YSize=44mil|CornerRadius=4.4mil|HoleSize=0mil|Usage=FLASHONLY|Rotation=229.000|XOffset=0mil|YOffset=0mil|HoleType=Round|Shape=RoundedRectangle|*
%AMROUNDEDRECTD63*
21,1,0.04000,0.03520,0,0,229.0*
21,1,0.03120,0.04400,0,0,229.0*
1,1,0.00880,-0.02352,-0.00023*
1,1,0.00880,-0.00305,0.02332*
1,1,0.00880,0.02352,0.00023*
1,1,0.00880,0.00305,-0.02332*
%
%ADD63ROUNDEDRECTD63*%
G04:AMPARAMS|DCode=64|XSize=40mil|YSize=44mil|CornerRadius=17.6mil|HoleSize=0mil|Usage=FLASHONLY|Rotation=211.000|XOffset=0mil|YOffset=0mil|HoleType=Round|Shape=RoundedRectangle|*
%AMROUNDEDRECTD64*
21,1,0.04000,0.00880,0,0,211.0*
21,1,0.00480,0.04400,0,0,211.0*
1,1,0.03520,-0.00432,0.00254*
1,1,0.03520,-0.00021,0.00501*
1,1,0.03520,0.00432,-0.00254*
1,1,0.03520,0.00021,-0.00501*
%
%ADD64ROUNDEDRECTD64*%
G04:AMPARAMS|DCode=65|XSize=40mil|YSize=44mil|CornerRadius=4.4mil|HoleSize=0mil|Usage=FLASHONLY|Rotation=211.000|XOffset=0mil|YOffset=0mil|HoleType=Round|Shape=RoundedRectangle|*
%AMROUNDEDRECTD65*
21,1,0.04000,0.03520,0,0,211.0*
21,1,0.03120,0.04400,0,0,211.0*
1,1,0.00880,-0.02244,0.00705*
1,1,0.00880,0.00431,0.02312*
1,1,0.00880,0.02244,-0.00705*
1,1,0.00880,-0.00431,-0.02312*
%
%ADD65ROUNDEDRECTD65*%
G04:AMPARAMS|DCode=66|XSize=40mil|YSize=44mil|CornerRadius=17.6mil|HoleSize=0mil|Usage=FLASHONLY|Rotation=179.000|XOffset=0mil|YOffset=0mil|HoleType=Round|Shape=RoundedRectangle|*
%AMROUNDEDRECTD66*
21,1,0.04000,0.00880,0,0,179.0*
21,1,0.00480,0.04400,0,0,179.0*
1,1,0.03520,-0.00232,0.00444*
1,1,0.03520,0.00248,0.00436*
1,1,0.03520,0.00232,-0.00444*
1,1,0.03520,-0.00248,-0.00436*
%
%ADD66ROUNDEDRECTD66*%
G04:AMPARAMS|DCode=67|XSize=40mil|YSize=44mil|CornerRadius=4.4mil|HoleSize=0mil|Usage=FLASHONLY|Rotation=179.000|XOffset=0mil|YOffset=0mil|HoleType=Round|Shape=RoundedRectangle|*
%AMROUNDEDRECTD67*
21,1,0.04000,0.03520,0,0,179.0*
21,1,0.03120,0.04400,0,0,179.0*
1,1,0.00880,-0.01529,0.01787*
1,1,0.00880,0.01591,0.01733*
1,1,0.00880,0.01529,-0.01787*
1,1,0.00880,-0.01591,-0.01733*
%
%ADD67ROUNDEDRECTD67*%
G04:AMPARAMS|DCode=68|XSize=40mil|YSize=44mil|CornerRadius=17.6mil|HoleSize=0mil|Usage=FLASHONLY|Rotation=358.000|XOffset=0mil|YOffset=0mil|HoleType=Round|Shape=RoundedRectangle|*
%AMROUNDEDRECTD68*
21,1,0.04000,0.00880,0,0,358.0*
21,1,0.00480,0.04400,0,0,358.0*
1,1,0.03520,0.00225,-0.00448*
1,1,0.03520,-0.00255,-0.00431*
1,1,0.03520,-0.00225,0.00448*
1,1,0.03520,0.00255,0.00431*
%
%ADD68ROUNDEDRECTD68*%
G04:AMPARAMS|DCode=69|XSize=40mil|YSize=44mil|CornerRadius=4.4mil|HoleSize=0mil|Usage=FLASHONLY|Rotation=358.000|XOffset=0mil|YOffset=0mil|HoleType=Round|Shape=RoundedRectangle|*
%AMROUNDEDRECTD69*
21,1,0.04000,0.03520,0,0,358.0*
21,1,0.03120,0.04400,0,0,358.0*
1,1,0.00880,0.01498,-0.01813*
1,1,0.00880,-0.01621,-0.01705*
1,1,0.00880,-0.01498,0.01813*
1,1,0.00880,0.01621,0.01705*
%
%ADD69ROUNDEDRECTD69*%
G04:AMPARAMS|DCode=70|XSize=40mil|YSize=44mil|CornerRadius=17.6mil|HoleSize=0mil|Usage=FLASHONLY|Rotation=285.000|XOffset=0mil|YOffset=0mil|HoleType=Round|Shape=RoundedRectangle|*
%AMROUNDEDRECTD70*
21,1,0.04000,0.00880,0,0,285.0*
21,1,0.00480,0.04400,0,0,285.0*
1,1,0.03520,-0.00363,-0.00346*
1,1,0.03520,-0.00487,0.00118*
1,1,0.03520,0.00363,0.00346*
1,1,0.03520,0.00487,-0.00118*
%
%ADD70ROUNDEDRECTD70*%
G04:AMPARAMS|DCode=71|XSize=40mil|YSize=44mil|CornerRadius=4.4mil|HoleSize=0mil|Usage=FLASHONLY|Rotation=285.000|XOffset=0mil|YOffset=0mil|HoleType=Round|Shape=RoundedRectangle|*
%AMROUNDEDRECTD71*
21,1,0.04000,0.03520,0,0,285.0*
21,1,0.03120,0.04400,0,0,285.0*
1,1,0.00880,-0.01296,-0.01962*
1,1,0.00880,-0.02104,0.01051*
1,1,0.00880,0.01296,0.01962*
1,1,0.00880,0.02104,-0.01051*
%
%ADD71ROUNDEDRECTD71*%
G04:AMPARAMS|DCode=72|XSize=40mil|YSize=44mil|CornerRadius=17.6mil|HoleSize=0mil|Usage=FLASHONLY|Rotation=106.000|XOffset=0mil|YOffset=0mil|HoleType=Round|Shape=RoundedRectangle|*
%AMROUNDEDRECTD72*
21,1,0.04000,0.00880,0,0,106.0*
21,1,0.00480,0.04400,0,0,106.0*
1,1,0.03520,0.00357,0.00352*
1,1,0.03520,0.00489,-0.00109*
1,1,0.03520,-0.00357,-0.00352*
1,1,0.03520,-0.00489,0.00109*
%
%ADD72ROUNDEDRECTD72*%
G04:AMPARAMS|DCode=73|XSize=40mil|YSize=44mil|CornerRadius=4.4mil|HoleSize=0mil|Usage=FLASHONLY|Rotation=106.000|XOffset=0mil|YOffset=0mil|HoleType=Round|Shape=RoundedRectangle|*
%AMROUNDEDRECTD73*
21,1,0.04000,0.03520,0,0,106.0*
21,1,0.03120,0.04400,0,0,106.0*
1,1,0.00880,0.01262,0.01985*
1,1,0.00880,0.02122,-0.01015*
1,1,0.00880,-0.01262,-0.01985*
1,1,0.00880,-0.02122,0.01015*
%
%ADD73ROUNDEDRECTD73*%
%ADD74R,0.03937X0.03150*%
%ADD75C,0.00800*%
%ADD76C,0.01800*%
%ADD77C,0.01400*%
%ADD78C,0.05500*%
%ADD79C,0.06400*%
%ADD80C,0.04200*%
%ADD81C,0.02300*%
D10*
X5005322Y2903921D02*
G03*
X5059700Y2919700I14244J52502D01*
G01*
X5059700Y2919700D02*
G03*
X5067651Y2938526I-23591J21055D01*
G01*
X4989433Y2913337D02*
G03*
X5005322Y2903921I31078J34329D01*
G01*
X5067651Y2938526D02*
G03*
X5066388Y2941574I-4310J0D01*
G01*
X4987200Y2918728D02*
G03*
X4989433Y2913337I7625J0D01*
G01*
X4988900Y2923600D02*
G03*
X4987200Y2919496I4104J-4104D01*
G01*
X5029400Y2893300D02*
G03*
X5072490Y2925863I-13664J62873D01*
G01*
X5029423Y2893321D02*
G03*
X5027201Y2892401I0J-3142D01*
G01*
X5079217Y2944106D02*
G03*
X5074554Y2939177I988J-5605D01*
G01*
X5103674Y2954650D02*
G03*
X5094219Y2976658I-52558J-9545D01*
G01*
X5094219D02*
G03*
X5080493Y2983963I-21262J-23404D01*
G01*
X5088226Y2888775D02*
G03*
X5095410Y2898895I-33826J31624D01*
G01*
X5097929Y2961606D02*
G03*
X5070960Y2978698I-24393J-8667D01*
G01*
X5095282Y2898594D02*
G03*
X5097948Y2961466I-73532J34610D01*
G01*
X5070960Y2978698D02*
G03*
X5065733Y2976533I0J-7393D01*
G01*
D02*
G03*
X5064225Y2972893I3640J-3640D01*
G01*
X5084660Y2887299D02*
G03*
X5088226Y2888775I0J5043D01*
G01*
X5080600Y2983921D02*
G03*
X5064081Y2980969I-2896J-31488D01*
G01*
X5035719Y2939431D02*
G03*
X5039960Y2942645I-16911J26718D01*
G01*
X5019200Y2936479D02*
G03*
X5035719Y2939431I2896J31488D01*
G01*
X5015140Y3033101D02*
G03*
X5011574Y3031624I0J-5043D01*
G01*
X5034067Y2943867D02*
G03*
X5035575Y2947507I-3640J3640D01*
G01*
X5028840Y2941702D02*
G03*
X5034067Y2943867I0J7393D01*
G01*
X5004518Y3021806D02*
G03*
X5001852Y2958934I73532J-34610D01*
G01*
X5001871Y2958794D02*
G03*
X5028840Y2941702I24393J8667D01*
G01*
X5011574Y3031624D02*
G03*
X5004390Y3021505I33826J-31624D01*
G01*
X5005581Y2943742D02*
G03*
X5019307Y2936437I21262J23404D01*
G01*
X4991652Y2978748D02*
G03*
X5005581Y2943742I37911J-5190D01*
G01*
X5042061Y2943674D02*
G03*
X5039909Y2942592I2213J-7080D01*
G01*
X5049192Y2941829D02*
G03*
X5044295Y2943891I-4401J-3608D01*
G01*
X5032333Y2961262D02*
G03*
X5034000Y2965286I-4024J4024D01*
G01*
X5034000Y2966625D02*
G03*
X5033046Y2968929I-3258J0D01*
G01*
X5070277Y3026478D02*
G03*
X5072499Y3027399I0J3142D01*
G01*
X5070277Y3026478D02*
G03*
X5028283Y2986901I3124J-45383D01*
G01*
X5028283D02*
G03*
X5033046Y2968929I31596J-1244D01*
G01*
X5110900Y2996800D02*
G03*
X5112600Y3000904I-4104J4104D01*
G01*
X5112600Y3001672D02*
G03*
X5110366Y3007063I-7625J0D01*
G01*
X5032149Y2981874D02*
G03*
X5033411Y2978826I4310J0D01*
G01*
X5110367Y3007063D02*
G03*
X5094478Y3016479I-31078J-34329D01*
G01*
X5040100Y3000700D02*
G03*
X5032149Y2981874I23591J-21055D01*
G01*
X5094478Y3016479D02*
G03*
X5040100Y3000700I-14244J-52502D01*
G01*
X5023600Y2956043D02*
G03*
X5027135Y2947508I12071J0D01*
G01*
Y2967407D02*
G03*
X5023600Y2958872I8535J-8535D01*
G01*
X5011596Y2954099D02*
G03*
X5014600Y2961351I-7252J7252D01*
G01*
X5015900Y2978300D02*
G03*
X5014333Y2973363I10454J-6036D01*
G01*
X5020260Y3000554D02*
G03*
X5014580Y2993006I6036J-10454D01*
G01*
X5005039Y2970660D02*
G03*
X5010137Y2976629I-4656J9138D01*
G01*
X5004244Y2988392D02*
G03*
X5010472Y2993171I-2654J9907D01*
G01*
X5030072Y3016766D02*
G03*
X5022198Y3012438I1460J-11982D01*
G01*
X5044030Y3028401D02*
G03*
X5035268Y3026411I-1900J-11921D01*
G01*
X5010406Y3001505D02*
G03*
X5016023Y3007482I-6202J11457D01*
G01*
X5012521Y3023976D02*
G03*
X5020240Y3025406I2132J10032D01*
G01*
X5062103Y3036074D02*
G03*
X5056489Y3037689I-6045J-10448D01*
G01*
X5080496Y3037386D02*
G03*
X5072237Y3040926I-8544J-8527D01*
G01*
X5024544Y3039116D02*
G03*
X5032344Y3038227I4972J8970D01*
G01*
X4993636Y2917283D02*
G03*
X4993568Y2925132I-9510J3842D01*
G01*
X4981669Y2972833D02*
G03*
X4979464Y2964122I9759J-7104D01*
G01*
X5008640Y2910061D02*
G03*
X5005510Y2917260I-10255J-179D01*
G01*
X4985306Y2956798D02*
G03*
X4985431Y2947813I17540J-4249D01*
G01*
X4994403Y2943805D02*
G03*
X4999221Y2932274I14436J-740D01*
G01*
X5024290Y2907747D02*
G03*
X5020139Y2917128I-10197J1097D01*
G01*
X5040149Y2912250D02*
G03*
X5034139Y2916840I-8791J-5282D01*
G01*
X5011610Y2925787D02*
G03*
X5022739Y2919581I17512J18322D01*
G01*
X5031367Y2925638D02*
G03*
X5038011Y2924550I7481J24851D01*
G01*
X5053648Y2921942D02*
G03*
X5046204Y2924432I-6729J-7741D01*
G01*
X5042298Y2935788D02*
G03*
X5051243Y2933475I7265J9640D01*
G01*
X4982038Y2992285D02*
G03*
X4977930Y2984293I7911J-9118D01*
G01*
X5117762Y2928115D02*
G03*
X5121870Y2936107I-7911J9118D01*
G01*
X5057502Y2984612D02*
G03*
X5048740Y2987543I-7919J-9110D01*
G01*
X5046152Y2998458D02*
G03*
X5053596Y2995968I6729J7741D01*
G01*
X5073663Y2993241D02*
G03*
X5061789Y2995850I-11353J-23337D01*
G01*
X5087897Y2993916D02*
G03*
X5079264Y2997753I-14430J-20836D01*
G01*
X5059651Y3008150D02*
G03*
X5065111Y3003732I8791J5282D01*
G01*
X5075510Y3012653D02*
G03*
X5079661Y3003272I10197J-1097D01*
G01*
X5105246Y2975125D02*
G03*
X5100579Y2988126I-14285J2211D01*
G01*
X5114494Y2963602D02*
G03*
X5114369Y2972587I-17540J4249D01*
G01*
X5091160Y3010339D02*
G03*
X5094291Y3003140I10255J179D01*
G01*
X5118131Y2947967D02*
G03*
X5120336Y2956678I-9759J7104D01*
G01*
X5106164Y3003117D02*
G03*
X5106232Y2995267I9510J-3842D01*
G01*
X5032900Y2887500D02*
G03*
X5054330Y2884350I14230J22339D01*
G01*
X5087279Y2896424D02*
G03*
X5079560Y2894994I-2132J-10032D01*
G01*
X5093478Y2913875D02*
G03*
X5086393Y2910495I537J-10242D01*
G01*
X5055639Y2890478D02*
G03*
X5064561Y2891541I3135J11657D01*
G01*
X5070128Y2903534D02*
G03*
X5078002Y2907862I-1460J11982D01*
G01*
X5095956Y2931908D02*
G03*
X5089728Y2927129I2654J-9907D01*
G01*
X5094761Y2949740D02*
G03*
X5089663Y2943771I4656J-9138D01*
G01*
X5082241Y2922970D02*
G03*
X5085220Y2928394I-8737J8330D01*
G01*
X5084539Y2941744D02*
G03*
X5086064Y2950857I-10237J6397D01*
G01*
X5088204Y2966302D02*
G03*
X5085200Y2959049I7252J-7252D01*
G01*
X4984083Y2929183D02*
G03*
X4982343Y2924982I4201J-4201D01*
G01*
X5023003Y3039605D02*
G03*
X5018484Y3040120I-2881J-5196D01*
G01*
X5018484Y3040120D02*
G03*
X5001763Y3028884I12477J-36631D01*
G01*
D02*
G03*
X4986852Y2993552I47204J-40733D01*
G01*
X5098037Y2891516D02*
G03*
X5112682Y2924371I-47204J40733D01*
G01*
X5081316Y2880280D02*
G03*
X5098037Y2891516I-12477J36631D01*
G01*
X5076797Y2880795D02*
G03*
X5081316Y2880280I2881J5196D01*
G01*
X5115717Y2991217D02*
G03*
X5117457Y2995418I-4201J4201D01*
G01*
D02*
G03*
X5084488Y3031799I-38651J-1897D01*
G01*
X5077400Y2956400D02*
G03*
X5070789Y2959138I-6611J-6611D01*
G01*
X5077906Y2943913D02*
G03*
X5077400Y2956400I-7025J5969D01*
G01*
X5070107Y2967807D02*
G03*
X5072345Y2973211I-5404J5404D01*
G01*
X5065600Y2965200D02*
G03*
X5068843Y2966544I0J4587D01*
G01*
X5065600Y2965200D02*
G03*
X5061161Y2963362I0J-6277D01*
G01*
D02*
G03*
X5059800Y2960074I3287J-3287D01*
G01*
D02*
G03*
X5061832Y2955167I6940J0D01*
G01*
D02*
G03*
X5068848Y2952261I7016J7016D01*
G01*
X5056300Y2962700D02*
G03*
X5059835Y2954165I12071J0D01*
G01*
X5069700Y2940600D02*
G03*
X5066164Y2949136I-12071J0D01*
G01*
X5067146Y2926438D02*
G03*
X5069700Y2938324I-29061J12462D01*
G01*
X5017219Y2899607D02*
G03*
X5067026Y2926261I3264J53764D01*
G01*
X5032401Y2898379D02*
G03*
X5069695Y2926564I-9721J51629D01*
G01*
X5063000Y2964700D02*
G03*
X5062151Y2966748I-2897J0D01*
G01*
X5059900Y2972184D02*
G03*
X5062151Y2966748I7687J0D01*
G01*
X5059900Y2972184D02*
G03*
X5058686Y2975113I-4143J0D01*
G01*
D02*
G03*
X5056525Y2976009I-2162J-2162D01*
G01*
X5054787D02*
G03*
X5053800Y2975600I0J-1396D01*
G01*
X5052351Y2975000D02*
G03*
X5053800Y2975600I0J2049D01*
G01*
X5029800Y2884500D02*
G03*
X5032452Y2885492I129J3698D01*
G01*
X5014800Y2913700D02*
G03*
X5010495Y2911917I0J-6088D01*
G01*
X5016717Y2913700D02*
G03*
X5017200Y2913900I0J683D01*
G01*
X5026302Y2878902D02*
G03*
X5025100Y2876000I2902J-2902D01*
G01*
X5029194Y2880100D02*
G03*
X5026302Y2878902I0J-4090D01*
G01*
X5024700Y2880100D02*
G03*
X5022800Y2875513I4587J-4587D01*
G01*
X5029400Y2882300D02*
G03*
X5025132Y2880532I0J-6036D01*
G01*
X5029797Y2884505D02*
G03*
X5020315Y2875113I-125J-9356D01*
G01*
X5020100Y2875400D02*
G03*
X5020300Y2875883I-483J483D01*
G01*
X4982343Y2921957D02*
G03*
X4985878Y2913421I12071J0D01*
G01*
X4985741Y2913547D02*
G03*
X5000935Y2903046I33397J32078D01*
G01*
X5004940Y2898723D02*
G03*
X5000935Y2903046I-8582J-3935D01*
G01*
X5004968Y2898790D02*
G03*
X5006240Y2897723I1975J1063D01*
G01*
X5015210Y2888144D02*
G03*
X5008991Y2896887I-10536J-911D01*
G01*
X5075411Y2962950D02*
G03*
X5088264Y2965952I4129J11343D01*
G01*
X5077065Y2988564D02*
G03*
X5079669Y2997596I-9381J7597D01*
G01*
X5071839Y2986400D02*
G03*
X5077065Y2988564I0J7390D01*
G01*
X5063400Y2983600D02*
G03*
X5062127Y2986673I-4346J0D01*
G01*
X5058400Y2995400D02*
G03*
X5061935Y2986864I12071J0D01*
G01*
X5018100Y2990700D02*
G03*
X5019878Y2991437I0J2515D01*
G01*
X5007100Y2994000D02*
G03*
X5010358Y3000258I-5926J7062D01*
G01*
X5010358Y3000258D02*
G03*
X5008590Y3005865I-7652J669D01*
G01*
X5105700Y2940700D02*
G03*
X5106619Y2938481I3139J0D01*
G01*
X5106200Y2957100D02*
G03*
X5109426Y2955764I3226J3226D01*
G01*
X5083240Y3011961D02*
G03*
X5085857Y3005643I8935J0D01*
G01*
X5069644Y2926374D02*
G03*
X5072116Y2941169I-45301J15173D01*
G01*
X5023937Y3018357D02*
G03*
X5016023Y3007482I19496J-22506D01*
G01*
X5015400Y3017026D02*
G03*
X5012521Y3023976I-9828J0D01*
G01*
X5012600Y3007500D02*
G03*
X5015400Y3014260I-6760J6760D01*
G01*
X4991652Y2981101D02*
G03*
X4990700Y2983400I-3251J0D01*
G01*
X4988172Y2985928D02*
G03*
X4985729Y2986940I-2442J-2442D01*
G01*
X5064257Y2883700D02*
G03*
X5071500Y2886700I0J10243D01*
G01*
X5074638Y2888000D02*
G03*
X5071500Y2886700I0J-4439D01*
G01*
X5001600Y2880700D02*
Y2886000D01*
X5000400Y2896600D02*
X5006000Y2891000D01*
Y2879500D02*
Y2891000D01*
X5005300Y2878800D02*
X5006000Y2879500D01*
X5000400Y2896600D02*
Y2899300D01*
X5063352Y2944610D02*
X5066388Y2941574D01*
X4987200Y2918728D02*
Y2919496D01*
X4997500Y2907400D02*
X5000877Y2912927D01*
X5016200Y2902300D02*
X5016560Y2907939D01*
X5032638Y2909412D02*
X5034300Y2904300D01*
X5047251Y2916350D02*
X5050500Y2911800D01*
X5058352Y2928658D02*
X5063900Y2925900D01*
X5022600Y2888300D02*
X5027201Y2892401D01*
X5072483Y2925863D02*
X5076873Y2924736D01*
X5063900Y2913500D02*
X5069200Y2909200D01*
X5052578Y2903402D02*
X5057614Y2897112D01*
X5039639Y2896312D02*
X5041760Y2889571D01*
X5064225Y2972070D02*
Y2972893D01*
X5080996Y2887299D02*
X5084660D01*
X5065005Y2988478D02*
X5067000Y2982400D01*
X5081300Y2983800D02*
X5082584Y2990133D01*
X5081570Y2971121D02*
X5084400Y2976500D01*
X5094053Y2977257D02*
X5098104Y2981598D01*
X5101135Y2963900D02*
X5108603Y2968285D01*
X5092770Y2957641D02*
X5098600Y2959500D01*
X5104295Y2950403D02*
X5114128Y2951399D01*
X5095527Y2940097D02*
X5102700Y2940600D01*
X5103674Y2954650D02*
X5105700Y2940700D01*
X5095120Y2921593D02*
X5102000Y2920700D01*
X5090733Y2903516D02*
X5096100Y2901100D01*
X5003700Y3019300D02*
X5009067Y3016884D01*
X4997800Y2999700D02*
X5004680Y2998807D01*
X4997100Y2979800D02*
X5004273Y2980303D01*
X4985672Y2968401D02*
X4991400Y2968900D01*
X5001200Y2960900D02*
X5007030Y2962759D01*
X4991198Y2952115D02*
X4995900Y2955000D01*
X5001696Y2938802D02*
X5005800Y2943200D01*
X5015400Y2943900D02*
X5018230Y2949279D01*
X5017216Y2930267D02*
X5018500Y2936600D01*
X5032800Y2938000D02*
X5034795Y2931922D01*
X5015139Y3033101D02*
X5018804D01*
X5035575Y2947507D02*
X5035575Y2948330D01*
X5042061Y2943674D02*
X5044295Y2943890D01*
X5058040Y3030829D02*
X5060000Y3024600D01*
X5042186Y3023288D02*
X5046500Y3017900D01*
X5030410Y3011106D02*
X5036200Y3007300D01*
X5023865Y2995423D02*
X5029800Y2993900D01*
X5021951Y2976927D02*
X5028900Y2978600D01*
X5034000Y2965286D02*
X5034000Y2966625D01*
X5072499Y3027399D02*
X5077200Y3032100D01*
X5035900Y2994500D02*
X5041448Y2991742D01*
X5049300Y3008600D02*
X5052549Y3004050D01*
X5065500Y3016100D02*
X5067162Y3010988D01*
X5083240Y3012461D02*
X5083600Y3018100D01*
X5098923Y3007473D02*
X5102300Y3013000D01*
X5112600Y3000904D02*
X5112600Y3001672D01*
X5033411Y2978826D02*
X5036448Y2975790D01*
X5035575Y2948330D02*
X5043284Y2950201D01*
X5048541Y2941135D02*
X5049784Y2950201D01*
X5056284D02*
X5063352Y2944610D01*
X5027135Y2947508D02*
X5027455Y2947189D01*
X5023600Y2956043D02*
Y2958872D01*
X5027135Y2967407D02*
X5027867Y2968139D01*
X5014333Y2973363D02*
X5014600Y2961351D01*
X5015900Y2978300D02*
X5019522Y2984575D01*
X5020260Y3000554D02*
X5026535Y3004177D01*
X5010137Y2976629D02*
X5014580Y2993006D01*
X5010472Y2993171D02*
X5022198Y3012438D01*
X5030072Y3016766D02*
X5036190Y3017194D01*
X5044030Y3028401D02*
X5050029Y3027126D01*
X5023937Y3018357D02*
X5035268Y3026411D01*
X5050800Y3037400D02*
X5056489Y3037689D01*
X5062103Y3036074D02*
X5066660Y3031971D01*
X5028400Y3029700D02*
X5036900Y3033700D01*
X5045100Y3036600D01*
X5020240Y3025406D02*
X5028400Y3029700D01*
X5032344Y3038227D02*
X5041402Y3039947D01*
X5050584Y3040905D02*
X5059390Y3041663D01*
X5041402Y3039947D02*
X5050584Y3040905D01*
X5080496Y3037386D02*
X5084599Y3032828D01*
X5066100Y3041600D02*
X5072237Y3040926D01*
X5059390Y3041663D02*
X5066100Y3041600D01*
X4981669Y2972833D02*
X4985529Y2977599D01*
X4995500Y2930500D02*
X5005510Y2917260D01*
X4985306Y2956798D02*
X4986706Y2959942D01*
X5016100Y2919000D02*
X5020139Y2917128D01*
X5007558Y2931794D02*
X5011610Y2925787D01*
X5025901Y2927627D02*
X5031367Y2925637D01*
X5038011Y2924550D02*
X5046202Y2924462D01*
X5041518Y2936467D02*
X5042298Y2935788D01*
X5057110Y2934731D02*
X5061500Y2936700D01*
X5051243Y2933475D02*
X5057110Y2934731D01*
X4990100Y2938800D02*
X4995500Y2930500D01*
X4985431Y2947813D02*
X4990100Y2938800D01*
X4982038Y2992285D02*
X4986871Y2996060D01*
X4976830Y2975218D02*
X4977930Y2984293D01*
X4976299Y2968529D02*
X4976830Y2975218D01*
X4988900Y2935100D02*
X4993568Y2925132D01*
X4986300Y2940000D02*
X4988900Y2935100D01*
X4983500Y2946300D02*
X4986300Y2940000D01*
X4981800Y2951900D02*
X4983500Y2946300D01*
X4980300Y2957200D02*
X4981800Y2951900D01*
X4979464Y2964122D02*
X4980300Y2957200D01*
X4976299Y2968529D02*
X4976300Y2963600D01*
X4977200Y2957800D01*
X4985167Y2930216D01*
X5114632Y2990184D02*
X5122600Y2962600D01*
X5123500Y2956800D01*
X5123501Y2951871D01*
X5116300Y2974100D02*
X5118000Y2968500D01*
X5113500Y2980400D02*
X5116300Y2974100D01*
X5110900Y2985300D02*
X5113500Y2980400D01*
X5106232Y2995267D02*
X5110900Y2985300D01*
X5122970Y2945182D02*
X5123501Y2951871D01*
X5121870Y2936107D02*
X5122970Y2945182D01*
X5112929Y2924340D02*
X5117762Y2928115D01*
X5109700Y2981600D02*
X5114369Y2972587D01*
X5104300Y2989900D02*
X5109700Y2981600D01*
X5075700Y2999000D02*
X5079264Y2997753D01*
X5072200Y3000500D02*
X5075700Y2999000D01*
X5042800Y2986700D02*
X5048740Y2987543D01*
X5037000Y2984000D02*
X5042800Y2986700D01*
X5057502Y2984612D02*
X5058282Y2983933D01*
X5053598Y2995938D02*
X5061789Y2995850D01*
X5087897Y2993916D02*
X5092838Y2988617D01*
X5065111Y3003732D02*
X5072200Y3000500D01*
X5079661Y3003272D02*
X5100579Y2988126D01*
X5113094Y2960458D02*
X5114494Y2963602D01*
X5094291Y3003140D02*
X5104300Y2989900D01*
X5114272Y2943201D02*
X5118131Y2947967D01*
X5071400Y2890700D02*
X5079560Y2894994D01*
X5054330Y2884350D02*
X5062900Y2887100D01*
X5071400Y2890700D01*
X5064561Y2891541D02*
X5086393Y2910495D01*
X5049806Y2892373D02*
X5055639Y2890478D01*
X5064010Y2903106D02*
X5070128Y2903534D01*
X5078002Y2907862D02*
X5089728Y2927129D01*
X5085220Y2928394D02*
X5089663Y2943771D01*
X5074600Y2915900D02*
X5079940Y2920446D01*
X5080700Y2935600D02*
X5084539Y2941744D01*
X5085200Y2959049D02*
X5086064Y2950857D01*
X5071933Y2952261D02*
X5072664Y2952993D01*
X5072345Y2973211D02*
X5072665Y2972892D01*
X5043284Y2970201D02*
X5056284Y2970201D01*
X5079940Y2920446D02*
X5082241Y2922970D01*
X4999221Y2932274D02*
X5006300Y2924600D01*
X5011400Y2920900D01*
X5016100Y2919000D01*
X5022739Y2919581D02*
X5034139Y2916840D01*
X5118000Y2968500D02*
X5119400Y2963200D01*
X5120336Y2956678D01*
X5017800Y2874100D02*
Y2881000D01*
X5019400Y2882600D01*
Y2892700D01*
X5067467Y2959138D02*
X5070789D01*
X5068843Y2966544D02*
X5070107Y2967807D01*
X5068848Y2952261D02*
X5071933D01*
X5072483Y2925863D02*
X5074554Y2939177D01*
X5072490Y2925863D02*
X5072493Y2925900D01*
X5071933Y2952061D02*
X5072100Y2941100D01*
X5056284Y2970201D02*
X5056300Y2963200D01*
Y2962700D02*
Y2963200D01*
X5069700Y2938324D02*
Y2940600D01*
X5064700Y2950300D02*
X5066164Y2949136D01*
X5059835Y2954165D02*
X5061400Y2952700D01*
X5063000Y2951300D02*
X5064700Y2950300D01*
X5061400Y2952700D02*
X5063000Y2951300D01*
X5024000Y2896100D02*
X5032829Y2898501D01*
X5021200Y2894800D02*
X5024000Y2896100D01*
X5020200Y2893900D02*
X5021200Y2894800D01*
X5019400Y2892700D02*
X5020200Y2893900D01*
X5054787Y2976009D02*
X5056525D01*
X5046900Y2975800D02*
X5052351Y2975000D01*
X5038152Y2983810D02*
X5046900Y2975800D01*
X5061200Y2979700D02*
X5064081Y2980969D01*
X5058500Y2979000D02*
X5061200Y2979700D01*
X5055700Y2978800D02*
X5058500Y2979000D01*
X5051259Y2979264D02*
X5055700Y2978800D01*
X5027455Y2947189D02*
X5031700Y2952400D01*
X5033400Y2954300D01*
X5035600Y2955800D01*
X5037600Y2958400D01*
X5038200Y2960900D01*
X5055100Y2942800D02*
X5061900Y2936000D01*
X5038200Y2960900D02*
Y2969700D01*
X5041600Y2976900D01*
X5043500Y2978913D01*
X5014600Y2961351D02*
X5018900Y2961000D01*
X5018600Y2961024D02*
X5018900Y2961000D01*
X4979600Y2962900D02*
X4983525Y2963313D01*
X4987251Y2944300D02*
X4988800Y2945400D01*
X5020200Y2920700D02*
X5021400Y2923600D01*
X5032188Y2885256D02*
X5035229Y2888091D01*
X5012800Y2874100D02*
Y2879800D01*
X5014700Y2881700D01*
X5010200Y2874200D02*
Y2879900D01*
X5008640Y2910061D02*
X5010495Y2911917D01*
X5014800Y2913700D02*
X5016717D01*
X5022800Y2874100D02*
Y2875513D01*
X5024700Y2880100D02*
X5025132Y2880532D01*
X5074702Y2880600D02*
X5075404Y2881301D01*
X5104100Y2971000D02*
X5112400Y2976000D01*
X5111084Y2955764D02*
X5120336Y2956678D01*
X5005300Y2874100D02*
Y2878800D01*
X5001600Y2880700D02*
X5002800Y2879500D01*
Y2874100D02*
Y2879500D01*
X4982343Y2921957D02*
Y2924982D01*
X5010200Y2879900D02*
X5011100Y2880800D01*
Y2882500D01*
X5008000Y2874100D02*
Y2893800D01*
X5029400Y2882300D02*
X5033900D01*
X5007800Y2900200D02*
X5017556Y2899614D01*
X5006121Y2897772D02*
X5009080Y2896838D01*
X5072800Y2963900D02*
X5075411Y2962950D01*
X5093200Y2982000D02*
X5097500Y2990356D01*
X5071700Y2986400D02*
X5071839D01*
X5061935Y2986864D02*
X5062127Y2986673D01*
X5058400Y2995400D02*
Y2996000D01*
X5003400Y2987500D02*
X5009800D01*
X5019878Y2991437D02*
X5023865Y2995423D01*
X5006700Y3007900D02*
X5008590Y3005865D01*
X5106619Y2938481D02*
X5112900Y2932200D01*
X5109426Y2955764D02*
X5111084D01*
X5085857Y3005643D02*
X5096400Y2995100D01*
X5015400Y3014260D02*
Y3017026D01*
X5029194Y2880100D02*
X5031700D01*
X5037200Y2880600D02*
X5074702D01*
X5031700Y2880100D02*
X5032500Y2879300D01*
X5035900D01*
X5037200Y2880600D01*
X5045100Y3036600D02*
X5050800Y3037400D01*
X4991652Y2978748D02*
Y2981101D01*
X4988172Y2985928D02*
X4990700Y2983400D01*
X5062600Y2883700D02*
X5064257D01*
X5074638Y2888000D02*
X5082100D01*
D11*
X5007800Y2874100D02*
D03*
D12*
X5080996Y2887299D02*
D03*
X5018804Y3033101D02*
D03*
D13*
X5075404Y2881301D02*
D03*
X5024396Y3039099D02*
D03*
D14*
X5049784Y2950201D02*
D03*
X5043284Y2950201D02*
D03*
X5056284Y2950201D02*
D03*
D15*
X5043284Y2970201D02*
D03*
X5056284Y2970201D02*
D03*
X5049784Y2970201D02*
D03*
D16*
X5007800Y2874100D02*
D03*
X5007800Y2852360D02*
D03*
X5012800Y2874100D02*
D03*
X5012800Y2852360D02*
D03*
X5017800Y2874100D02*
D03*
X5017800Y2852360D02*
D03*
X5022800Y2874100D02*
D03*
X5022800Y2852360D02*
D03*
X5027800Y2874100D02*
D03*
X5027800Y2852360D02*
D03*
X5002800Y2874100D02*
D03*
X5010300Y2874100D02*
D03*
X5010300Y2852360D02*
D03*
X5015300Y2874100D02*
D03*
X5015300Y2852360D02*
D03*
X5020300Y2874100D02*
D03*
X5020300Y2852360D02*
D03*
X5025300Y2874100D02*
D03*
X5025300Y2852360D02*
D03*
X5030300Y2874100D02*
D03*
X5030300Y2852360D02*
D03*
X5005300Y2874100D02*
D03*
X5005300Y2852360D02*
D03*
D17*
X5002800Y2852360D02*
D03*
D18*
X5090733Y2903516D02*
D03*
X5009067Y3016884D02*
D03*
D19*
X5087267Y2896084D02*
D03*
X5012533Y3024316D02*
D03*
D20*
X5095120Y2921593D02*
D03*
X5004680Y2998807D02*
D03*
D21*
X5093555Y2913544D02*
D03*
X5006245Y3006857D02*
D03*
D22*
X5095527Y2940097D02*
D03*
X5004273Y2980303D02*
D03*
D23*
X5095956Y2931908D02*
D03*
X5003844Y2988492D02*
D03*
D24*
X5081570Y2971121D02*
D03*
X5018230Y2949279D02*
D03*
D25*
X5088204Y2966302D02*
D03*
X5011596Y2954099D02*
D03*
D26*
X5064225Y2972070D02*
D03*
X5058540Y3030829D02*
D03*
X5041760Y2889571D02*
D03*
X5035575Y2948330D02*
D03*
D27*
X5072345Y2973211D02*
D03*
X5066660Y3031971D02*
D03*
X5033640Y2888429D02*
D03*
X5027455Y2947189D02*
D03*
D28*
X5051259Y2979264D02*
D03*
X5048541Y2941135D02*
D03*
D29*
X5057541Y2984535D02*
D03*
X5042259Y2935865D02*
D03*
D30*
X5065005Y2990478D02*
D03*
X5034795Y2929922D02*
D03*
D31*
X5072995Y2992322D02*
D03*
X5026805Y2928078D02*
D03*
D32*
X5083584Y2991133D02*
D03*
X5016216Y2928267D02*
D03*
D33*
X5091016Y2987667D02*
D03*
X5008784Y2931733D02*
D03*
D34*
X5098704Y2982598D02*
D03*
X5001696Y2937802D02*
D03*
D35*
X5104296Y2976601D02*
D03*
X4996104Y2943799D02*
D03*
D36*
X5108603Y2968285D02*
D03*
X4991198Y2952115D02*
D03*
D37*
X5112197Y2960915D02*
D03*
X4987603Y2959485D02*
D03*
D38*
X5114128Y2951399D02*
D03*
X4985672Y2968901D02*
D03*
D39*
X5114272Y2943201D02*
D03*
X4985529Y2977099D02*
D03*
D40*
X5114071Y2932460D02*
D03*
X4985729Y2986940D02*
D03*
D41*
X5112929Y2924340D02*
D03*
X4986871Y2995060D02*
D03*
D42*
X5036448Y2975790D02*
D03*
X5063352Y2944610D02*
D03*
D43*
X5038152Y2983810D02*
D03*
X5061647Y2936589D02*
D03*
D44*
X5041448Y2991742D02*
D03*
X5058352Y2928658D02*
D03*
D45*
X5046152Y2998458D02*
D03*
X5053648Y2921942D02*
D03*
D46*
X5052549Y3004050D02*
D03*
X5047251Y2916350D02*
D03*
D47*
X5059651Y3008150D02*
D03*
X5040149Y2912250D02*
D03*
D48*
X5067162Y3010988D02*
D03*
X5032638Y2909412D02*
D03*
D49*
X5075238Y3012412D02*
D03*
X5024562Y2907988D02*
D03*
D50*
X5083240Y3012461D02*
D03*
X5016560Y2907939D02*
D03*
D51*
X5091160Y3010339D02*
D03*
X5008640Y2910061D02*
D03*
D52*
X5098923Y3007473D02*
D03*
X5000877Y2912927D02*
D03*
D53*
X5105877Y3003127D02*
D03*
X4993923Y2917273D02*
D03*
D54*
X5111167Y2997616D02*
D03*
X4988633Y2922784D02*
D03*
D55*
X5114632Y2990184D02*
D03*
X4985167Y2930216D02*
D03*
D56*
X5032333Y2961262D02*
D03*
X5067467Y2959138D02*
D03*
D57*
X5027867Y2968139D02*
D03*
X5071933Y2952261D02*
D03*
D58*
X5022108Y2976274D02*
D03*
X5077657Y2944125D02*
D03*
D59*
X5020124Y2984230D02*
D03*
X5079641Y2936168D02*
D03*
D60*
X5022865Y2995423D02*
D03*
X5076935Y2924977D02*
D03*
D61*
X5025535Y3003176D02*
D03*
X5074265Y2917224D02*
D03*
D62*
X5030410Y3011106D02*
D03*
X5069390Y2909294D02*
D03*
D63*
X5035790Y3017294D02*
D03*
X5064010Y2903106D02*
D03*
D64*
X5042186Y3023288D02*
D03*
X5057614Y2897112D02*
D03*
D65*
X5049215Y3027512D02*
D03*
X5050586Y2892888D02*
D03*
D66*
X5076401Y3032972D02*
D03*
D67*
X5084599Y3032828D02*
D03*
D68*
X5023397Y2887857D02*
D03*
D69*
X5015202Y2888143D02*
D03*
D70*
X5007161Y2962740D02*
D03*
D71*
X5005039Y2970660D02*
D03*
D72*
X5092770Y2957641D02*
D03*
D73*
X5095030Y2949759D02*
D03*
D74*
X5066800Y2869600D02*
D03*
Y2863700D02*
D03*
X4994300Y2888900D02*
D03*
Y2883000D02*
D03*
D75*
X5001600Y2886000D02*
Y2891200D01*
X5030300Y2854700D02*
X5034000D01*
X5036300Y2857000D01*
X5027000Y2858200D02*
X5027600D01*
X5025300Y2856500D02*
X5027000Y2858200D01*
X5025300Y2852360D02*
Y2856500D01*
X5030000Y2857900D02*
X5032300D01*
X5027900Y2855800D02*
X5030000Y2857900D01*
X5027900Y2854800D02*
Y2855800D01*
X5027600Y2858200D02*
X5029800Y2860400D01*
X5032300Y2857900D02*
X5033400Y2859000D01*
X5044700Y2857500D02*
X5054100D01*
X5035000Y2867200D02*
X5044700Y2857500D01*
X5029600Y2867200D02*
X5035000D01*
X5055400Y2842800D02*
X5059500Y2846900D01*
X5036100Y2842800D02*
X5055400D01*
X5032200Y2846700D02*
X5036100Y2842800D01*
X4998600Y2894200D02*
X5001600Y2891200D01*
X4989300Y2894200D02*
X4998600D01*
X5022800Y2852360D02*
Y2857400D01*
X5025800Y2860400D01*
X5020300Y2852360D02*
Y2858900D01*
X5021800Y2860400D01*
X5017800Y2852360D02*
Y2860400D01*
X5005300Y2852360D02*
Y2856900D01*
X5004400Y2857800D02*
X5005300Y2856900D01*
X5027800Y2869000D02*
Y2874100D01*
X4999100Y2854800D02*
X5002700D01*
X5002400Y2857800D02*
X5004400D01*
X4999800Y2860400D02*
X5002400Y2857800D01*
X5003900Y2860800D02*
X5007800Y2856900D01*
Y2852360D02*
Y2856900D01*
X5007550Y2859750D02*
Y2860550D01*
Y2859750D02*
X5010300Y2857000D01*
Y2852360D02*
Y2857000D01*
X5011800Y2858200D02*
Y2860400D01*
Y2858200D02*
X5012800Y2857200D01*
Y2851300D02*
Y2857200D01*
X5027800Y2869000D02*
X5029600Y2867200D01*
D76*
X4994300Y2879600D02*
Y2883000D01*
X4998500Y2870200D02*
Y2875400D01*
X4994300Y2879600D02*
X4998500Y2875400D01*
X4995400Y2868800D02*
Y2873500D01*
X4989600Y2879300D02*
X4995400Y2873500D01*
X4989600Y2879300D02*
Y2886000D01*
X4992500Y2888900D01*
X4994800D01*
X5058200Y2875600D02*
X5064200Y2869600D01*
X5030500Y2875600D02*
X5058200D01*
X5057100Y2854000D02*
X5066800Y2863700D01*
X5045400Y2854000D02*
X5057100D01*
X5039800Y2850200D02*
Y2858500D01*
X5033900Y2864400D02*
X5039800Y2858500D01*
X5018700Y2864400D02*
X5033900D01*
X5038200Y2848600D02*
X5039800Y2850200D01*
X5035000Y2838900D02*
X5038300D01*
X5028100Y2845800D02*
X5035000Y2838900D01*
X5016800Y2845800D02*
X5028100D01*
X5012700Y2864700D02*
X5014700Y2862700D01*
Y2858600D02*
Y2862700D01*
Y2858600D02*
X5015300Y2858000D01*
X4998500Y2870200D02*
X5000800Y2867900D01*
X4995400Y2868800D02*
X4999500Y2864700D01*
X5012700D01*
X5015300Y2847300D02*
X5016800Y2845800D01*
X5064200Y2869600D02*
X5066800D01*
X5039100Y2847700D02*
X5045400Y2854000D01*
X5000800Y2867900D02*
X5015200D01*
X5018700Y2864400D01*
D77*
X5015300Y2847300D02*
Y2852360D01*
X5015300Y2867900D02*
Y2874100D01*
X5015300Y2852360D02*
Y2858000D01*
D78*
X5053900Y2867800D02*
D03*
X5043900D02*
D03*
D79*
X5039100Y2847700D02*
D03*
X5039000Y2837700D02*
D03*
X5049000D02*
D03*
X5059000D02*
D03*
X5059100Y2847700D02*
D03*
X5049100D02*
D03*
D80*
X5001600Y2886000D02*
D03*
D81*
X5036300Y2857000D02*
D03*
X5033400Y2859000D02*
D03*
X5054100Y2857500D02*
D03*
X5032200Y2846700D02*
D03*
X4989300Y2894200D02*
D03*
X5055100Y2942800D02*
D03*
X5060700Y2962500D02*
D03*
X5018900Y2961000D02*
D03*
X5021400Y2923600D02*
D03*
X5002000Y2929600D02*
D03*
X4988800Y2945400D02*
D03*
X5010137Y2976629D02*
D03*
X5090200Y2945100D02*
D03*
X5090500Y2928100D02*
D03*
X5087300Y2911200D02*
D03*
X5079560Y2894994D02*
D03*
X5014700Y2881700D02*
D03*
X5017200Y2913900D02*
D03*
X5039100Y2924200D02*
D03*
X4999800Y2860400D02*
D03*
X5003800D02*
D03*
X5007800D02*
D03*
X5011800D02*
D03*
X5017800D02*
D03*
X5021800D02*
D03*
X5025800D02*
D03*
X5029800D02*
D03*
X5020900Y2902500D02*
D03*
X5028100Y2893100D02*
D03*
X4998700Y2969700D02*
D03*
X5095700Y2975600D02*
D03*
X4999100Y2854800D02*
D03*
X5008000Y2893800D02*
D03*
X5011100Y2882500D02*
D03*
X5000400Y2899300D02*
D03*
X4983600Y2963300D02*
D03*
X5033900Y2882200D02*
D03*
X5007800Y2900200D02*
D03*
X5072800Y2963900D02*
D03*
X5062600Y2883700D02*
D03*
X5009800Y2987500D02*
D03*
X5104100Y2971000D02*
D03*
X5093200Y2982000D02*
D03*
X5071700Y2986400D02*
D03*
X5063400Y2983600D02*
D03*
X5018100Y2990700D02*
D03*
X5007100Y2994000D02*
D03*
X5106200Y2957100D02*
D03*
X5096400Y2995100D02*
D03*
X5012600Y3007500D02*
D03*
X4998900Y2950500D02*
D03*
M02*
