G04*
G04 #@! TF.GenerationSoftware,Altium Limited,CircuitStudio,1.5.2 (30)*
G04*
G04 Layer_Color=16750848*
%FSLAX25Y25*%
%MOIN*%
G70*
G01*
G75*
G04:AMPARAMS|DCode=85|XSize=48mil|YSize=52mil|CornerRadius=21.6mil|HoleSize=0mil|Usage=FLASHONLY|Rotation=47.000|XOffset=0mil|YOffset=0mil|HoleType=Round|Shape=RoundedRectangle|*
%AMROUNDEDRECTD85*
21,1,0.04800,0.00880,0,0,47.0*
21,1,0.00480,0.05200,0,0,47.0*
1,1,0.04320,0.00486,-0.00125*
1,1,0.04320,0.00158,-0.00476*
1,1,0.04320,-0.00486,0.00125*
1,1,0.04320,-0.00158,0.00476*
%
%ADD85ROUNDEDRECTD85*%
G04:AMPARAMS|DCode=86|XSize=48mil|YSize=52mil|CornerRadius=8.4mil|HoleSize=0mil|Usage=FLASHONLY|Rotation=47.000|XOffset=0mil|YOffset=0mil|HoleType=Round|Shape=RoundedRectangle|*
%AMROUNDEDRECTD86*
21,1,0.04800,0.03520,0,0,47.0*
21,1,0.03120,0.05200,0,0,47.0*
1,1,0.01680,0.02351,-0.00059*
1,1,0.01680,0.00223,-0.02341*
1,1,0.01680,-0.02351,0.00059*
1,1,0.01680,-0.00223,0.02341*
%
%ADD86ROUNDEDRECTD86*%
%ADD87O,0.04100X0.07400*%
G04:AMPARAMS|DCode=88|XSize=41mil|YSize=74mil|CornerRadius=10.6mil|HoleSize=0mil|Usage=FLASHONLY|Rotation=0.000|XOffset=0mil|YOffset=0mil|HoleType=Round|Shape=RoundedRectangle|*
%AMROUNDEDRECTD88*
21,1,0.04100,0.05280,0,0,0.0*
21,1,0.01980,0.07400,0,0,0.0*
1,1,0.02120,0.00990,-0.02640*
1,1,0.02120,-0.00990,-0.02640*
1,1,0.02120,-0.00990,0.02640*
1,1,0.02120,0.00990,0.02640*
%
%ADD88ROUNDEDRECTD88*%
%ADD89O,0.02217X0.07690*%
%ADD90R,0.02217X0.07690*%
G04:AMPARAMS|DCode=91|XSize=48mil|YSize=52mil|CornerRadius=21.6mil|HoleSize=0mil|Usage=FLASHONLY|Rotation=65.000|XOffset=0mil|YOffset=0mil|HoleType=Round|Shape=RoundedRectangle|*
%AMROUNDEDRECTD91*
21,1,0.04800,0.00880,0,0,65.0*
21,1,0.00480,0.05200,0,0,65.0*
1,1,0.04320,0.00500,0.00032*
1,1,0.04320,0.00297,-0.00404*
1,1,0.04320,-0.00500,-0.00032*
1,1,0.04320,-0.00297,0.00404*
%
%ADD91ROUNDEDRECTD91*%
G04:AMPARAMS|DCode=92|XSize=48mil|YSize=52mil|CornerRadius=8.4mil|HoleSize=0mil|Usage=FLASHONLY|Rotation=65.000|XOffset=0mil|YOffset=0mil|HoleType=Round|Shape=RoundedRectangle|*
%AMROUNDEDRECTD92*
21,1,0.04800,0.03520,0,0,65.0*
21,1,0.03120,0.05200,0,0,65.0*
1,1,0.01680,0.02254,0.00670*
1,1,0.01680,0.00936,-0.02158*
1,1,0.01680,-0.02254,-0.00670*
1,1,0.01680,-0.00936,0.02158*
%
%ADD92ROUNDEDRECTD92*%
G04:AMPARAMS|DCode=93|XSize=48mil|YSize=52mil|CornerRadius=21.6mil|HoleSize=0mil|Usage=FLASHONLY|Rotation=79.000|XOffset=0mil|YOffset=0mil|HoleType=Round|Shape=RoundedRectangle|*
%AMROUNDEDRECTD93*
21,1,0.04800,0.00880,0,0,79.0*
21,1,0.00480,0.05200,0,0,79.0*
1,1,0.04320,0.00478,0.00152*
1,1,0.04320,0.00386,-0.00320*
1,1,0.04320,-0.00478,-0.00152*
1,1,0.04320,-0.00386,0.00320*
%
%ADD93ROUNDEDRECTD93*%
G04:AMPARAMS|DCode=94|XSize=48mil|YSize=52mil|CornerRadius=8.4mil|HoleSize=0mil|Usage=FLASHONLY|Rotation=79.000|XOffset=0mil|YOffset=0mil|HoleType=Round|Shape=RoundedRectangle|*
%AMROUNDEDRECTD94*
21,1,0.04800,0.03520,0,0,79.0*
21,1,0.03120,0.05200,0,0,79.0*
1,1,0.01680,0.02025,0.01196*
1,1,0.01680,0.01430,-0.01867*
1,1,0.01680,-0.02025,-0.01196*
1,1,0.01680,-0.01430,0.01867*
%
%ADD94ROUNDEDRECTD94*%
G04:AMPARAMS|DCode=95|XSize=48mil|YSize=52mil|CornerRadius=21.6mil|HoleSize=0mil|Usage=FLASHONLY|Rotation=93.000|XOffset=0mil|YOffset=0mil|HoleType=Round|Shape=RoundedRectangle|*
%AMROUNDEDRECTD95*
21,1,0.04800,0.00880,0,0,93.0*
21,1,0.00480,0.05200,0,0,93.0*
1,1,0.04320,0.00427,0.00263*
1,1,0.04320,0.00452,-0.00217*
1,1,0.04320,-0.00427,-0.00263*
1,1,0.04320,-0.00452,0.00217*
%
%ADD95ROUNDEDRECTD95*%
G04:AMPARAMS|DCode=96|XSize=48mil|YSize=52mil|CornerRadius=8.4mil|HoleSize=0mil|Usage=FLASHONLY|Rotation=93.000|XOffset=0mil|YOffset=0mil|HoleType=Round|Shape=RoundedRectangle|*
%AMROUNDEDRECTD96*
21,1,0.04800,0.03520,0,0,93.0*
21,1,0.03120,0.05200,0,0,93.0*
1,1,0.01680,0.01676,0.01650*
1,1,0.01680,0.01839,-0.01466*
1,1,0.01680,-0.01676,-0.01650*
1,1,0.01680,-0.01839,0.01466*
%
%ADD96ROUNDEDRECTD96*%
G04:AMPARAMS|DCode=97|XSize=48mil|YSize=52mil|CornerRadius=21.6mil|HoleSize=0mil|Usage=FLASHONLY|Rotation=144.000|XOffset=0mil|YOffset=0mil|HoleType=Round|Shape=RoundedRectangle|*
%AMROUNDEDRECTD97*
21,1,0.04800,0.00880,0,0,144.0*
21,1,0.00480,0.05200,0,0,144.0*
1,1,0.04320,0.00065,0.00497*
1,1,0.04320,0.00453,0.00215*
1,1,0.04320,-0.00065,-0.00497*
1,1,0.04320,-0.00453,-0.00215*
%
%ADD97ROUNDEDRECTD97*%
G04:AMPARAMS|DCode=98|XSize=48mil|YSize=52mil|CornerRadius=8.4mil|HoleSize=0mil|Usage=FLASHONLY|Rotation=144.000|XOffset=0mil|YOffset=0mil|HoleType=Round|Shape=RoundedRectangle|*
%AMROUNDEDRECTD98*
21,1,0.04800,0.03520,0,0,144.0*
21,1,0.03120,0.05200,0,0,144.0*
1,1,0.01680,-0.00228,0.02341*
1,1,0.01680,0.02297,0.00507*
1,1,0.01680,0.00228,-0.02341*
1,1,0.01680,-0.02297,-0.00507*
%
%ADD98ROUNDEDRECTD98*%
G04:AMPARAMS|DCode=99|XSize=48mil|YSize=52mil|CornerRadius=21.6mil|HoleSize=0mil|Usage=FLASHONLY|Rotation=188.000|XOffset=0mil|YOffset=0mil|HoleType=Round|Shape=RoundedRectangle|*
%AMROUNDEDRECTD99*
21,1,0.04800,0.00880,0,0,188.0*
21,1,0.00480,0.05200,0,0,188.0*
1,1,0.04320,-0.00299,0.00402*
1,1,0.04320,0.00176,0.00469*
1,1,0.04320,0.00299,-0.00402*
1,1,0.04320,-0.00176,-0.00469*
%
%ADD99ROUNDEDRECTD99*%
G04:AMPARAMS|DCode=100|XSize=48mil|YSize=52mil|CornerRadius=8.4mil|HoleSize=0mil|Usage=FLASHONLY|Rotation=188.000|XOffset=0mil|YOffset=0mil|HoleType=Round|Shape=RoundedRectangle|*
%AMROUNDEDRECTD100*
21,1,0.04800,0.03520,0,0,188.0*
21,1,0.03120,0.05200,0,0,188.0*
1,1,0.01680,-0.01790,0.01526*
1,1,0.01680,0.01300,0.01960*
1,1,0.01680,0.01790,-0.01526*
1,1,0.01680,-0.01300,-0.01960*
%
%ADD100ROUNDEDRECTD100*%
G04:AMPARAMS|DCode=101|XSize=48mil|YSize=52mil|CornerRadius=21.6mil|HoleSize=0mil|Usage=FLASHONLY|Rotation=220.000|XOffset=0mil|YOffset=0mil|HoleType=Round|Shape=RoundedRectangle|*
%AMROUNDEDRECTD101*
21,1,0.04800,0.00880,0,0,220.0*
21,1,0.00480,0.05200,0,0,220.0*
1,1,0.04320,-0.00467,0.00183*
1,1,0.04320,-0.00099,0.00491*
1,1,0.04320,0.00467,-0.00183*
1,1,0.04320,0.00099,-0.00491*
%
%ADD101ROUNDEDRECTD101*%
G04:AMPARAMS|DCode=102|XSize=48mil|YSize=52mil|CornerRadius=8.4mil|HoleSize=0mil|Usage=FLASHONLY|Rotation=220.000|XOffset=0mil|YOffset=0mil|HoleType=Round|Shape=RoundedRectangle|*
%AMROUNDEDRECTD102*
21,1,0.04800,0.03520,0,0,220.0*
21,1,0.03120,0.05200,0,0,220.0*
1,1,0.01680,-0.02326,0.00346*
1,1,0.01680,0.00064,0.02351*
1,1,0.01680,0.02326,-0.00346*
1,1,0.01680,-0.00064,-0.02351*
%
%ADD102ROUNDEDRECTD102*%
G04:AMPARAMS|DCode=103|XSize=48mil|YSize=52mil|CornerRadius=21.6mil|HoleSize=0mil|Usage=FLASHONLY|Rotation=193.000|XOffset=0mil|YOffset=0mil|HoleType=Round|Shape=RoundedRectangle|*
%AMROUNDEDRECTD103*
21,1,0.04800,0.00880,0,0,193.0*
21,1,0.00480,0.05200,0,0,193.0*
1,1,0.04320,-0.00333,0.00375*
1,1,0.04320,0.00135,0.00483*
1,1,0.04320,0.00333,-0.00375*
1,1,0.04320,-0.00135,-0.00483*
%
%ADD103ROUNDEDRECTD103*%
G04:AMPARAMS|DCode=104|XSize=48mil|YSize=52mil|CornerRadius=8.4mil|HoleSize=0mil|Usage=FLASHONLY|Rotation=193.000|XOffset=0mil|YOffset=0mil|HoleType=Round|Shape=RoundedRectangle|*
%AMROUNDEDRECTD104*
21,1,0.04800,0.03520,0,0,193.0*
21,1,0.03120,0.05200,0,0,193.0*
1,1,0.01680,-0.01916,0.01364*
1,1,0.01680,0.01124,0.02066*
1,1,0.01680,0.01916,-0.01364*
1,1,0.01680,-0.01124,-0.02066*
%
%ADD104ROUNDEDRECTD104*%
G04:AMPARAMS|DCode=105|XSize=48mil|YSize=52mil|CornerRadius=21.6mil|HoleSize=0mil|Usage=FLASHONLY|Rotation=155.000|XOffset=0mil|YOffset=0mil|HoleType=Round|Shape=RoundedRectangle|*
%AMROUNDEDRECTD105*
21,1,0.04800,0.00880,0,0,155.0*
21,1,0.00480,0.05200,0,0,155.0*
1,1,0.04320,-0.00032,0.00500*
1,1,0.04320,0.00404,0.00297*
1,1,0.04320,0.00032,-0.00500*
1,1,0.04320,-0.00404,-0.00297*
%
%ADD105ROUNDEDRECTD105*%
G04:AMPARAMS|DCode=106|XSize=48mil|YSize=52mil|CornerRadius=8.4mil|HoleSize=0mil|Usage=FLASHONLY|Rotation=155.000|XOffset=0mil|YOffset=0mil|HoleType=Round|Shape=RoundedRectangle|*
%AMROUNDEDRECTD106*
21,1,0.04800,0.03520,0,0,155.0*
21,1,0.03120,0.05200,0,0,155.0*
1,1,0.01680,-0.00670,0.02254*
1,1,0.01680,0.02158,0.00936*
1,1,0.01680,0.00670,-0.02254*
1,1,0.01680,-0.02158,-0.00936*
%
%ADD106ROUNDEDRECTD106*%
G04:AMPARAMS|DCode=107|XSize=48mil|YSize=52mil|CornerRadius=21.6mil|HoleSize=0mil|Usage=FLASHONLY|Rotation=133.000|XOffset=0mil|YOffset=0mil|HoleType=Round|Shape=RoundedRectangle|*
%AMROUNDEDRECTD107*
21,1,0.04800,0.00880,0,0,133.0*
21,1,0.00480,0.05200,0,0,133.0*
1,1,0.04320,0.00158,0.00476*
1,1,0.04320,0.00486,0.00125*
1,1,0.04320,-0.00158,-0.00476*
1,1,0.04320,-0.00486,-0.00125*
%
%ADD107ROUNDEDRECTD107*%
G04:AMPARAMS|DCode=108|XSize=48mil|YSize=52mil|CornerRadius=8.4mil|HoleSize=0mil|Usage=FLASHONLY|Rotation=133.000|XOffset=0mil|YOffset=0mil|HoleType=Round|Shape=RoundedRectangle|*
%AMROUNDEDRECTD108*
21,1,0.04800,0.03520,0,0,133.0*
21,1,0.03120,0.05200,0,0,133.0*
1,1,0.01680,0.00223,0.02341*
1,1,0.01680,0.02351,0.00059*
1,1,0.01680,-0.00223,-0.02341*
1,1,0.01680,-0.02351,-0.00059*
%
%ADD108ROUNDEDRECTD108*%
G04:AMPARAMS|DCode=109|XSize=48mil|YSize=52mil|CornerRadius=21.6mil|HoleSize=0mil|Usage=FLASHONLY|Rotation=116.000|XOffset=0mil|YOffset=0mil|HoleType=Round|Shape=RoundedRectangle|*
%AMROUNDEDRECTD109*
21,1,0.04800,0.00880,0,0,116.0*
21,1,0.00480,0.05200,0,0,116.0*
1,1,0.04320,0.00290,0.00409*
1,1,0.04320,0.00501,-0.00023*
1,1,0.04320,-0.00290,-0.00409*
1,1,0.04320,-0.00501,0.00023*
%
%ADD109ROUNDEDRECTD109*%
G04:AMPARAMS|DCode=110|XSize=48mil|YSize=52mil|CornerRadius=8.4mil|HoleSize=0mil|Usage=FLASHONLY|Rotation=116.000|XOffset=0mil|YOffset=0mil|HoleType=Round|Shape=RoundedRectangle|*
%AMROUNDEDRECTD110*
21,1,0.04800,0.03520,0,0,116.0*
21,1,0.03120,0.05200,0,0,116.0*
1,1,0.01680,0.00898,0.02174*
1,1,0.01680,0.02266,-0.00631*
1,1,0.01680,-0.00898,-0.02174*
1,1,0.01680,-0.02266,0.00631*
%
%ADD110ROUNDEDRECTD110*%
G04:AMPARAMS|DCode=111|XSize=48mil|YSize=52mil|CornerRadius=21.6mil|HoleSize=0mil|Usage=FLASHONLY|Rotation=91.000|XOffset=0mil|YOffset=0mil|HoleType=Round|Shape=RoundedRectangle|*
%AMROUNDEDRECTD111*
21,1,0.04800,0.00880,0,0,91.0*
21,1,0.00480,0.05200,0,0,91.0*
1,1,0.04320,0.00436,0.00248*
1,1,0.04320,0.00444,-0.00232*
1,1,0.04320,-0.00436,-0.00248*
1,1,0.04320,-0.00444,0.00232*
%
%ADD111ROUNDEDRECTD111*%
G04:AMPARAMS|DCode=112|XSize=48mil|YSize=52mil|CornerRadius=8.4mil|HoleSize=0mil|Usage=FLASHONLY|Rotation=91.000|XOffset=0mil|YOffset=0mil|HoleType=Round|Shape=RoundedRectangle|*
%AMROUNDEDRECTD112*
21,1,0.04800,0.03520,0,0,91.0*
21,1,0.03120,0.05200,0,0,91.0*
1,1,0.01680,0.01733,0.01591*
1,1,0.01680,0.01787,-0.01529*
1,1,0.01680,-0.01733,-0.01591*
1,1,0.01680,-0.01787,0.01529*
%
%ADD112ROUNDEDRECTD112*%
G04:AMPARAMS|DCode=113|XSize=48mil|YSize=52mil|CornerRadius=21.6mil|HoleSize=0mil|Usage=FLASHONLY|Rotation=82.000|XOffset=0mil|YOffset=0mil|HoleType=Round|Shape=RoundedRectangle|*
%AMROUNDEDRECTD113*
21,1,0.04800,0.00880,0,0,82.0*
21,1,0.00480,0.05200,0,0,82.0*
1,1,0.04320,0.00469,0.00176*
1,1,0.04320,0.00402,-0.00299*
1,1,0.04320,-0.00469,-0.00176*
1,1,0.04320,-0.00402,0.00299*
%
%ADD113ROUNDEDRECTD113*%
G04:AMPARAMS|DCode=114|XSize=48mil|YSize=52mil|CornerRadius=8.4mil|HoleSize=0mil|Usage=FLASHONLY|Rotation=82.000|XOffset=0mil|YOffset=0mil|HoleType=Round|Shape=RoundedRectangle|*
%AMROUNDEDRECTD114*
21,1,0.04800,0.03520,0,0,82.0*
21,1,0.03120,0.05200,0,0,82.0*
1,1,0.01680,0.01960,0.01300*
1,1,0.01680,0.01526,-0.01790*
1,1,0.01680,-0.01960,-0.01300*
1,1,0.01680,-0.01526,0.01790*
%
%ADD114ROUNDEDRECTD114*%
G04:AMPARAMS|DCode=115|XSize=48mil|YSize=52mil|CornerRadius=21.6mil|HoleSize=0mil|Usage=FLASHONLY|Rotation=258.000|XOffset=0mil|YOffset=0mil|HoleType=Round|Shape=RoundedRectangle|*
%AMROUNDEDRECTD115*
21,1,0.04800,0.00880,0,0,258.0*
21,1,0.00480,0.05200,0,0,258.0*
1,1,0.04320,-0.00480,-0.00143*
1,1,0.04320,-0.00381,0.00326*
1,1,0.04320,0.00480,0.00143*
1,1,0.04320,0.00381,-0.00326*
%
%ADD115ROUNDEDRECTD115*%
G04:AMPARAMS|DCode=116|XSize=48mil|YSize=52mil|CornerRadius=8.4mil|HoleSize=0mil|Usage=FLASHONLY|Rotation=258.000|XOffset=0mil|YOffset=0mil|HoleType=Round|Shape=RoundedRectangle|*
%AMROUNDEDRECTD116*
21,1,0.04800,0.03520,0,0,258.0*
21,1,0.03120,0.05200,0,0,258.0*
1,1,0.01680,-0.02046,-0.01160*
1,1,0.01680,-0.01397,0.01892*
1,1,0.01680,0.02046,0.01160*
1,1,0.01680,0.01397,-0.01892*
%
%ADD116ROUNDEDRECTD116*%
G04:AMPARAMS|DCode=117|XSize=48mil|YSize=52mil|CornerRadius=21.6mil|HoleSize=0mil|Usage=FLASHONLY|Rotation=235.000|XOffset=0mil|YOffset=0mil|HoleType=Round|Shape=RoundedRectangle|*
%AMROUNDEDRECTD117*
21,1,0.04800,0.00880,0,0,235.0*
21,1,0.00480,0.05200,0,0,235.0*
1,1,0.04320,-0.00498,0.00056*
1,1,0.04320,-0.00223,0.00449*
1,1,0.04320,0.00498,-0.00056*
1,1,0.04320,0.00223,-0.00449*
%
%ADD117ROUNDEDRECTD117*%
G04:AMPARAMS|DCode=118|XSize=48mil|YSize=52mil|CornerRadius=8.4mil|HoleSize=0mil|Usage=FLASHONLY|Rotation=235.000|XOffset=0mil|YOffset=0mil|HoleType=Round|Shape=RoundedRectangle|*
%AMROUNDEDRECTD118*
21,1,0.04800,0.03520,0,0,235.0*
21,1,0.03120,0.05200,0,0,235.0*
1,1,0.01680,-0.02337,-0.00268*
1,1,0.01680,-0.00547,0.02287*
1,1,0.01680,0.02337,0.00268*
1,1,0.01680,0.00547,-0.02287*
%
%ADD118ROUNDEDRECTD118*%
G04:AMPARAMS|DCode=119|XSize=48mil|YSize=52mil|CornerRadius=21.6mil|HoleSize=0mil|Usage=FLASHONLY|Rotation=210.000|XOffset=0mil|YOffset=0mil|HoleType=Round|Shape=RoundedRectangle|*
%AMROUNDEDRECTD119*
21,1,0.04800,0.00880,0,0,210.0*
21,1,0.00480,0.05200,0,0,210.0*
1,1,0.04320,-0.00428,0.00261*
1,1,0.04320,-0.00012,0.00501*
1,1,0.04320,0.00428,-0.00261*
1,1,0.04320,0.00012,-0.00501*
%
%ADD119ROUNDEDRECTD119*%
G04:AMPARAMS|DCode=120|XSize=48mil|YSize=52mil|CornerRadius=8.4mil|HoleSize=0mil|Usage=FLASHONLY|Rotation=210.000|XOffset=0mil|YOffset=0mil|HoleType=Round|Shape=RoundedRectangle|*
%AMROUNDEDRECTD120*
21,1,0.04800,0.03520,0,0,210.0*
21,1,0.03120,0.05200,0,0,210.0*
1,1,0.01680,-0.02231,0.00744*
1,1,0.01680,0.00471,0.02304*
1,1,0.01680,0.02231,-0.00744*
1,1,0.01680,-0.00471,-0.02304*
%
%ADD120ROUNDEDRECTD120*%
G04:AMPARAMS|DCode=121|XSize=48mil|YSize=52mil|CornerRadius=21.6mil|HoleSize=0mil|Usage=FLASHONLY|Rotation=190.000|XOffset=0mil|YOffset=0mil|HoleType=Round|Shape=RoundedRectangle|*
%AMROUNDEDRECTD121*
21,1,0.04800,0.00880,0,0,190.0*
21,1,0.00480,0.05200,0,0,190.0*
1,1,0.04320,-0.00313,0.00392*
1,1,0.04320,0.00160,0.00475*
1,1,0.04320,0.00313,-0.00392*
1,1,0.04320,-0.00160,-0.00475*
%
%ADD121ROUNDEDRECTD121*%
G04:AMPARAMS|DCode=122|XSize=48mil|YSize=52mil|CornerRadius=8.4mil|HoleSize=0mil|Usage=FLASHONLY|Rotation=190.000|XOffset=0mil|YOffset=0mil|HoleType=Round|Shape=RoundedRectangle|*
%AMROUNDEDRECTD122*
21,1,0.04800,0.03520,0,0,190.0*
21,1,0.03120,0.05200,0,0,190.0*
1,1,0.01680,-0.01842,0.01462*
1,1,0.01680,0.01231,0.02004*
1,1,0.01680,0.01842,-0.01462*
1,1,0.01680,-0.01231,-0.02004*
%
%ADD122ROUNDEDRECTD122*%
G04:AMPARAMS|DCode=123|XSize=48mil|YSize=52mil|CornerRadius=21.6mil|HoleSize=0mil|Usage=FLASHONLY|Rotation=165.000|XOffset=0mil|YOffset=0mil|HoleType=Round|Shape=RoundedRectangle|*
%AMROUNDEDRECTD123*
21,1,0.04800,0.00880,0,0,165.0*
21,1,0.00480,0.05200,0,0,165.0*
1,1,0.04320,-0.00118,0.00487*
1,1,0.04320,0.00346,0.00363*
1,1,0.04320,0.00118,-0.00487*
1,1,0.04320,-0.00346,-0.00363*
%
%ADD123ROUNDEDRECTD123*%
G04:AMPARAMS|DCode=124|XSize=48mil|YSize=52mil|CornerRadius=8.4mil|HoleSize=0mil|Usage=FLASHONLY|Rotation=165.000|XOffset=0mil|YOffset=0mil|HoleType=Round|Shape=RoundedRectangle|*
%AMROUNDEDRECTD124*
21,1,0.04800,0.03520,0,0,165.0*
21,1,0.03120,0.05200,0,0,165.0*
1,1,0.01680,-0.01051,0.02104*
1,1,0.01680,0.01962,0.01296*
1,1,0.01680,0.01051,-0.02104*
1,1,0.01680,-0.01962,-0.01296*
%
%ADD124ROUNDEDRECTD124*%
G04:AMPARAMS|DCode=125|XSize=48mil|YSize=52mil|CornerRadius=21.6mil|HoleSize=0mil|Usage=FLASHONLY|Rotation=148.000|XOffset=0mil|YOffset=0mil|HoleType=Round|Shape=RoundedRectangle|*
%AMROUNDEDRECTD125*
21,1,0.04800,0.00880,0,0,148.0*
21,1,0.00480,0.05200,0,0,148.0*
1,1,0.04320,0.00030,0.00500*
1,1,0.04320,0.00437,0.00246*
1,1,0.04320,-0.00030,-0.00500*
1,1,0.04320,-0.00437,-0.00246*
%
%ADD125ROUNDEDRECTD125*%
G04:AMPARAMS|DCode=126|XSize=48mil|YSize=52mil|CornerRadius=8.4mil|HoleSize=0mil|Usage=FLASHONLY|Rotation=148.000|XOffset=0mil|YOffset=0mil|HoleType=Round|Shape=RoundedRectangle|*
%AMROUNDEDRECTD126*
21,1,0.04800,0.03520,0,0,148.0*
21,1,0.03120,0.05200,0,0,148.0*
1,1,0.01680,-0.00390,0.02319*
1,1,0.01680,0.02256,0.00666*
1,1,0.01680,0.00390,-0.02319*
1,1,0.01680,-0.02256,-0.00666*
%
%ADD126ROUNDEDRECTD126*%
G04:AMPARAMS|DCode=127|XSize=48mil|YSize=52mil|CornerRadius=21.6mil|HoleSize=0mil|Usage=FLASHONLY|Rotation=115.000|XOffset=0mil|YOffset=0mil|HoleType=Round|Shape=RoundedRectangle|*
%AMROUNDEDRECTD127*
21,1,0.04800,0.00880,0,0,115.0*
21,1,0.00480,0.05200,0,0,115.0*
1,1,0.04320,0.00297,0.00404*
1,1,0.04320,0.00500,-0.00032*
1,1,0.04320,-0.00297,-0.00404*
1,1,0.04320,-0.00500,0.00032*
%
%ADD127ROUNDEDRECTD127*%
G04:AMPARAMS|DCode=128|XSize=48mil|YSize=52mil|CornerRadius=8.4mil|HoleSize=0mil|Usage=FLASHONLY|Rotation=115.000|XOffset=0mil|YOffset=0mil|HoleType=Round|Shape=RoundedRectangle|*
%AMROUNDEDRECTD128*
21,1,0.04800,0.03520,0,0,115.0*
21,1,0.03120,0.05200,0,0,115.0*
1,1,0.01680,0.00936,0.02158*
1,1,0.01680,0.02254,-0.00670*
1,1,0.01680,-0.00936,-0.02158*
1,1,0.01680,-0.02254,0.00670*
%
%ADD128ROUNDEDRECTD128*%
G04:AMPARAMS|DCode=129|XSize=48mil|YSize=52mil|CornerRadius=21.6mil|HoleSize=0mil|Usage=FLASHONLY|Rotation=303.000|XOffset=0mil|YOffset=0mil|HoleType=Round|Shape=RoundedRectangle|*
%AMROUNDEDRECTD129*
21,1,0.04800,0.00880,0,0,303.0*
21,1,0.00480,0.05200,0,0,303.0*
1,1,0.04320,-0.00238,-0.00441*
1,1,0.04320,-0.00500,-0.00038*
1,1,0.04320,0.00238,0.00441*
1,1,0.04320,0.00500,0.00038*
%
%ADD129ROUNDEDRECTD129*%
G04:AMPARAMS|DCode=130|XSize=48mil|YSize=52mil|CornerRadius=8.4mil|HoleSize=0mil|Usage=FLASHONLY|Rotation=303.000|XOffset=0mil|YOffset=0mil|HoleType=Round|Shape=RoundedRectangle|*
%AMROUNDEDRECTD130*
21,1,0.04800,0.03520,0,0,303.0*
21,1,0.03120,0.05200,0,0,303.0*
1,1,0.01680,-0.00626,-0.02267*
1,1,0.01680,-0.02326,0.00350*
1,1,0.01680,0.00626,0.02267*
1,1,0.01680,0.02326,-0.00350*
%
%ADD130ROUNDEDRECTD130*%
G04:AMPARAMS|DCode=131|XSize=48mil|YSize=52mil|CornerRadius=21.6mil|HoleSize=0mil|Usage=FLASHONLY|Rotation=284.000|XOffset=0mil|YOffset=0mil|HoleType=Round|Shape=RoundedRectangle|*
%AMROUNDEDRECTD131*
21,1,0.04800,0.00880,0,0,284.0*
21,1,0.00480,0.05200,0,0,284.0*
1,1,0.04320,-0.00369,-0.00339*
1,1,0.04320,-0.00485,0.00126*
1,1,0.04320,0.00369,0.00339*
1,1,0.04320,0.00485,-0.00126*
%
%ADD131ROUNDEDRECTD131*%
G04:AMPARAMS|DCode=132|XSize=48mil|YSize=52mil|CornerRadius=8.4mil|HoleSize=0mil|Usage=FLASHONLY|Rotation=284.000|XOffset=0mil|YOffset=0mil|HoleType=Round|Shape=RoundedRectangle|*
%AMROUNDEDRECTD132*
21,1,0.04800,0.03520,0,0,284.0*
21,1,0.03120,0.05200,0,0,284.0*
1,1,0.01680,-0.01330,-0.01939*
1,1,0.01680,-0.02085,0.01088*
1,1,0.01680,0.01330,0.01939*
1,1,0.01680,0.02085,-0.01088*
%
%ADD132ROUNDEDRECTD132*%
G04:AMPARAMS|DCode=133|XSize=48mil|YSize=52mil|CornerRadius=21.6mil|HoleSize=0mil|Usage=FLASHONLY|Rotation=251.000|XOffset=0mil|YOffset=0mil|HoleType=Round|Shape=RoundedRectangle|*
%AMROUNDEDRECTD133*
21,1,0.04800,0.00880,0,0,251.0*
21,1,0.00480,0.05200,0,0,251.0*
1,1,0.04320,-0.00494,-0.00084*
1,1,0.04320,-0.00338,0.00370*
1,1,0.04320,0.00494,0.00084*
1,1,0.04320,0.00338,-0.00370*
%
%ADD133ROUNDEDRECTD133*%
G04:AMPARAMS|DCode=134|XSize=48mil|YSize=52mil|CornerRadius=8.4mil|HoleSize=0mil|Usage=FLASHONLY|Rotation=251.000|XOffset=0mil|YOffset=0mil|HoleType=Round|Shape=RoundedRectangle|*
%AMROUNDEDRECTD134*
21,1,0.04800,0.03520,0,0,251.0*
21,1,0.03120,0.05200,0,0,251.0*
1,1,0.01680,-0.02172,-0.00902*
1,1,0.01680,-0.01156,0.02048*
1,1,0.01680,0.02172,0.00902*
1,1,0.01680,0.01156,-0.02048*
%
%ADD134ROUNDEDRECTD134*%
G04:AMPARAMS|DCode=135|XSize=48mil|YSize=52mil|CornerRadius=21.6mil|HoleSize=0mil|Usage=FLASHONLY|Rotation=229.000|XOffset=0mil|YOffset=0mil|HoleType=Round|Shape=RoundedRectangle|*
%AMROUNDEDRECTD135*
21,1,0.04800,0.00880,0,0,229.0*
21,1,0.00480,0.05200,0,0,229.0*
1,1,0.04320,-0.00490,0.00108*
1,1,0.04320,-0.00175,0.00470*
1,1,0.04320,0.00490,-0.00108*
1,1,0.04320,0.00175,-0.00470*
%
%ADD135ROUNDEDRECTD135*%
G04:AMPARAMS|DCode=136|XSize=48mil|YSize=52mil|CornerRadius=8.4mil|HoleSize=0mil|Usage=FLASHONLY|Rotation=229.000|XOffset=0mil|YOffset=0mil|HoleType=Round|Shape=RoundedRectangle|*
%AMROUNDEDRECTD136*
21,1,0.04800,0.03520,0,0,229.0*
21,1,0.03120,0.05200,0,0,229.0*
1,1,0.01680,-0.02352,-0.00023*
1,1,0.01680,-0.00305,0.02332*
1,1,0.01680,0.02352,0.00023*
1,1,0.01680,0.00305,-0.02332*
%
%ADD136ROUNDEDRECTD136*%
G04:AMPARAMS|DCode=137|XSize=48mil|YSize=52mil|CornerRadius=21.6mil|HoleSize=0mil|Usage=FLASHONLY|Rotation=211.000|XOffset=0mil|YOffset=0mil|HoleType=Round|Shape=RoundedRectangle|*
%AMROUNDEDRECTD137*
21,1,0.04800,0.00880,0,0,211.0*
21,1,0.00480,0.05200,0,0,211.0*
1,1,0.04320,-0.00432,0.00254*
1,1,0.04320,-0.00021,0.00501*
1,1,0.04320,0.00432,-0.00254*
1,1,0.04320,0.00021,-0.00501*
%
%ADD137ROUNDEDRECTD137*%
G04:AMPARAMS|DCode=138|XSize=48mil|YSize=52mil|CornerRadius=8.4mil|HoleSize=0mil|Usage=FLASHONLY|Rotation=211.000|XOffset=0mil|YOffset=0mil|HoleType=Round|Shape=RoundedRectangle|*
%AMROUNDEDRECTD138*
21,1,0.04800,0.03520,0,0,211.0*
21,1,0.03120,0.05200,0,0,211.0*
1,1,0.01680,-0.02244,0.00705*
1,1,0.01680,0.00431,0.02312*
1,1,0.01680,0.02244,-0.00705*
1,1,0.01680,-0.00431,-0.02312*
%
%ADD138ROUNDEDRECTD138*%
G04:AMPARAMS|DCode=139|XSize=48mil|YSize=52mil|CornerRadius=21.6mil|HoleSize=0mil|Usage=FLASHONLY|Rotation=179.000|XOffset=0mil|YOffset=0mil|HoleType=Round|Shape=RoundedRectangle|*
%AMROUNDEDRECTD139*
21,1,0.04800,0.00880,0,0,179.0*
21,1,0.00480,0.05200,0,0,179.0*
1,1,0.04320,-0.00232,0.00444*
1,1,0.04320,0.00248,0.00436*
1,1,0.04320,0.00232,-0.00444*
1,1,0.04320,-0.00248,-0.00436*
%
%ADD139ROUNDEDRECTD139*%
G04:AMPARAMS|DCode=140|XSize=48mil|YSize=52mil|CornerRadius=8.4mil|HoleSize=0mil|Usage=FLASHONLY|Rotation=179.000|XOffset=0mil|YOffset=0mil|HoleType=Round|Shape=RoundedRectangle|*
%AMROUNDEDRECTD140*
21,1,0.04800,0.03520,0,0,179.0*
21,1,0.03120,0.05200,0,0,179.0*
1,1,0.01680,-0.01529,0.01787*
1,1,0.01680,0.01591,0.01733*
1,1,0.01680,0.01529,-0.01787*
1,1,0.01680,-0.01591,-0.01733*
%
%ADD140ROUNDEDRECTD140*%
G04:AMPARAMS|DCode=141|XSize=48mil|YSize=52mil|CornerRadius=21.6mil|HoleSize=0mil|Usage=FLASHONLY|Rotation=358.000|XOffset=0mil|YOffset=0mil|HoleType=Round|Shape=RoundedRectangle|*
%AMROUNDEDRECTD141*
21,1,0.04800,0.00880,0,0,358.0*
21,1,0.00480,0.05200,0,0,358.0*
1,1,0.04320,0.00225,-0.00448*
1,1,0.04320,-0.00255,-0.00431*
1,1,0.04320,-0.00225,0.00448*
1,1,0.04320,0.00255,0.00431*
%
%ADD141ROUNDEDRECTD141*%
G04:AMPARAMS|DCode=142|XSize=48mil|YSize=52mil|CornerRadius=8.4mil|HoleSize=0mil|Usage=FLASHONLY|Rotation=358.000|XOffset=0mil|YOffset=0mil|HoleType=Round|Shape=RoundedRectangle|*
%AMROUNDEDRECTD142*
21,1,0.04800,0.03520,0,0,358.0*
21,1,0.03120,0.05200,0,0,358.0*
1,1,0.01680,0.01498,-0.01813*
1,1,0.01680,-0.01621,-0.01705*
1,1,0.01680,-0.01498,0.01813*
1,1,0.01680,0.01621,0.01705*
%
%ADD142ROUNDEDRECTD142*%
G04:AMPARAMS|DCode=143|XSize=48mil|YSize=52mil|CornerRadius=21.6mil|HoleSize=0mil|Usage=FLASHONLY|Rotation=285.000|XOffset=0mil|YOffset=0mil|HoleType=Round|Shape=RoundedRectangle|*
%AMROUNDEDRECTD143*
21,1,0.04800,0.00880,0,0,285.0*
21,1,0.00480,0.05200,0,0,285.0*
1,1,0.04320,-0.00363,-0.00346*
1,1,0.04320,-0.00487,0.00118*
1,1,0.04320,0.00363,0.00346*
1,1,0.04320,0.00487,-0.00118*
%
%ADD143ROUNDEDRECTD143*%
G04:AMPARAMS|DCode=144|XSize=48mil|YSize=52mil|CornerRadius=8.4mil|HoleSize=0mil|Usage=FLASHONLY|Rotation=285.000|XOffset=0mil|YOffset=0mil|HoleType=Round|Shape=RoundedRectangle|*
%AMROUNDEDRECTD144*
21,1,0.04800,0.03520,0,0,285.0*
21,1,0.03120,0.05200,0,0,285.0*
1,1,0.01680,-0.01296,-0.01962*
1,1,0.01680,-0.02104,0.01051*
1,1,0.01680,0.01296,0.01962*
1,1,0.01680,0.02104,-0.01051*
%
%ADD144ROUNDEDRECTD144*%
G04:AMPARAMS|DCode=145|XSize=48mil|YSize=52mil|CornerRadius=21.6mil|HoleSize=0mil|Usage=FLASHONLY|Rotation=106.000|XOffset=0mil|YOffset=0mil|HoleType=Round|Shape=RoundedRectangle|*
%AMROUNDEDRECTD145*
21,1,0.04800,0.00880,0,0,106.0*
21,1,0.00480,0.05200,0,0,106.0*
1,1,0.04320,0.00357,0.00352*
1,1,0.04320,0.00489,-0.00109*
1,1,0.04320,-0.00357,-0.00352*
1,1,0.04320,-0.00489,0.00109*
%
%ADD145ROUNDEDRECTD145*%
G04:AMPARAMS|DCode=146|XSize=48mil|YSize=52mil|CornerRadius=8.4mil|HoleSize=0mil|Usage=FLASHONLY|Rotation=106.000|XOffset=0mil|YOffset=0mil|HoleType=Round|Shape=RoundedRectangle|*
%AMROUNDEDRECTD146*
21,1,0.04800,0.03520,0,0,106.0*
21,1,0.03120,0.05200,0,0,106.0*
1,1,0.01680,0.01262,0.01985*
1,1,0.01680,0.02122,-0.01015*
1,1,0.01680,-0.01262,-0.01985*
1,1,0.01680,-0.02122,0.01015*
%
%ADD146ROUNDEDRECTD146*%
%ADD147R,0.04737X0.03950*%
%ADD148C,0.06300*%
%ADD149C,0.07200*%
%ADD150C,0.05000*%
D85*
X5080996Y2887299D02*
D03*
X5018804Y3033101D02*
D03*
D86*
X5075404Y2881301D02*
D03*
X5024396Y3039099D02*
D03*
D87*
X5049784Y2950201D02*
D03*
X5043284Y2950201D02*
D03*
X5056284Y2950201D02*
D03*
D88*
X5043284Y2970201D02*
D03*
X5056284Y2970201D02*
D03*
X5049784Y2970201D02*
D03*
D89*
X5007800Y2874100D02*
D03*
X5007800Y2852360D02*
D03*
X5012800Y2874100D02*
D03*
X5012800Y2852360D02*
D03*
X5017800Y2874100D02*
D03*
X5017800Y2852360D02*
D03*
X5022800Y2874100D02*
D03*
X5022800Y2852360D02*
D03*
X5027800Y2874100D02*
D03*
X5027800Y2852360D02*
D03*
X5002800Y2874100D02*
D03*
X5010300Y2874100D02*
D03*
X5010300Y2852360D02*
D03*
X5015300Y2874100D02*
D03*
X5015300Y2852360D02*
D03*
X5020300Y2874100D02*
D03*
X5020300Y2852360D02*
D03*
X5025300Y2874100D02*
D03*
X5025300Y2852360D02*
D03*
X5030300Y2874100D02*
D03*
X5030300Y2852360D02*
D03*
X5005300Y2874100D02*
D03*
X5005300Y2852360D02*
D03*
D90*
X5002800Y2852360D02*
D03*
D91*
X5090733Y2903516D02*
D03*
X5009067Y3016884D02*
D03*
D92*
X5087267Y2896084D02*
D03*
X5012533Y3024316D02*
D03*
D93*
X5095120Y2921593D02*
D03*
X5004680Y2998807D02*
D03*
D94*
X5093555Y2913544D02*
D03*
X5006245Y3006857D02*
D03*
D95*
X5095527Y2940097D02*
D03*
X5004273Y2980303D02*
D03*
D96*
X5095956Y2931908D02*
D03*
X5003844Y2988492D02*
D03*
D97*
X5081570Y2971121D02*
D03*
X5018230Y2949279D02*
D03*
D98*
X5088204Y2966302D02*
D03*
X5011596Y2954099D02*
D03*
D99*
X5064225Y2972070D02*
D03*
X5058540Y3030829D02*
D03*
X5041760Y2889571D02*
D03*
X5035575Y2948330D02*
D03*
D100*
X5072345Y2973211D02*
D03*
X5066660Y3031971D02*
D03*
X5033640Y2888429D02*
D03*
X5027455Y2947189D02*
D03*
D101*
X5051259Y2979264D02*
D03*
X5048541Y2941135D02*
D03*
D102*
X5057541Y2984535D02*
D03*
X5042259Y2935865D02*
D03*
D103*
X5065005Y2990478D02*
D03*
X5034795Y2929922D02*
D03*
D104*
X5072995Y2992322D02*
D03*
X5026805Y2928078D02*
D03*
D105*
X5083584Y2991133D02*
D03*
X5016216Y2928267D02*
D03*
D106*
X5091016Y2987667D02*
D03*
X5008784Y2931733D02*
D03*
D107*
X5098704Y2982598D02*
D03*
X5001696Y2937802D02*
D03*
D108*
X5104296Y2976601D02*
D03*
X4996104Y2943799D02*
D03*
D109*
X5108603Y2968285D02*
D03*
X4991198Y2952115D02*
D03*
D110*
X5112197Y2960915D02*
D03*
X4987603Y2959485D02*
D03*
D111*
X5114128Y2951399D02*
D03*
X4985672Y2968901D02*
D03*
D112*
X5114272Y2943201D02*
D03*
X4985529Y2977099D02*
D03*
D113*
X5114071Y2932460D02*
D03*
X4985729Y2986940D02*
D03*
D114*
X5112929Y2924340D02*
D03*
X4986871Y2995060D02*
D03*
D115*
X5036448Y2975790D02*
D03*
X5063352Y2944610D02*
D03*
D116*
X5038152Y2983810D02*
D03*
X5061647Y2936589D02*
D03*
D117*
X5041448Y2991742D02*
D03*
X5058352Y2928658D02*
D03*
D118*
X5046152Y2998458D02*
D03*
X5053648Y2921942D02*
D03*
D119*
X5052549Y3004050D02*
D03*
X5047251Y2916350D02*
D03*
D120*
X5059651Y3008150D02*
D03*
X5040149Y2912250D02*
D03*
D121*
X5067162Y3010988D02*
D03*
X5032638Y2909412D02*
D03*
D122*
X5075238Y3012412D02*
D03*
X5024562Y2907988D02*
D03*
D123*
X5083240Y3012461D02*
D03*
X5016560Y2907939D02*
D03*
D124*
X5091160Y3010339D02*
D03*
X5008640Y2910061D02*
D03*
D125*
X5098923Y3007473D02*
D03*
X5000877Y2912927D02*
D03*
D126*
X5105877Y3003127D02*
D03*
X4993923Y2917273D02*
D03*
D127*
X5111167Y2997616D02*
D03*
X4988633Y2922784D02*
D03*
D128*
X5114632Y2990184D02*
D03*
X4985167Y2930216D02*
D03*
D129*
X5032333Y2961262D02*
D03*
X5067467Y2959138D02*
D03*
D130*
X5027867Y2968139D02*
D03*
X5071933Y2952261D02*
D03*
D131*
X5022108Y2976274D02*
D03*
X5077657Y2944125D02*
D03*
D132*
X5020124Y2984230D02*
D03*
X5079641Y2936168D02*
D03*
D133*
X5022865Y2995423D02*
D03*
X5076935Y2924977D02*
D03*
D134*
X5025535Y3003176D02*
D03*
X5074265Y2917224D02*
D03*
D135*
X5030410Y3011106D02*
D03*
X5069390Y2909294D02*
D03*
D136*
X5035790Y3017294D02*
D03*
X5064010Y2903106D02*
D03*
D137*
X5042186Y3023288D02*
D03*
X5057614Y2897112D02*
D03*
D138*
X5049215Y3027512D02*
D03*
X5050586Y2892888D02*
D03*
D139*
X5076401Y3032972D02*
D03*
D140*
X5084599Y3032828D02*
D03*
D141*
X5023397Y2887857D02*
D03*
D142*
X5015202Y2888143D02*
D03*
D143*
X5007161Y2962740D02*
D03*
D144*
X5005039Y2970660D02*
D03*
D145*
X5092770Y2957641D02*
D03*
D146*
X5095030Y2949759D02*
D03*
D147*
X5066800Y2869600D02*
D03*
Y2863700D02*
D03*
X4994300Y2888900D02*
D03*
Y2883000D02*
D03*
D148*
X5053900Y2867800D02*
D03*
X5043900D02*
D03*
D149*
X5039100Y2847700D02*
D03*
X5039000Y2837700D02*
D03*
X5049000D02*
D03*
X5059000D02*
D03*
X5059100Y2847700D02*
D03*
X5049100D02*
D03*
D150*
X5001600Y2886000D02*
D03*
M02*
