G04*
G04 #@! TF.GenerationSoftware,Altium Limited,CircuitStudio,1.5.2 (30)*
G04*
G04 Layer_Color=65535*
%FSLAX25Y25*%
%MOIN*%
G70*
G01*
G75*
%ADD82C,0.00400*%
%ADD83C,0.00100*%
%ADD84C,0.00600*%
D82*
X5026241Y3036200D02*
G03*
X5026241Y3036200I-4741J0D01*
G01*
X5015441Y3020700D02*
G03*
X5015441Y3020700I-4741J0D01*
G01*
X5038041Y3014100D02*
G03*
X5038041Y3014100I-4741J0D01*
G01*
X5050441Y3025600D02*
G03*
X5050441Y3025600I-4741J0D01*
G01*
X5067241Y3031700D02*
G03*
X5067241Y3031700I-4741J0D01*
G01*
X5085241Y3033300D02*
G03*
X5085241Y3033300I-4741J0D01*
G01*
X5028741Y2999100D02*
G03*
X5028741Y2999100I-4741J0D01*
G01*
X5010141Y3002600D02*
G03*
X5010141Y3002600I-4741J0D01*
G01*
X5008541Y2984500D02*
G03*
X5008541Y2984500I-4741J0D01*
G01*
X5025758Y2980243D02*
G03*
X5025758Y2980243I-4741J0D01*
G01*
X5010741Y2966600D02*
G03*
X5010741Y2966600I-4741J0D01*
G01*
X5034841Y2964700D02*
G03*
X5034841Y2964700I-4741J0D01*
G01*
X5036241Y2947800D02*
G03*
X5036241Y2947800I-4741J0D01*
G01*
X5019741Y2951600D02*
G03*
X5019741Y2951600I-4741J0D01*
G01*
X5042241Y2980000D02*
G03*
X5042241Y2980000I-4741J0D01*
G01*
X5048341Y2995300D02*
G03*
X5048341Y2995300I-4741J0D01*
G01*
X5060841Y3006400D02*
G03*
X5060841Y3006400I-4741J0D01*
G01*
X5075741Y3012100D02*
G03*
X5075741Y3012100I-4741J0D01*
G01*
X5091941Y3011800D02*
G03*
X5091941Y3011800I-4741J0D01*
G01*
X5107241Y3005300D02*
G03*
X5107241Y3005300I-4741J0D01*
G01*
X5117441Y2994200D02*
G03*
X5117441Y2994200I-4741J0D01*
G01*
X5058941Y2982100D02*
G03*
X5058941Y2982100I-4741J0D01*
G01*
X5073441Y2991600D02*
G03*
X5073441Y2991600I-4741J0D01*
G01*
X5092041Y2989400D02*
G03*
X5092041Y2989400I-4741J0D01*
G01*
X5105741Y2978700D02*
G03*
X5105741Y2978700I-4741J0D01*
G01*
X5115241Y2964700D02*
G03*
X5115241Y2964700I-4741J0D01*
G01*
X5119041Y2947400D02*
G03*
X5119041Y2947400I-4741J0D01*
G01*
X5118341Y2928600D02*
G03*
X5118341Y2928600I-4741J0D01*
G01*
X4990941Y2991100D02*
G03*
X4990941Y2991100I-4741J0D01*
G01*
X4990241Y2973000D02*
G03*
X4990241Y2973000I-4741J0D01*
G01*
X4994041Y2955700D02*
G03*
X4994041Y2955700I-4741J0D01*
G01*
X5003542Y2940700D02*
G03*
X5003542Y2940700I-4741J0D01*
G01*
X5017241Y2930000D02*
G03*
X5017241Y2930000I-4741J0D01*
G01*
X5035841Y2928800D02*
G03*
X5035841Y2928800I-4741J0D01*
G01*
X5050341Y2938300D02*
G03*
X5050341Y2938300I-4741J0D01*
G01*
X4991841Y2926200D02*
G03*
X4991841Y2926200I-4741J0D01*
G01*
X5002041Y2915100D02*
G03*
X5002041Y2915100I-4741J0D01*
G01*
X5017341Y2908600D02*
G03*
X5017341Y2908600I-4741J0D01*
G01*
X5033541Y2908300D02*
G03*
X5033541Y2908300I-4741J0D01*
G01*
X5048441Y2914000D02*
G03*
X5048441Y2914000I-4741J0D01*
G01*
X5060941Y2925100D02*
G03*
X5060941Y2925100I-4741J0D01*
G01*
X5067041Y2940400D02*
G03*
X5067041Y2940400I-4741J0D01*
G01*
X5089541Y2968800D02*
G03*
X5089541Y2968800I-4741J0D01*
G01*
X5073041Y2972600D02*
G03*
X5073041Y2972600I-4741J0D01*
G01*
X5074441Y2955700D02*
G03*
X5074441Y2955700I-4741J0D01*
G01*
X5098541Y2953800D02*
G03*
X5098541Y2953800I-4741J0D01*
G01*
X5083490Y2940155D02*
G03*
X5083490Y2940155I-4741J0D01*
G01*
X5100741Y2935900D02*
G03*
X5100741Y2935900I-4741J0D01*
G01*
X5099141Y2917800D02*
G03*
X5099141Y2917800I-4741J0D01*
G01*
X5080541Y2921300D02*
G03*
X5080541Y2921300I-4741J0D01*
G01*
X5024041Y2887100D02*
G03*
X5024041Y2887100I-4741J0D01*
G01*
X5042041Y2888700D02*
G03*
X5042041Y2888700I-4741J0D01*
G01*
X5058841Y2894800D02*
G03*
X5058841Y2894800I-4741J0D01*
G01*
X5071241Y2906300D02*
G03*
X5071241Y2906300I-4741J0D01*
G01*
X5093841Y2899700D02*
G03*
X5093841Y2899700I-4741J0D01*
G01*
X5083041Y2884200D02*
G03*
X5083041Y2884200I-4741J0D01*
G01*
X5059684Y2970201D02*
X5059684Y2950201D01*
X5039984D02*
Y2970201D01*
X5058884Y2950201D02*
X5059684Y2950201D01*
X5058884Y2970201D02*
X5059684Y2970201D01*
X5039984Y2970201D02*
X5040784Y2970201D01*
X5039984Y2950201D02*
X5040784Y2950201D01*
X5063300Y2860500D02*
X5070300D01*
X5063300Y2872700D02*
X5070300Y2872700D01*
X5063300Y2871300D02*
X5063300Y2872700D01*
Y2860500D02*
Y2861800D01*
X5070300Y2872700D02*
X5070300Y2871300D01*
X5070300Y2860500D02*
Y2861800D01*
X4990800Y2879800D02*
X4997800D01*
X4990800Y2892000D02*
X4997800Y2892000D01*
X4990800Y2890600D02*
X4990800Y2892000D01*
Y2879800D02*
Y2881100D01*
X4997800Y2892000D02*
X4997800Y2890600D01*
X4997800Y2879800D02*
Y2881100D01*
X5079899Y2856299D02*
X5079399Y2856799D01*
X5078400D01*
X5077900Y2856299D01*
Y2855799D01*
X5078400Y2855300D01*
X5079399D01*
X5079899Y2854800D01*
Y2854300D01*
X5079399Y2853800D01*
X5078400D01*
X5077900Y2854300D01*
X5080899Y2856799D02*
Y2853800D01*
X5082399D01*
X5082898Y2854300D01*
Y2856299D01*
X5082399Y2856799D01*
X5080899D01*
X5083898Y2853800D02*
Y2855799D01*
X5084898Y2856799D01*
X5085897Y2855799D01*
Y2853800D01*
Y2855300D01*
X5083898D01*
X5068500Y2856799D02*
Y2854800D01*
X5069500Y2853800D01*
X5070499Y2854800D01*
Y2856799D01*
X5071499Y2855300D02*
X5073499D01*
X5072499Y2856299D02*
Y2854300D01*
X4994199Y2896399D02*
X4993700Y2896899D01*
X4992700D01*
X4992200Y2896399D01*
Y2894400D01*
X4992700Y2893900D01*
X4993700D01*
X4994199Y2894400D01*
X4995199Y2893900D02*
X4996199D01*
X4995699D01*
Y2896899D01*
X4995199Y2896399D01*
X5070400Y2865100D02*
Y2868099D01*
X5071899D01*
X5072399Y2867599D01*
Y2866599D01*
X5071899Y2866100D01*
X5070400D01*
X5071400D02*
X5072399Y2865100D01*
X5075398Y2868099D02*
X5074399Y2867599D01*
X5073399Y2866599D01*
Y2865600D01*
X5073899Y2865100D01*
X5074899D01*
X5075398Y2865600D01*
Y2866100D01*
X5074899Y2866599D01*
X5073399D01*
X5042800Y2872600D02*
Y2874599D01*
X5043800Y2875599D01*
X5044799Y2874599D01*
Y2872600D01*
Y2874100D01*
X5042800D01*
X5053100Y2875599D02*
Y2872600D01*
X5054599D01*
X5055099Y2873100D01*
Y2873600D01*
X5054599Y2874100D01*
X5053100D01*
X5054599D01*
X5055099Y2874599D01*
Y2875099D01*
X5054599Y2875599D01*
X5053100D01*
X5089500Y2856799D02*
X5090500D01*
X5090000D01*
Y2853800D01*
X5089500D01*
X5090500D01*
X5093499Y2856799D02*
X5092499D01*
X5091999Y2856299D01*
Y2854300D01*
X5092499Y2853800D01*
X5093499D01*
X5093998Y2854300D01*
Y2856299D01*
X5093499Y2856799D01*
X5094998Y2853800D02*
X5095998D01*
X5095498D01*
Y2856799D01*
X5094998Y2856299D01*
X5089000Y2850899D02*
X5090000D01*
X5089500D01*
Y2847900D01*
X5089000D01*
X5090000D01*
X5092999Y2850899D02*
X5091999D01*
X5091499Y2850399D01*
Y2848400D01*
X5091999Y2847900D01*
X5092999D01*
X5093499Y2848400D01*
Y2850399D01*
X5092999Y2850899D01*
X5096498Y2847900D02*
X5094498D01*
X5096498Y2849899D01*
Y2850399D01*
X5095998Y2850899D01*
X5094998D01*
X5094498Y2850399D01*
X5069199D02*
X5068700Y2850899D01*
X5067700D01*
X5067200Y2850399D01*
Y2848400D01*
X5067700Y2847900D01*
X5068700D01*
X5069199Y2848400D01*
Y2849400D01*
X5068200D01*
X5070199Y2847900D02*
Y2850899D01*
X5072198Y2847900D01*
Y2850899D01*
X5073198D02*
Y2847900D01*
X5074697D01*
X5075197Y2848400D01*
Y2850399D01*
X5074697Y2850899D01*
X5073198D01*
X4993700Y2865399D02*
Y2862900D01*
X4994200Y2862400D01*
X4995200D01*
X4995699Y2862900D01*
Y2865399D01*
X4996699Y2862400D02*
X4997699D01*
X4997199D01*
Y2865399D01*
X4996699Y2864899D01*
X5079899Y2850399D02*
X5079399Y2850899D01*
X5078400D01*
X5077900Y2850399D01*
Y2849899D01*
X5078400Y2849400D01*
X5079399D01*
X5079899Y2848900D01*
Y2848400D01*
X5079399Y2847900D01*
X5078400D01*
X5077900Y2848400D01*
X5082898Y2850399D02*
X5082399Y2850899D01*
X5081399D01*
X5080899Y2850399D01*
Y2848400D01*
X5081399Y2847900D01*
X5082399D01*
X5082898Y2848400D01*
X5083898Y2850899D02*
Y2847900D01*
Y2848900D01*
X5085897Y2850899D01*
X5084398Y2849400D01*
X5085897Y2847900D01*
D83*
X4999554Y2870597D02*
X5033311Y2870597D01*
X4999554Y2856043D02*
X5033311Y2856043D01*
X4999554Y2856043D02*
X4999554Y2861798D01*
X5033311Y2870597D02*
X5033311Y2856043D01*
X4999554Y2861798D02*
X5000341Y2862586D01*
X4999554Y2864735D02*
X4999554Y2870597D01*
X4999554Y2864735D02*
X5000341Y2863948D01*
X5000341Y2862586D01*
D84*
X5007100Y2861900D02*
Y2864299D01*
X5008300Y2865499D01*
X5009499Y2864299D01*
Y2861900D01*
Y2863699D01*
X5007100D01*
X5013098Y2864899D02*
X5012498Y2865499D01*
X5011299D01*
X5010699Y2864899D01*
Y2864299D01*
X5011299Y2863699D01*
X5012498D01*
X5013098Y2863100D01*
Y2862500D01*
X5012498Y2861900D01*
X5011299D01*
X5010699Y2862500D01*
X5014298Y2861900D02*
X5015497D01*
X5014898D01*
Y2865499D01*
X5014298Y2864899D01*
X5017297Y2861900D02*
X5018496D01*
X5017897D01*
Y2865499D01*
X5017297Y2864899D01*
X5020296Y2861900D02*
X5021495D01*
X5020895D01*
Y2865499D01*
X5020296Y2864899D01*
X5025694Y2865499D02*
X5023295D01*
Y2863699D01*
X5024495Y2864299D01*
X5025094D01*
X5025694Y2863699D01*
Y2862500D01*
X5025094Y2861900D01*
X5023895D01*
X5023295Y2862500D01*
M02*
