%TF.GenerationSoftware,KiCad,Pcbnew,8.0.5*%
%TF.CreationDate,2024-09-21T17:09:33+02:00*%
%TF.ProjectId,sao_proto,73616f5f-7072-46f7-946f-2e6b69636164,rev?*%
%TF.SameCoordinates,Original*%
%TF.FileFunction,Soldermask,Bot*%
%TF.FilePolarity,Negative*%
%FSLAX46Y46*%
G04 Gerber Fmt 4.6, Leading zero omitted, Abs format (unit mm)*
G04 Created by KiCad (PCBNEW 8.0.5) date 2024-09-21 17:09:33*
%MOMM*%
%LPD*%
G01*
G04 APERTURE LIST*
%ADD10C,1.700000*%
%ADD11O,1.700000X1.700000*%
%ADD12R,1.700000X1.700000*%
G04 APERTURE END LIST*
D10*
%TO.C,REF\u002A\u002A*%
X144785000Y-77470000D03*
D11*
X144785000Y-80010000D03*
X144785000Y-82550000D03*
X144785000Y-85090000D03*
X144785000Y-87630000D03*
X144785000Y-90170000D03*
X144785000Y-92710000D03*
X144785000Y-95250000D03*
X144785000Y-97790000D03*
X144785000Y-100330000D03*
%TD*%
D10*
%TO.C,REF\u002A\u002A*%
X129545000Y-87630000D03*
D11*
X132085000Y-87630000D03*
X134625000Y-87630000D03*
X137165000Y-87630000D03*
X139705000Y-87630000D03*
%TD*%
D10*
%TO.C,REF\u002A\u002A*%
X157480000Y-90170000D03*
D11*
X154940000Y-90170000D03*
X152400000Y-90170000D03*
X149860000Y-90170000D03*
X147320000Y-90170000D03*
%TD*%
D10*
%TO.C,REF\u002A\u002A*%
X129545000Y-77470000D03*
D11*
X132085000Y-77470000D03*
X134625000Y-77470000D03*
X137165000Y-77470000D03*
X139705000Y-77470000D03*
%TD*%
D10*
%TO.C,REF\u002A\u002A*%
X157480000Y-77470000D03*
D11*
X154940000Y-77470000D03*
X152400000Y-77470000D03*
X149860000Y-77470000D03*
X147320000Y-77470000D03*
%TD*%
D10*
%TO.C,REF\u002A\u002A*%
X129545000Y-92710000D03*
D11*
X132085000Y-92710000D03*
X134625000Y-92710000D03*
X137165000Y-92710000D03*
X139705000Y-92710000D03*
%TD*%
D10*
%TO.C,J2*%
X154935000Y-115570000D03*
D11*
X157475000Y-115570000D03*
%TD*%
D10*
%TO.C,REF\u002A\u002A*%
X157480000Y-80010000D03*
D11*
X154940000Y-80010000D03*
X152400000Y-80010000D03*
X149860000Y-80010000D03*
X147320000Y-80010000D03*
%TD*%
D10*
%TO.C,REF\u002A\u002A*%
X129545000Y-80010000D03*
D11*
X132085000Y-80010000D03*
X134625000Y-80010000D03*
X137165000Y-80010000D03*
X139705000Y-80010000D03*
%TD*%
D10*
%TO.C,REF\u002A\u002A*%
X157480000Y-97790000D03*
D11*
X154940000Y-97790000D03*
X152400000Y-97790000D03*
X149860000Y-97790000D03*
X147320000Y-97790000D03*
%TD*%
D10*
%TO.C,REF\u002A\u002A*%
X129545000Y-100330000D03*
D11*
X132085000Y-100330000D03*
X134625000Y-100330000D03*
X137165000Y-100330000D03*
X139705000Y-100330000D03*
%TD*%
D10*
%TO.C,REF\u002A\u002A*%
X129545000Y-97790000D03*
D11*
X132085000Y-97790000D03*
X134625000Y-97790000D03*
X137165000Y-97790000D03*
X139705000Y-97790000D03*
%TD*%
D10*
%TO.C,REF\u002A\u002A*%
X157480000Y-87630000D03*
D11*
X154940000Y-87630000D03*
X152400000Y-87630000D03*
X149860000Y-87630000D03*
X147320000Y-87630000D03*
%TD*%
D10*
%TO.C,REF\u002A\u002A*%
X157480000Y-82550000D03*
D11*
X154940000Y-82550000D03*
X152400000Y-82550000D03*
X149860000Y-82550000D03*
X147320000Y-82550000D03*
%TD*%
D10*
%TO.C,REF\u002A\u002A*%
X129545000Y-95250000D03*
D11*
X132085000Y-95250000D03*
X134625000Y-95250000D03*
X137165000Y-95250000D03*
X139705000Y-95250000D03*
%TD*%
D10*
%TO.C,REF\u002A\u002A*%
X142245000Y-77470000D03*
D11*
X142245000Y-80010000D03*
X142245000Y-82550000D03*
X142245000Y-85090000D03*
X142245000Y-87630000D03*
X142245000Y-90170000D03*
X142245000Y-92710000D03*
X142245000Y-95250000D03*
X142245000Y-97790000D03*
X142245000Y-100330000D03*
%TD*%
D10*
%TO.C,REF\u002A\u002A*%
X157480000Y-95250000D03*
D11*
X154940000Y-95250000D03*
X152400000Y-95250000D03*
X149860000Y-95250000D03*
X147320000Y-95250000D03*
%TD*%
D10*
%TO.C,REF\u002A\u002A*%
X157480000Y-100330000D03*
D11*
X154940000Y-100330000D03*
X152400000Y-100330000D03*
X149860000Y-100330000D03*
X147320000Y-100330000D03*
%TD*%
D10*
%TO.C,J4*%
X127000000Y-106680000D03*
D11*
X129540000Y-106680000D03*
X132080000Y-106680000D03*
X134620000Y-106680000D03*
X137160000Y-106680000D03*
X139700000Y-106680000D03*
X142240000Y-106680000D03*
X144780000Y-106680000D03*
X147320000Y-106680000D03*
X149860000Y-106680000D03*
X152400000Y-106680000D03*
X154940000Y-106680000D03*
X157480000Y-106680000D03*
X160020000Y-106680000D03*
%TD*%
D10*
%TO.C,REF\u002A\u002A*%
X129545000Y-82550000D03*
D11*
X132085000Y-82550000D03*
X134625000Y-82550000D03*
X137165000Y-82550000D03*
X139705000Y-82550000D03*
%TD*%
D10*
%TO.C,REF\u002A\u002A*%
X129545000Y-85090000D03*
D11*
X132085000Y-85090000D03*
X134625000Y-85090000D03*
X137165000Y-85090000D03*
X139705000Y-85090000D03*
%TD*%
D10*
%TO.C,REF\u002A\u002A*%
X157480000Y-85090000D03*
D11*
X154940000Y-85090000D03*
X152400000Y-85090000D03*
X149860000Y-85090000D03*
X147320000Y-85090000D03*
%TD*%
D10*
%TO.C,REF\u002A\u002A*%
X157480000Y-92710000D03*
D11*
X154940000Y-92710000D03*
X152400000Y-92710000D03*
X149860000Y-92710000D03*
X147320000Y-92710000D03*
%TD*%
D10*
%TO.C,J3*%
X154310000Y-120015000D03*
D11*
X151770000Y-120015000D03*
%TD*%
D10*
%TO.C,REF\u002A\u002A*%
X129545000Y-90170000D03*
D11*
X132085000Y-90170000D03*
X134625000Y-90170000D03*
X137165000Y-90170000D03*
X139705000Y-90170000D03*
%TD*%
D12*
%TO.C,J1*%
X142260000Y-121300000D03*
D11*
X142260000Y-123840000D03*
X144800000Y-121300000D03*
X144800000Y-123840000D03*
X147340000Y-121300000D03*
X147340000Y-123840000D03*
%TD*%
M02*
