<?xml version="1.0" standalone="no"?>
 <!DOCTYPE svg PUBLIC "-//W3C//DTD SVG 1.1//EN" 
 "http://www.w3.org/Graphics/SVG/1.1/DTD/svg11.dtd"> 
<svg
  xmlns:svg="http://www.w3.org/2000/svg"
  xmlns="http://www.w3.org/2000/svg"
  xmlns:xlink="http://www.w3.org/1999/xlink"
  version="1.1"
  width="75.8190mm" height="72.1360mm" viewBox="0.0000 0.0000 75.8190 72.1360">
<title>SVG Image created as sao_proto-Edge_Cuts.svg date 2024/10/23 08:12:23 </title>
  <desc>Image generated by PCBNEW </desc>
<g style="fill:#000000; fill-opacity:1.0000;stroke:#000000; stroke-opacity:1.0000;
stroke-linecap:round; stroke-linejoin:round;"
 transform="translate(0 0) scale(1 1)">
<path style="fill:none; 
stroke:#000000; stroke-width:0.1653; stroke-opacity:1; 
stroke-linecap:round; stroke-linejoin:round;fill:none"
d="M 46.3189,10.5720
46.5122,10.5853
46.7032,10.6077
46.8916,10.6390
47.0774,10.6789
47.2602,10.7272
47.4398,10.7838
47.6160,10.8485
47.7887,10.9211
47.9575,11.0013
48.1224,11.0891
48.2829,11.1841
48.4390,11.2862
48.5904,11.3952
48.7369,11.5109
48.8783,11.6331
49.0144,11.7617
49.1449,11.8963
49.2696,12.0369
49.3883,12.1833
49.5008,12.3351
49.6069,12.4923
49.7064,12.6546
49.7990,12.8219
49.8845,12.9940
49.9627,13.1706
50.0335,13.3515
50.0964,13.5367
50.1515,13.7258
50.1983,13.9187
50.2368,14.1152
50.2667,14.3150
50.8053,18.8553
51.0881,21.5678
51.3580,24.4884
51.5983,27.5523
51.7927,30.6945
51.9248,33.8498
51.9779,36.9535
51.9512,38.7837
51.8652,40.5817
51.7257,42.3427
51.5384,44.0620
51.3090,45.7347
51.0432,47.3561
50.4257,50.4254
49.7316,53.2317
49.0069,55.7365
48.2972,57.9014
47.6486,59.6879
47.5871,59.8409
47.5204,59.9904
47.4487,60.1365
47.3722,60.2789
47.2908,60.4177
47.2048,60.5526
47.1144,60.6837
47.0195,60.8107
46.9205,60.9337
46.8173,61.0526
46.7102,61.1672
46.5992,61.2774
46.4845,61.3832
46.3663,61.4845
46.2446,61.5811
46.1197,61.6731
45.9915,61.7602
45.8604,61.8424
45.7263,61.9196
45.5894,61.9917
45.4499,62.0586
45.3079,62.1202
45.1635,62.1765
45.0169,62.2273
44.8682,62.2726
44.7174,62.3122
44.5649,62.3460
44.4106,62.3741
44.2548,62.3962
44.0975,62.4122
43.9388,62.4222
43.7791,62.4260
40.7592,62.4328
40.5217,62.4406
40.2865,62.4621
40.0539,62.4972
39.8246,62.5455
39.5990,62.6068
39.3775,62.6809
39.1607,62.7675
38.9491,62.8664
38.7432,62.9772
38.5434,63.0999
38.3503,63.2340
38.1644,63.3794
37.9861,63.5358
37.8159,63.7029
37.6543,63.8806
37.5019,64.0685
37.3093,64.3240
37.1568,64.5125
36.9952,64.6907
36.8248,64.8583
36.6463,65.0150
36.4602,65.1607
36.2668,65.2951
36.0669,65.4178
35.8608,65.5287
35.6490,65.6276
35.4322,65.7140
35.2107,65.7879
34.9851,65.8489
34.7560,65.8969
34.5237,65.9315
34.2889,65.9525
34.0520,65.9596
31.1462,65.9677
30.8990,65.9608
30.6542,65.9390
30.4123,65.9024
30.1738,65.8515
29.9393,65.7865
29.7094,65.7077
29.4846,65.6153
29.2656,65.5097
29.0527,65.3911
28.8467,65.2598
28.6480,65.1161
28.4572,64.9603
28.2750,64.7926
28.1017,64.6134
27.9381,64.4230
27.7846,64.2215
27.6317,64.0201
27.4686,63.8296
27.2958,63.6504
27.1139,63.4828
26.9234,63.3270
26.7249,63.1833
26.5190,63.0520
26.3062,62.9334
26.0871,62.8278
25.8622,62.7354
25.6321,62.6566
25.3973,62.5915
25.1585,62.5406
24.9161,62.5041
24.6707,62.4823
24.4230,62.4754
20.4530,62.4863
20.1503,62.4758
19.8520,62.4431
19.5590,62.3888
19.2722,62.3136
18.9926,62.2180
18.7212,62.1027
18.4588,61.9682
18.2065,61.8151
17.9652,61.6441
17.7358,61.4557
17.5193,61.2506
17.3167,61.0294
17.1288,60.7926
16.9567,60.5409
16.8013,60.2748
16.6635,59.9950
15.8574,58.1308
14.9514,55.8533
14.0092,53.2262
13.5444,51.8013
13.0943,50.3128
12.6670,48.7687
12.2702,47.1767
11.9121,45.5450
11.6005,43.8814
11.3434,42.1939
11.1487,40.4904
11.0244,38.7788
10.9784,37.0670
11.0062,33.8991
11.0961,30.7171
11.2355,27.5782
11.4120,24.5391
11.8259,18.9886
12.2376,14.5214
12.2627,14.3169
12.2967,14.1157
12.3394,13.9181
12.3907,13.7242
12.4502,13.5342
12.5177,13.3483
12.5931,13.1668
12.6761,12.9898
12.7665,12.8176
12.8640,12.6504
12.9685,12.4883
13.0797,12.3317
13.1974,12.1806
13.3214,12.0353
13.4514,11.8960
13.5873,11.7629
13.7288,11.6363
13.8757,11.5163
14.0278,11.4031
14.1848,11.2969
14.3465,11.1981
14.5127,11.1066
14.6833,11.0229
14.8579,10.9470
15.0363,10.8792
15.2183,10.8197
15.4038,10.7687
15.5924,10.7265
15.7840,10.6931
15.9783,10.6689
16.1751,10.6539
16.3742,10.6486
46.1236,10.5679
Z" /> 
</g> 
</svg>
