G04*
G04 #@! TF.GenerationSoftware,Altium Limited,CircuitStudio,1.5.2 (30)*
G04*
G04 Layer_Physical_Order=2*
G04 Layer_Color=51200*
%FSLAX25Y25*%
%MOIN*%
G70*
G01*
G75*
%ADD10C,0.01000*%
%ADD11C,0.01200*%
%ADD12C,0.06000*%
%ADD13C,0.06400*%
%ADD14C,0.03600*%
%ADD15C,0.02600*%
D10*
X769000Y632000D02*
X792800D01*
X764500Y627500D02*
X769000Y632000D01*
D11*
X790050Y632150D02*
X792100Y634300D01*
D12*
X775000Y650000D02*
D03*
Y660000D02*
D03*
Y670000D02*
D03*
Y680000D02*
D03*
Y690000D02*
D03*
Y700000D02*
D03*
Y710000D02*
D03*
Y720000D02*
D03*
Y730000D02*
D03*
Y740000D02*
D03*
Y750000D02*
D03*
Y760000D02*
D03*
Y770000D02*
D03*
Y780000D02*
D03*
Y790000D02*
D03*
Y800000D02*
D03*
Y810000D02*
D03*
Y820000D02*
D03*
Y830000D02*
D03*
X765000D02*
D03*
Y820000D02*
D03*
Y810000D02*
D03*
Y800000D02*
D03*
Y790000D02*
D03*
Y780000D02*
D03*
Y770000D02*
D03*
Y760000D02*
D03*
Y750000D02*
D03*
Y740000D02*
D03*
Y730000D02*
D03*
Y720000D02*
D03*
Y710000D02*
D03*
Y700000D02*
D03*
Y690000D02*
D03*
Y680000D02*
D03*
Y670000D02*
D03*
Y660000D02*
D03*
Y650000D02*
D03*
X755000Y830000D02*
D03*
Y820000D02*
D03*
Y810000D02*
D03*
Y800000D02*
D03*
Y790000D02*
D03*
Y780000D02*
D03*
Y770000D02*
D03*
Y760000D02*
D03*
Y750000D02*
D03*
Y740000D02*
D03*
Y730000D02*
D03*
Y720000D02*
D03*
Y710000D02*
D03*
Y700000D02*
D03*
Y690000D02*
D03*
Y680000D02*
D03*
Y670000D02*
D03*
Y660000D02*
D03*
Y650000D02*
D03*
X745000Y830000D02*
D03*
Y820000D02*
D03*
Y810000D02*
D03*
Y800000D02*
D03*
Y790000D02*
D03*
Y780000D02*
D03*
Y770000D02*
D03*
Y760000D02*
D03*
Y750000D02*
D03*
Y740000D02*
D03*
Y730000D02*
D03*
Y720000D02*
D03*
Y710000D02*
D03*
Y700000D02*
D03*
Y690000D02*
D03*
Y680000D02*
D03*
Y670000D02*
D03*
Y660000D02*
D03*
Y650000D02*
D03*
X735000Y830000D02*
D03*
Y820000D02*
D03*
Y810000D02*
D03*
Y800000D02*
D03*
Y790000D02*
D03*
Y780000D02*
D03*
Y770000D02*
D03*
Y760000D02*
D03*
Y750000D02*
D03*
Y740000D02*
D03*
Y730000D02*
D03*
Y720000D02*
D03*
Y710000D02*
D03*
Y700000D02*
D03*
Y690000D02*
D03*
Y680000D02*
D03*
Y670000D02*
D03*
Y660000D02*
D03*
Y650000D02*
D03*
X725000Y830000D02*
D03*
Y820000D02*
D03*
Y810000D02*
D03*
Y800000D02*
D03*
Y790000D02*
D03*
Y780000D02*
D03*
Y770000D02*
D03*
Y760000D02*
D03*
Y750000D02*
D03*
Y740000D02*
D03*
Y730000D02*
D03*
Y720000D02*
D03*
Y710000D02*
D03*
Y700000D02*
D03*
Y690000D02*
D03*
Y680000D02*
D03*
Y670000D02*
D03*
Y660000D02*
D03*
Y650000D02*
D03*
X715000Y830000D02*
D03*
Y820000D02*
D03*
Y810000D02*
D03*
Y800000D02*
D03*
Y790000D02*
D03*
Y780000D02*
D03*
Y770000D02*
D03*
Y760000D02*
D03*
Y750000D02*
D03*
Y740000D02*
D03*
Y730000D02*
D03*
Y720000D02*
D03*
Y710000D02*
D03*
Y700000D02*
D03*
Y690000D02*
D03*
Y680000D02*
D03*
X705000Y780000D02*
D03*
Y770000D02*
D03*
Y760000D02*
D03*
Y750000D02*
D03*
Y740000D02*
D03*
Y730000D02*
D03*
Y790000D02*
D03*
X785000Y650000D02*
D03*
Y660000D02*
D03*
Y670000D02*
D03*
Y680000D02*
D03*
Y690000D02*
D03*
Y700000D02*
D03*
Y710000D02*
D03*
Y720000D02*
D03*
Y730000D02*
D03*
Y740000D02*
D03*
Y750000D02*
D03*
Y760000D02*
D03*
Y770000D02*
D03*
Y780000D02*
D03*
Y790000D02*
D03*
Y800000D02*
D03*
Y810000D02*
D03*
Y820000D02*
D03*
Y830000D02*
D03*
X795000Y650000D02*
D03*
Y660000D02*
D03*
Y670000D02*
D03*
Y680000D02*
D03*
Y690000D02*
D03*
Y700000D02*
D03*
Y710000D02*
D03*
Y720000D02*
D03*
Y730000D02*
D03*
Y740000D02*
D03*
Y750000D02*
D03*
Y760000D02*
D03*
Y770000D02*
D03*
Y780000D02*
D03*
Y790000D02*
D03*
Y800000D02*
D03*
Y810000D02*
D03*
Y820000D02*
D03*
Y830000D02*
D03*
X805000Y650000D02*
D03*
Y660000D02*
D03*
Y670000D02*
D03*
Y680000D02*
D03*
Y690000D02*
D03*
Y700000D02*
D03*
Y710000D02*
D03*
Y720000D02*
D03*
Y730000D02*
D03*
Y740000D02*
D03*
Y750000D02*
D03*
Y760000D02*
D03*
Y770000D02*
D03*
Y780000D02*
D03*
Y790000D02*
D03*
Y800000D02*
D03*
Y810000D02*
D03*
Y820000D02*
D03*
Y830000D02*
D03*
X815000Y650000D02*
D03*
Y660000D02*
D03*
Y670000D02*
D03*
Y680000D02*
D03*
Y690000D02*
D03*
Y700000D02*
D03*
Y710000D02*
D03*
Y720000D02*
D03*
Y730000D02*
D03*
Y740000D02*
D03*
Y750000D02*
D03*
Y760000D02*
D03*
Y770000D02*
D03*
Y780000D02*
D03*
Y790000D02*
D03*
Y800000D02*
D03*
Y810000D02*
D03*
Y820000D02*
D03*
Y830000D02*
D03*
X825000Y650000D02*
D03*
Y660000D02*
D03*
Y670000D02*
D03*
Y680000D02*
D03*
Y690000D02*
D03*
Y700000D02*
D03*
Y710000D02*
D03*
Y720000D02*
D03*
Y730000D02*
D03*
Y740000D02*
D03*
Y750000D02*
D03*
Y760000D02*
D03*
Y770000D02*
D03*
Y780000D02*
D03*
Y790000D02*
D03*
Y800000D02*
D03*
Y810000D02*
D03*
Y820000D02*
D03*
Y830000D02*
D03*
X835000D02*
D03*
Y820000D02*
D03*
Y810000D02*
D03*
Y800000D02*
D03*
Y790000D02*
D03*
Y780000D02*
D03*
Y770000D02*
D03*
Y760000D02*
D03*
Y750000D02*
D03*
Y740000D02*
D03*
Y730000D02*
D03*
Y720000D02*
D03*
Y710000D02*
D03*
Y700000D02*
D03*
Y690000D02*
D03*
Y680000D02*
D03*
X845000Y790000D02*
D03*
Y730000D02*
D03*
Y740000D02*
D03*
Y750000D02*
D03*
Y760000D02*
D03*
Y770000D02*
D03*
Y780000D02*
D03*
Y800000D02*
D03*
Y720000D02*
D03*
X705000D02*
D03*
Y800000D02*
D03*
D13*
X765100Y637000D02*
D03*
Y627000D02*
D03*
X775100D02*
D03*
X785100D02*
D03*
Y637000D02*
D03*
X775100D02*
D03*
D14*
X755000Y639700D02*
X757700Y637000D01*
X743700Y639700D02*
X755000D01*
X733400Y650000D02*
X743700Y639700D01*
X817100Y640000D02*
X825100Y648000D01*
X799500Y640000D02*
X817100D01*
X792700Y633200D02*
X799500Y640000D01*
X724900Y650000D02*
X733400D01*
X724900D02*
Y668800D01*
X757700Y637000D02*
X765000D01*
X715100Y678600D02*
X724900Y668800D01*
X715100Y678600D02*
Y708700D01*
X704900Y718900D02*
X715100Y708700D01*
X704900Y718900D02*
Y801600D01*
X715000Y811700D01*
Y830000D01*
X835000Y811700D02*
Y830000D01*
Y811700D02*
X845100Y801600D01*
Y718900D02*
Y801600D01*
X834900Y708700D02*
X845100Y718900D01*
X834900Y678600D02*
Y708700D01*
X825100Y668800D02*
X834900Y678600D01*
X825100Y648000D02*
Y668800D01*
D15*
X785000Y637000D02*
Y650000D01*
X775000Y637000D02*
Y650000D01*
X725000Y680000D02*
Y700000D01*
Y710000D02*
Y750000D01*
Y810000D02*
Y830000D01*
X755000Y710000D02*
Y750000D01*
Y810000D02*
Y830000D01*
X765000Y710000D02*
Y750000D01*
Y810000D02*
Y830000D01*
X795000Y710000D02*
Y750000D01*
Y810000D02*
Y830000D01*
X805000Y710000D02*
Y750000D01*
Y810000D02*
Y830000D01*
X725000Y760000D02*
Y800000D01*
X755000Y760000D02*
Y800000D01*
X765000Y760000D02*
Y800000D01*
X795000Y760000D02*
Y800000D01*
X805000Y760000D02*
Y800000D01*
X825000Y680000D02*
Y700000D01*
X735000Y710000D02*
Y750000D01*
Y810000D02*
Y830000D01*
X745000Y710000D02*
Y750000D01*
Y810000D02*
Y830000D01*
X775000Y710000D02*
Y750000D01*
X785000Y710000D02*
Y750000D01*
Y810000D02*
Y830000D01*
X775000Y810000D02*
Y830000D01*
X815000Y710000D02*
Y750000D01*
X825000Y710000D02*
Y750000D01*
Y810000D02*
Y830000D01*
X815000Y810000D02*
Y830000D01*
X735000Y760000D02*
Y800000D01*
X745000Y760000D02*
Y800000D01*
X775000Y760000D02*
Y800000D01*
X785000Y760000D02*
Y800000D01*
X815000Y760000D02*
Y800000D01*
X825000Y760000D02*
Y800000D01*
X735000Y660000D02*
Y700000D01*
X745000Y660000D02*
Y700000D01*
X755000Y660000D02*
Y700000D01*
X765000Y660000D02*
Y700000D01*
X775000Y660000D02*
Y700000D01*
X785000Y660000D02*
Y700000D01*
X795000Y660000D02*
Y700000D01*
X805000Y660000D02*
Y700000D01*
X815000Y660000D02*
Y700000D01*
X835000Y760000D02*
Y800000D01*
X715000Y760000D02*
Y800000D01*
Y720000D02*
Y750000D01*
X835000Y720000D02*
Y750000D01*
X805000Y650000D02*
X815000D01*
X785000D02*
X795000D01*
X765000D02*
X775000D01*
X745000D02*
X755000D01*
M02*
