G04*
G04 #@! TF.GenerationSoftware,Altium Limited,CircuitStudio,1.5.2 (30)*
G04*
G04 Layer_Color=65535*
%FSLAX25Y25*%
%MOIN*%
G70*
G01*
G75*
%ADD11C,0.01200*%
%ADD16C,0.04000*%
%ADD17C,0.00800*%
%ADD18C,0.00600*%
D11*
X769000Y632000D02*
X792800D01*
X790050Y632150D02*
X792100Y634300D01*
X764500Y627500D02*
X769000Y632000D01*
D16*
X724900Y650000D02*
Y668800D01*
Y650000D02*
X733300D01*
X743500Y639800D01*
X792700Y633200D02*
X799500Y640000D01*
X817100D01*
X757700Y637000D02*
X765000D01*
X754900Y639800D02*
X757700Y637000D01*
X743500Y639800D02*
X754900D01*
X817100Y640000D02*
X825100Y648000D01*
X785000Y637000D02*
Y650000D01*
X775000Y637000D02*
Y650000D01*
X715100Y678600D02*
X724900Y668800D01*
X715100Y678600D02*
Y708700D01*
X704900Y718900D02*
X715100Y708700D01*
X704900Y718900D02*
Y801600D01*
X715000Y811700D01*
Y830000D01*
X835000Y811700D02*
Y830000D01*
Y811700D02*
X845100Y801600D01*
Y718900D02*
Y801600D01*
X834900Y708700D02*
X845100Y718900D01*
X834900Y678600D02*
Y708700D01*
X825100Y668800D02*
X834900Y678600D01*
X825100Y648000D02*
Y668800D01*
X725000Y680000D02*
Y700000D01*
Y710000D02*
Y750000D01*
Y810000D02*
Y830000D01*
X755000Y710000D02*
Y750000D01*
Y810000D02*
Y830000D01*
X765000Y710000D02*
Y750000D01*
Y810000D02*
Y830000D01*
X795000Y710000D02*
Y750000D01*
Y810000D02*
Y830000D01*
X805000Y710000D02*
Y750000D01*
Y810000D02*
Y830000D01*
X725000Y760000D02*
Y800000D01*
X755000Y760000D02*
Y800000D01*
X765000Y760000D02*
Y800000D01*
X795000Y760000D02*
Y800000D01*
X805000Y760000D02*
Y800000D01*
X825000Y680000D02*
Y700000D01*
X735000Y710000D02*
Y750000D01*
Y810000D02*
Y830000D01*
X745000Y710000D02*
Y750000D01*
Y810000D02*
Y830000D01*
X775000Y710000D02*
Y750000D01*
X785000Y710000D02*
Y750000D01*
Y810000D02*
Y830000D01*
X775000Y810000D02*
Y830000D01*
X815000Y710000D02*
Y750000D01*
X825000Y710000D02*
Y750000D01*
Y810000D02*
Y830000D01*
X815000Y810000D02*
Y830000D01*
X735000Y760000D02*
Y800000D01*
X745000Y760000D02*
Y800000D01*
X775000Y760000D02*
Y800000D01*
X785000Y760000D02*
Y800000D01*
X815000Y760000D02*
Y800000D01*
X825000Y760000D02*
Y800000D01*
X735000Y660000D02*
Y700000D01*
X745000Y660000D02*
Y700000D01*
X755000Y660000D02*
Y700000D01*
X765000Y660000D02*
Y700000D01*
X775000Y660000D02*
Y700000D01*
X785000Y660000D02*
Y700000D01*
X795000Y660000D02*
Y700000D01*
X805000Y660000D02*
Y700000D01*
X815000Y660000D02*
Y700000D01*
X835000Y760000D02*
Y800000D01*
X715000Y760000D02*
Y800000D01*
Y720000D02*
Y750000D01*
X835000Y720000D02*
Y750000D01*
X805000Y650000D02*
X815000D01*
X785000D02*
X795000D01*
X765000D02*
X775000D01*
X745000D02*
X755000D01*
D17*
X760200Y644800D02*
X764800D01*
X755000Y650000D02*
X760200Y644800D01*
X764940D02*
X765943Y642888D01*
X766530Y644695D01*
X764136Y643475D02*
X765943Y642888D01*
X793700Y640300D02*
X795559Y640695D01*
X793305Y642159D02*
X793700Y640300D01*
X795900Y643600D01*
X797300D01*
X803700Y650000D01*
D18*
X751366Y646232D02*
X750699Y646899D01*
X749366D01*
X748700Y646232D01*
Y643566D01*
X749366Y642900D01*
X750699D01*
X751366Y643566D01*
X809300Y643000D02*
X810633D01*
X809966D01*
Y646999D01*
X809300Y646332D01*
X791366Y642900D02*
X788700D01*
X791366Y645566D01*
Y646232D01*
X790699Y646899D01*
X789366D01*
X788700Y646232D01*
X768700Y646899D02*
Y642900D01*
X770699D01*
X771366Y643566D01*
Y646232D01*
X770699Y646899D01*
X768700D01*
X709433Y706197D02*
X706100D01*
X704434Y704531D01*
X706100Y702865D01*
X709433D01*
X706933Y701199D02*
Y697866D01*
X708600Y699533D02*
X705267D01*
X841629Y698617D02*
X840796Y697784D01*
Y696118D01*
X841629Y695285D01*
X844961D01*
X845794Y696118D01*
Y697784D01*
X844961Y698617D01*
X843295D01*
Y696951D01*
X845794Y700283D02*
X840796D01*
X845794Y703615D01*
X840796D01*
Y705281D02*
X845794D01*
Y707781D01*
X844961Y708614D01*
X841629D01*
X840796Y707781D01*
Y705281D01*
X841525Y814593D02*
X840692Y813760D01*
Y812093D01*
X841525Y811260D01*
X844857D01*
X845690Y812093D01*
Y813760D01*
X844857Y814593D01*
X843191D01*
Y812926D01*
X845690Y816259D02*
X840692D01*
X845690Y819591D01*
X840692D01*
Y821257D02*
X845690D01*
Y823756D01*
X844857Y824589D01*
X841525D01*
X840692Y823756D01*
Y821257D01*
X709451Y822523D02*
X706118D01*
X704452Y820857D01*
X706118Y819191D01*
X709451D01*
X706952Y817525D02*
Y814193D01*
X708618Y815859D02*
X705285D01*
M02*
