M48
;Layer_Color=3158064
;FILE_FORMAT=2:5
INCH,LZ
;TYPE=PLATED
T1F00S00C0.03000
T2F00S00C0.04000
%
T01
X0725Y065
X0735
X0745
X0755
X0765
X0775
Y066
Y067
Y068
Y069
Y07
Y071
Y072
Y073
Y074
Y075
Y076
Y077
Y078
X0765
Y077
Y076
Y075
Y074
Y073
Y072
Y071
Y07
Y069
Y068
Y067
Y066
X0755
Y067
Y068
Y069
Y07
Y071
Y072
Y073
Y074
Y075
Y076
Y077
Y078
X0745
Y077
Y076
Y075
Y074
Y073
Y072
Y071
Y07
Y069
Y068
Y067
Y066
X0735
Y067
Y068
Y069
Y07
Y071
Y072
Y073
Y074
Y075
Y076
Y077
Y078
X0725
Y077
Y076
Y075
Y074
Y073
Y072
Y071
Y07
Y069
Y068
Y067
Y066
X0715Y068
Y069
Y07
Y071
Y072
Y073
Y074
Y075
Y076
Y077
Y078
X0705
Y077
Y076
Y075
Y074
Y073
Y072
X0785
Y071
Y07
Y069
Y068
Y067
Y066
Y065
X0795
Y066
Y067
Y068
Y069
Y07
Y071
Y072
Y073
X0785
Y074
Y075
Y076
Y077
Y078
X0795
Y077
Y076
Y075
Y074
X0805
Y073
Y072
Y071
Y07
Y069
Y068
Y067
Y066
Y065
X0815
Y066
Y067
Y068
Y069
Y07
Y071
Y072
Y073
Y074
Y075
X0805
Y076
Y077
Y078
X0815
Y077
Y076
X0825
Y075
Y074
Y073
Y072
Y071
Y07
Y069
Y068
Y067
Y066
Y065
X0835Y068
Y069
Y07
Y071
Y072
Y073
Y074
Y075
Y076
Y077
X0825
Y078
X0835
X0845
Y077
Y076
Y075
Y074
Y073
Y072
Y079
X0835
X0825
X0815
X0805
X0795
X0785
Y08
Y081
Y082
Y083
X0795
Y082
Y081
Y08
X0805
Y081
Y082
Y083
X0815
Y082
Y081
Y08
X0825
Y081
Y082
Y083
X0835
Y082
Y081
Y08
X0845
X0775
Y079
X0765
Y08
Y081
X0775
Y082
Y083
X0765
Y082
X0755
Y083
X0745
Y082
Y081
X0755
Y08
Y079
X0745
Y08
X0735
Y081
Y082
Y083
X0725
Y082
Y081
Y08
Y079
X0735
X0715
Y08
Y081
Y082
Y083
X0705Y08
Y079
T02
X07651Y0627
Y0637
X07751
Y0627
X07851
Y0637
M30
